%TF.GenerationSoftware,KiCad,Pcbnew,5.1.5+dfsg1-2build2*%
%TF.CreationDate,2022-09-06T14:28:28-04:00*%
%TF.ProjectId,salt_replacement,73616c74-5f72-4657-906c-6163656d656e,1.1.0*%
%TF.SameCoordinates,Original*%
%TF.FileFunction,Copper,L1,Top*%
%TF.FilePolarity,Positive*%
%FSLAX46Y46*%
G04 Gerber Fmt 4.6, Leading zero omitted, Abs format (unit mm)*
G04 Created by KiCad (PCBNEW 5.1.5+dfsg1-2build2) date 2022-09-06 14:28:28*
%MOMM*%
%LPD*%
G04 APERTURE LIST*
%TA.AperFunction,ComponentPad*%
%ADD10R,1.600000X1.600000*%
%TD*%
%TA.AperFunction,ComponentPad*%
%ADD11O,1.600000X1.600000*%
%TD*%
%TA.AperFunction,SMDPad,CuDef*%
%ADD12R,2.000000X3.400000*%
%TD*%
%TA.AperFunction,SMDPad,CuDef*%
%ADD13R,0.800000X0.900000*%
%TD*%
%TA.AperFunction,SMDPad,CuDef*%
%ADD14R,4.600000X1.100000*%
%TD*%
%TA.AperFunction,SMDPad,CuDef*%
%ADD15R,9.400000X10.800000*%
%TD*%
%TA.AperFunction,SMDPad,CuDef*%
%ADD16R,0.450000X1.050000*%
%TD*%
%TA.AperFunction,SMDPad,CuDef*%
%ADD17R,0.895000X1.470000*%
%TD*%
%TA.AperFunction,SMDPad,CuDef*%
%ADD18C,0.100000*%
%TD*%
%TA.AperFunction,SMDPad,CuDef*%
%ADD19R,1.800000X2.500000*%
%TD*%
%TA.AperFunction,SMDPad,CuDef*%
%ADD20R,0.450000X0.600000*%
%TD*%
%TA.AperFunction,ViaPad*%
%ADD21C,0.800000*%
%TD*%
%TA.AperFunction,ViaPad*%
%ADD22C,1.600000*%
%TD*%
%TA.AperFunction,Conductor*%
%ADD23C,0.250000*%
%TD*%
%TA.AperFunction,Conductor*%
%ADD24C,1.500000*%
%TD*%
%TA.AperFunction,Conductor*%
%ADD25C,2.000000*%
%TD*%
%TA.AperFunction,Conductor*%
%ADD26C,0.254000*%
%TD*%
G04 APERTURE END LIST*
D10*
%TO.P,J1,1*%
%TO.N,N/C*%
X111600000Y-111600000D03*
D11*
%TO.P,J1,9*%
%TO.N,Net-(J1-Pad9)*%
X119220000Y-129380000D03*
%TO.P,J1,2*%
%TO.N,N/C*%
X111600000Y-114140000D03*
%TO.P,J1,10*%
%TO.N,Net-(J1-Pad10)*%
X119220000Y-126840000D03*
%TO.P,J1,3*%
%TO.N,+5V*%
X111600000Y-116680000D03*
%TO.P,J1,11*%
%TO.N,/CASSETTE_DATA_IN*%
X119220000Y-124300000D03*
%TO.P,J1,4*%
%TO.N,/SERIAL_IN_TTL*%
X111600000Y-119220000D03*
%TO.P,J1,12*%
%TO.N,/SERIAL_OUT_RS232*%
X119220000Y-121760000D03*
%TO.P,J1,5*%
%TO.N,/CD_IN_TTL*%
X111600000Y-121760000D03*
%TO.P,J1,13*%
%TO.N,/CD_IN_RS232*%
X119220000Y-119220000D03*
%TO.P,J1,6*%
%TO.N,/SERIAL_OUT_TTL*%
X111600000Y-124300000D03*
%TO.P,J1,14*%
%TO.N,/SERIAL_IN_RS232*%
X119220000Y-116680000D03*
%TO.P,J1,7*%
%TO.N,/CASSETTE_DATA_IN_TTL*%
X111600000Y-126840000D03*
%TO.P,J1,15*%
%TO.N,N/C*%
X119220000Y-114140000D03*
%TO.P,J1,8*%
%TO.N,GND*%
X111600000Y-129380000D03*
%TO.P,J1,16*%
%TO.N,VCC*%
X119220000Y-111600000D03*
%TD*%
D12*
%TO.P,L1,1*%
%TO.N,Net-(D1-Pad1)*%
X126400000Y-114420000D03*
%TO.P,L1,2*%
%TO.N,+5V*%
X132100000Y-114420000D03*
%TD*%
D13*
%TO.P,Q1,1*%
%TO.N,Net-(J1-Pad10)*%
X116550000Y-127600000D03*
%TO.P,Q1,2*%
%TO.N,GND*%
X114650000Y-127600000D03*
%TO.P,Q1,3*%
%TO.N,Net-(J1-Pad9)*%
X115600000Y-129600000D03*
%TD*%
D14*
%TO.P,U1,1*%
%TO.N,VCC*%
X122825000Y-107320000D03*
%TO.P,U1,2*%
%TO.N,Net-(D1-Pad1)*%
X122825000Y-105620000D03*
%TO.P,U1,3*%
%TO.N,GND*%
X122825000Y-103920000D03*
%TO.P,U1,4*%
%TO.N,+5V*%
X122825000Y-102220000D03*
%TO.P,U1,5*%
%TO.N,GND*%
X122825000Y-100520000D03*
D15*
%TO.P,U1,3*%
X113675000Y-103920000D03*
%TD*%
D16*
%TO.P,U2,1*%
%TO.N,Net-(C6-Pad1)*%
X113125000Y-117625000D03*
%TO.P,U2,2*%
%TO.N,Net-(C8-Pad2)*%
X113775000Y-117625000D03*
%TO.P,U2,3*%
%TO.N,Net-(C6-Pad2)*%
X114425000Y-117625000D03*
%TO.P,U2,4*%
%TO.N,Net-(C7-Pad1)*%
X115075000Y-117625000D03*
%TO.P,U2,5*%
%TO.N,Net-(C7-Pad2)*%
X115725000Y-117625000D03*
%TO.P,U2,6*%
%TO.N,Net-(C9-Pad2)*%
X116375000Y-117625000D03*
%TO.P,U2,7*%
%TO.N,/SERIAL_OUT_RS232*%
X117025000Y-117625000D03*
%TO.P,U2,8*%
%TO.N,/SERIAL_IN_RS232*%
X117675000Y-117625000D03*
%TO.P,U2,9*%
%TO.N,/SERIAL_IN_TTL*%
X117675000Y-112075000D03*
%TO.P,U2,10*%
%TO.N,/SERIAL_OUT_TTL*%
X117025000Y-112075000D03*
%TO.P,U2,11*%
%TO.N,N/C*%
X116375000Y-112075000D03*
%TO.P,U2,12*%
%TO.N,/CD_IN_TTL*%
X115725000Y-112075000D03*
%TO.P,U2,13*%
%TO.N,/CD_IN_RS232*%
X115075000Y-112075000D03*
%TO.P,U2,14*%
%TO.N,N/C*%
X114425000Y-112075000D03*
%TO.P,U2,15*%
%TO.N,GND*%
X113775000Y-112075000D03*
%TO.P,U2,16*%
%TO.N,+5V*%
X113125000Y-112075000D03*
D17*
%TO.P,U2,17*%
%TO.N,N/C*%
X116742500Y-114115000D03*
X115847500Y-114115000D03*
X114952500Y-114115000D03*
X114057500Y-114115000D03*
X116742500Y-115585000D03*
X115847500Y-115585000D03*
X114952500Y-115585000D03*
X114057500Y-115585000D03*
%TD*%
%TA.AperFunction,SMDPad,CuDef*%
D18*
%TO.P,C6,1*%
%TO.N,Net-(C6-Pad1)*%
G36*
X113543722Y-119390674D02*
G01*
X113557313Y-119392690D01*
X113570640Y-119396028D01*
X113583576Y-119400657D01*
X113595996Y-119406531D01*
X113607780Y-119413594D01*
X113618815Y-119421779D01*
X113628995Y-119431005D01*
X113638221Y-119441185D01*
X113646406Y-119452220D01*
X113653469Y-119464004D01*
X113659343Y-119476424D01*
X113663972Y-119489360D01*
X113667310Y-119502687D01*
X113669326Y-119516278D01*
X113670000Y-119530000D01*
X113670000Y-119870000D01*
X113669326Y-119883722D01*
X113667310Y-119897313D01*
X113663972Y-119910640D01*
X113659343Y-119923576D01*
X113653469Y-119935996D01*
X113646406Y-119947780D01*
X113638221Y-119958815D01*
X113628995Y-119968995D01*
X113618815Y-119978221D01*
X113607780Y-119986406D01*
X113595996Y-119993469D01*
X113583576Y-119999343D01*
X113570640Y-120003972D01*
X113557313Y-120007310D01*
X113543722Y-120009326D01*
X113530000Y-120010000D01*
X113250000Y-120010000D01*
X113236278Y-120009326D01*
X113222687Y-120007310D01*
X113209360Y-120003972D01*
X113196424Y-119999343D01*
X113184004Y-119993469D01*
X113172220Y-119986406D01*
X113161185Y-119978221D01*
X113151005Y-119968995D01*
X113141779Y-119958815D01*
X113133594Y-119947780D01*
X113126531Y-119935996D01*
X113120657Y-119923576D01*
X113116028Y-119910640D01*
X113112690Y-119897313D01*
X113110674Y-119883722D01*
X113110000Y-119870000D01*
X113110000Y-119530000D01*
X113110674Y-119516278D01*
X113112690Y-119502687D01*
X113116028Y-119489360D01*
X113120657Y-119476424D01*
X113126531Y-119464004D01*
X113133594Y-119452220D01*
X113141779Y-119441185D01*
X113151005Y-119431005D01*
X113161185Y-119421779D01*
X113172220Y-119413594D01*
X113184004Y-119406531D01*
X113196424Y-119400657D01*
X113209360Y-119396028D01*
X113222687Y-119392690D01*
X113236278Y-119390674D01*
X113250000Y-119390000D01*
X113530000Y-119390000D01*
X113543722Y-119390674D01*
G37*
%TD.AperFunction*%
%TA.AperFunction,SMDPad,CuDef*%
%TO.P,C6,2*%
%TO.N,Net-(C6-Pad2)*%
G36*
X114503722Y-119390674D02*
G01*
X114517313Y-119392690D01*
X114530640Y-119396028D01*
X114543576Y-119400657D01*
X114555996Y-119406531D01*
X114567780Y-119413594D01*
X114578815Y-119421779D01*
X114588995Y-119431005D01*
X114598221Y-119441185D01*
X114606406Y-119452220D01*
X114613469Y-119464004D01*
X114619343Y-119476424D01*
X114623972Y-119489360D01*
X114627310Y-119502687D01*
X114629326Y-119516278D01*
X114630000Y-119530000D01*
X114630000Y-119870000D01*
X114629326Y-119883722D01*
X114627310Y-119897313D01*
X114623972Y-119910640D01*
X114619343Y-119923576D01*
X114613469Y-119935996D01*
X114606406Y-119947780D01*
X114598221Y-119958815D01*
X114588995Y-119968995D01*
X114578815Y-119978221D01*
X114567780Y-119986406D01*
X114555996Y-119993469D01*
X114543576Y-119999343D01*
X114530640Y-120003972D01*
X114517313Y-120007310D01*
X114503722Y-120009326D01*
X114490000Y-120010000D01*
X114210000Y-120010000D01*
X114196278Y-120009326D01*
X114182687Y-120007310D01*
X114169360Y-120003972D01*
X114156424Y-119999343D01*
X114144004Y-119993469D01*
X114132220Y-119986406D01*
X114121185Y-119978221D01*
X114111005Y-119968995D01*
X114101779Y-119958815D01*
X114093594Y-119947780D01*
X114086531Y-119935996D01*
X114080657Y-119923576D01*
X114076028Y-119910640D01*
X114072690Y-119897313D01*
X114070674Y-119883722D01*
X114070000Y-119870000D01*
X114070000Y-119530000D01*
X114070674Y-119516278D01*
X114072690Y-119502687D01*
X114076028Y-119489360D01*
X114080657Y-119476424D01*
X114086531Y-119464004D01*
X114093594Y-119452220D01*
X114101779Y-119441185D01*
X114111005Y-119431005D01*
X114121185Y-119421779D01*
X114132220Y-119413594D01*
X114144004Y-119406531D01*
X114156424Y-119400657D01*
X114169360Y-119396028D01*
X114182687Y-119392690D01*
X114196278Y-119390674D01*
X114210000Y-119390000D01*
X114490000Y-119390000D01*
X114503722Y-119390674D01*
G37*
%TD.AperFunction*%
%TD*%
%TA.AperFunction,SMDPad,CuDef*%
%TO.P,C7,2*%
%TO.N,Net-(C7-Pad2)*%
G36*
X117472054Y-119676083D02*
G01*
X117493895Y-119679323D01*
X117515314Y-119684688D01*
X117536104Y-119692127D01*
X117556064Y-119701568D01*
X117575003Y-119712919D01*
X117592738Y-119726073D01*
X117609099Y-119740901D01*
X117623927Y-119757262D01*
X117637081Y-119774997D01*
X117648432Y-119793936D01*
X117657873Y-119813896D01*
X117665312Y-119834686D01*
X117670677Y-119856105D01*
X117673917Y-119877946D01*
X117675000Y-119900000D01*
X117675000Y-120400000D01*
X117673917Y-120422054D01*
X117670677Y-120443895D01*
X117665312Y-120465314D01*
X117657873Y-120486104D01*
X117648432Y-120506064D01*
X117637081Y-120525003D01*
X117623927Y-120542738D01*
X117609099Y-120559099D01*
X117592738Y-120573927D01*
X117575003Y-120587081D01*
X117556064Y-120598432D01*
X117536104Y-120607873D01*
X117515314Y-120615312D01*
X117493895Y-120620677D01*
X117472054Y-120623917D01*
X117450000Y-120625000D01*
X117000000Y-120625000D01*
X116977946Y-120623917D01*
X116956105Y-120620677D01*
X116934686Y-120615312D01*
X116913896Y-120607873D01*
X116893936Y-120598432D01*
X116874997Y-120587081D01*
X116857262Y-120573927D01*
X116840901Y-120559099D01*
X116826073Y-120542738D01*
X116812919Y-120525003D01*
X116801568Y-120506064D01*
X116792127Y-120486104D01*
X116784688Y-120465314D01*
X116779323Y-120443895D01*
X116776083Y-120422054D01*
X116775000Y-120400000D01*
X116775000Y-119900000D01*
X116776083Y-119877946D01*
X116779323Y-119856105D01*
X116784688Y-119834686D01*
X116792127Y-119813896D01*
X116801568Y-119793936D01*
X116812919Y-119774997D01*
X116826073Y-119757262D01*
X116840901Y-119740901D01*
X116857262Y-119726073D01*
X116874997Y-119712919D01*
X116893936Y-119701568D01*
X116913896Y-119692127D01*
X116934686Y-119684688D01*
X116956105Y-119679323D01*
X116977946Y-119676083D01*
X117000000Y-119675000D01*
X117450000Y-119675000D01*
X117472054Y-119676083D01*
G37*
%TD.AperFunction*%
%TA.AperFunction,SMDPad,CuDef*%
%TO.P,C7,1*%
%TO.N,Net-(C7-Pad1)*%
G36*
X115922054Y-119676083D02*
G01*
X115943895Y-119679323D01*
X115965314Y-119684688D01*
X115986104Y-119692127D01*
X116006064Y-119701568D01*
X116025003Y-119712919D01*
X116042738Y-119726073D01*
X116059099Y-119740901D01*
X116073927Y-119757262D01*
X116087081Y-119774997D01*
X116098432Y-119793936D01*
X116107873Y-119813896D01*
X116115312Y-119834686D01*
X116120677Y-119856105D01*
X116123917Y-119877946D01*
X116125000Y-119900000D01*
X116125000Y-120400000D01*
X116123917Y-120422054D01*
X116120677Y-120443895D01*
X116115312Y-120465314D01*
X116107873Y-120486104D01*
X116098432Y-120506064D01*
X116087081Y-120525003D01*
X116073927Y-120542738D01*
X116059099Y-120559099D01*
X116042738Y-120573927D01*
X116025003Y-120587081D01*
X116006064Y-120598432D01*
X115986104Y-120607873D01*
X115965314Y-120615312D01*
X115943895Y-120620677D01*
X115922054Y-120623917D01*
X115900000Y-120625000D01*
X115450000Y-120625000D01*
X115427946Y-120623917D01*
X115406105Y-120620677D01*
X115384686Y-120615312D01*
X115363896Y-120607873D01*
X115343936Y-120598432D01*
X115324997Y-120587081D01*
X115307262Y-120573927D01*
X115290901Y-120559099D01*
X115276073Y-120542738D01*
X115262919Y-120525003D01*
X115251568Y-120506064D01*
X115242127Y-120486104D01*
X115234688Y-120465314D01*
X115229323Y-120443895D01*
X115226083Y-120422054D01*
X115225000Y-120400000D01*
X115225000Y-119900000D01*
X115226083Y-119877946D01*
X115229323Y-119856105D01*
X115234688Y-119834686D01*
X115242127Y-119813896D01*
X115251568Y-119793936D01*
X115262919Y-119774997D01*
X115276073Y-119757262D01*
X115290901Y-119740901D01*
X115307262Y-119726073D01*
X115324997Y-119712919D01*
X115343936Y-119701568D01*
X115363896Y-119692127D01*
X115384686Y-119684688D01*
X115406105Y-119679323D01*
X115427946Y-119676083D01*
X115450000Y-119675000D01*
X115900000Y-119675000D01*
X115922054Y-119676083D01*
G37*
%TD.AperFunction*%
%TD*%
%TA.AperFunction,SMDPad,CuDef*%
%TO.P,C8,1*%
%TO.N,+5V*%
G36*
X114872054Y-123201083D02*
G01*
X114893895Y-123204323D01*
X114915314Y-123209688D01*
X114936104Y-123217127D01*
X114956064Y-123226568D01*
X114975003Y-123237919D01*
X114992738Y-123251073D01*
X115009099Y-123265901D01*
X115023927Y-123282262D01*
X115037081Y-123299997D01*
X115048432Y-123318936D01*
X115057873Y-123338896D01*
X115065312Y-123359686D01*
X115070677Y-123381105D01*
X115073917Y-123402946D01*
X115075000Y-123425000D01*
X115075000Y-123875000D01*
X115073917Y-123897054D01*
X115070677Y-123918895D01*
X115065312Y-123940314D01*
X115057873Y-123961104D01*
X115048432Y-123981064D01*
X115037081Y-124000003D01*
X115023927Y-124017738D01*
X115009099Y-124034099D01*
X114992738Y-124048927D01*
X114975003Y-124062081D01*
X114956064Y-124073432D01*
X114936104Y-124082873D01*
X114915314Y-124090312D01*
X114893895Y-124095677D01*
X114872054Y-124098917D01*
X114850000Y-124100000D01*
X114350000Y-124100000D01*
X114327946Y-124098917D01*
X114306105Y-124095677D01*
X114284686Y-124090312D01*
X114263896Y-124082873D01*
X114243936Y-124073432D01*
X114224997Y-124062081D01*
X114207262Y-124048927D01*
X114190901Y-124034099D01*
X114176073Y-124017738D01*
X114162919Y-124000003D01*
X114151568Y-123981064D01*
X114142127Y-123961104D01*
X114134688Y-123940314D01*
X114129323Y-123918895D01*
X114126083Y-123897054D01*
X114125000Y-123875000D01*
X114125000Y-123425000D01*
X114126083Y-123402946D01*
X114129323Y-123381105D01*
X114134688Y-123359686D01*
X114142127Y-123338896D01*
X114151568Y-123318936D01*
X114162919Y-123299997D01*
X114176073Y-123282262D01*
X114190901Y-123265901D01*
X114207262Y-123251073D01*
X114224997Y-123237919D01*
X114243936Y-123226568D01*
X114263896Y-123217127D01*
X114284686Y-123209688D01*
X114306105Y-123204323D01*
X114327946Y-123201083D01*
X114350000Y-123200000D01*
X114850000Y-123200000D01*
X114872054Y-123201083D01*
G37*
%TD.AperFunction*%
%TA.AperFunction,SMDPad,CuDef*%
%TO.P,C8,2*%
%TO.N,Net-(C8-Pad2)*%
G36*
X114872054Y-121651083D02*
G01*
X114893895Y-121654323D01*
X114915314Y-121659688D01*
X114936104Y-121667127D01*
X114956064Y-121676568D01*
X114975003Y-121687919D01*
X114992738Y-121701073D01*
X115009099Y-121715901D01*
X115023927Y-121732262D01*
X115037081Y-121749997D01*
X115048432Y-121768936D01*
X115057873Y-121788896D01*
X115065312Y-121809686D01*
X115070677Y-121831105D01*
X115073917Y-121852946D01*
X115075000Y-121875000D01*
X115075000Y-122325000D01*
X115073917Y-122347054D01*
X115070677Y-122368895D01*
X115065312Y-122390314D01*
X115057873Y-122411104D01*
X115048432Y-122431064D01*
X115037081Y-122450003D01*
X115023927Y-122467738D01*
X115009099Y-122484099D01*
X114992738Y-122498927D01*
X114975003Y-122512081D01*
X114956064Y-122523432D01*
X114936104Y-122532873D01*
X114915314Y-122540312D01*
X114893895Y-122545677D01*
X114872054Y-122548917D01*
X114850000Y-122550000D01*
X114350000Y-122550000D01*
X114327946Y-122548917D01*
X114306105Y-122545677D01*
X114284686Y-122540312D01*
X114263896Y-122532873D01*
X114243936Y-122523432D01*
X114224997Y-122512081D01*
X114207262Y-122498927D01*
X114190901Y-122484099D01*
X114176073Y-122467738D01*
X114162919Y-122450003D01*
X114151568Y-122431064D01*
X114142127Y-122411104D01*
X114134688Y-122390314D01*
X114129323Y-122368895D01*
X114126083Y-122347054D01*
X114125000Y-122325000D01*
X114125000Y-121875000D01*
X114126083Y-121852946D01*
X114129323Y-121831105D01*
X114134688Y-121809686D01*
X114142127Y-121788896D01*
X114151568Y-121768936D01*
X114162919Y-121749997D01*
X114176073Y-121732262D01*
X114190901Y-121715901D01*
X114207262Y-121701073D01*
X114224997Y-121687919D01*
X114243936Y-121676568D01*
X114263896Y-121667127D01*
X114284686Y-121659688D01*
X114306105Y-121654323D01*
X114327946Y-121651083D01*
X114350000Y-121650000D01*
X114850000Y-121650000D01*
X114872054Y-121651083D01*
G37*
%TD.AperFunction*%
%TD*%
%TA.AperFunction,SMDPad,CuDef*%
%TO.P,C9,1*%
%TO.N,GND*%
G36*
X117472054Y-123276083D02*
G01*
X117493895Y-123279323D01*
X117515314Y-123284688D01*
X117536104Y-123292127D01*
X117556064Y-123301568D01*
X117575003Y-123312919D01*
X117592738Y-123326073D01*
X117609099Y-123340901D01*
X117623927Y-123357262D01*
X117637081Y-123374997D01*
X117648432Y-123393936D01*
X117657873Y-123413896D01*
X117665312Y-123434686D01*
X117670677Y-123456105D01*
X117673917Y-123477946D01*
X117675000Y-123500000D01*
X117675000Y-123950000D01*
X117673917Y-123972054D01*
X117670677Y-123993895D01*
X117665312Y-124015314D01*
X117657873Y-124036104D01*
X117648432Y-124056064D01*
X117637081Y-124075003D01*
X117623927Y-124092738D01*
X117609099Y-124109099D01*
X117592738Y-124123927D01*
X117575003Y-124137081D01*
X117556064Y-124148432D01*
X117536104Y-124157873D01*
X117515314Y-124165312D01*
X117493895Y-124170677D01*
X117472054Y-124173917D01*
X117450000Y-124175000D01*
X116950000Y-124175000D01*
X116927946Y-124173917D01*
X116906105Y-124170677D01*
X116884686Y-124165312D01*
X116863896Y-124157873D01*
X116843936Y-124148432D01*
X116824997Y-124137081D01*
X116807262Y-124123927D01*
X116790901Y-124109099D01*
X116776073Y-124092738D01*
X116762919Y-124075003D01*
X116751568Y-124056064D01*
X116742127Y-124036104D01*
X116734688Y-124015314D01*
X116729323Y-123993895D01*
X116726083Y-123972054D01*
X116725000Y-123950000D01*
X116725000Y-123500000D01*
X116726083Y-123477946D01*
X116729323Y-123456105D01*
X116734688Y-123434686D01*
X116742127Y-123413896D01*
X116751568Y-123393936D01*
X116762919Y-123374997D01*
X116776073Y-123357262D01*
X116790901Y-123340901D01*
X116807262Y-123326073D01*
X116824997Y-123312919D01*
X116843936Y-123301568D01*
X116863896Y-123292127D01*
X116884686Y-123284688D01*
X116906105Y-123279323D01*
X116927946Y-123276083D01*
X116950000Y-123275000D01*
X117450000Y-123275000D01*
X117472054Y-123276083D01*
G37*
%TD.AperFunction*%
%TA.AperFunction,SMDPad,CuDef*%
%TO.P,C9,2*%
%TO.N,Net-(C9-Pad2)*%
G36*
X117472054Y-121726083D02*
G01*
X117493895Y-121729323D01*
X117515314Y-121734688D01*
X117536104Y-121742127D01*
X117556064Y-121751568D01*
X117575003Y-121762919D01*
X117592738Y-121776073D01*
X117609099Y-121790901D01*
X117623927Y-121807262D01*
X117637081Y-121824997D01*
X117648432Y-121843936D01*
X117657873Y-121863896D01*
X117665312Y-121884686D01*
X117670677Y-121906105D01*
X117673917Y-121927946D01*
X117675000Y-121950000D01*
X117675000Y-122400000D01*
X117673917Y-122422054D01*
X117670677Y-122443895D01*
X117665312Y-122465314D01*
X117657873Y-122486104D01*
X117648432Y-122506064D01*
X117637081Y-122525003D01*
X117623927Y-122542738D01*
X117609099Y-122559099D01*
X117592738Y-122573927D01*
X117575003Y-122587081D01*
X117556064Y-122598432D01*
X117536104Y-122607873D01*
X117515314Y-122615312D01*
X117493895Y-122620677D01*
X117472054Y-122623917D01*
X117450000Y-122625000D01*
X116950000Y-122625000D01*
X116927946Y-122623917D01*
X116906105Y-122620677D01*
X116884686Y-122615312D01*
X116863896Y-122607873D01*
X116843936Y-122598432D01*
X116824997Y-122587081D01*
X116807262Y-122573927D01*
X116790901Y-122559099D01*
X116776073Y-122542738D01*
X116762919Y-122525003D01*
X116751568Y-122506064D01*
X116742127Y-122486104D01*
X116734688Y-122465314D01*
X116729323Y-122443895D01*
X116726083Y-122422054D01*
X116725000Y-122400000D01*
X116725000Y-121950000D01*
X116726083Y-121927946D01*
X116729323Y-121906105D01*
X116734688Y-121884686D01*
X116742127Y-121863896D01*
X116751568Y-121843936D01*
X116762919Y-121824997D01*
X116776073Y-121807262D01*
X116790901Y-121790901D01*
X116807262Y-121776073D01*
X116824997Y-121762919D01*
X116843936Y-121751568D01*
X116863896Y-121742127D01*
X116884686Y-121734688D01*
X116906105Y-121729323D01*
X116927946Y-121726083D01*
X116950000Y-121725000D01*
X117450000Y-121725000D01*
X117472054Y-121726083D01*
G37*
%TD.AperFunction*%
%TD*%
%TA.AperFunction,SMDPad,CuDef*%
%TO.P,R2,1*%
%TO.N,Net-(J1-Pad10)*%
G36*
X116268232Y-125630650D02*
G01*
X116281337Y-125632594D01*
X116294188Y-125635813D01*
X116306662Y-125640276D01*
X116318639Y-125645941D01*
X116330002Y-125652752D01*
X116340643Y-125660644D01*
X116350459Y-125669541D01*
X116359356Y-125679357D01*
X116367248Y-125689998D01*
X116374059Y-125701361D01*
X116379724Y-125713338D01*
X116384187Y-125725812D01*
X116387406Y-125738663D01*
X116389350Y-125751768D01*
X116390000Y-125765000D01*
X116390000Y-126135000D01*
X116389350Y-126148232D01*
X116387406Y-126161337D01*
X116384187Y-126174188D01*
X116379724Y-126186662D01*
X116374059Y-126198639D01*
X116367248Y-126210002D01*
X116359356Y-126220643D01*
X116350459Y-126230459D01*
X116340643Y-126239356D01*
X116330002Y-126247248D01*
X116318639Y-126254059D01*
X116306662Y-126259724D01*
X116294188Y-126264187D01*
X116281337Y-126267406D01*
X116268232Y-126269350D01*
X116255000Y-126270000D01*
X115985000Y-126270000D01*
X115971768Y-126269350D01*
X115958663Y-126267406D01*
X115945812Y-126264187D01*
X115933338Y-126259724D01*
X115921361Y-126254059D01*
X115909998Y-126247248D01*
X115899357Y-126239356D01*
X115889541Y-126230459D01*
X115880644Y-126220643D01*
X115872752Y-126210002D01*
X115865941Y-126198639D01*
X115860276Y-126186662D01*
X115855813Y-126174188D01*
X115852594Y-126161337D01*
X115850650Y-126148232D01*
X115850000Y-126135000D01*
X115850000Y-125765000D01*
X115850650Y-125751768D01*
X115852594Y-125738663D01*
X115855813Y-125725812D01*
X115860276Y-125713338D01*
X115865941Y-125701361D01*
X115872752Y-125689998D01*
X115880644Y-125679357D01*
X115889541Y-125669541D01*
X115899357Y-125660644D01*
X115909998Y-125652752D01*
X115921361Y-125645941D01*
X115933338Y-125640276D01*
X115945812Y-125635813D01*
X115958663Y-125632594D01*
X115971768Y-125630650D01*
X115985000Y-125630000D01*
X116255000Y-125630000D01*
X116268232Y-125630650D01*
G37*
%TD.AperFunction*%
%TA.AperFunction,SMDPad,CuDef*%
%TO.P,R2,2*%
%TO.N,GND*%
G36*
X115248232Y-125630650D02*
G01*
X115261337Y-125632594D01*
X115274188Y-125635813D01*
X115286662Y-125640276D01*
X115298639Y-125645941D01*
X115310002Y-125652752D01*
X115320643Y-125660644D01*
X115330459Y-125669541D01*
X115339356Y-125679357D01*
X115347248Y-125689998D01*
X115354059Y-125701361D01*
X115359724Y-125713338D01*
X115364187Y-125725812D01*
X115367406Y-125738663D01*
X115369350Y-125751768D01*
X115370000Y-125765000D01*
X115370000Y-126135000D01*
X115369350Y-126148232D01*
X115367406Y-126161337D01*
X115364187Y-126174188D01*
X115359724Y-126186662D01*
X115354059Y-126198639D01*
X115347248Y-126210002D01*
X115339356Y-126220643D01*
X115330459Y-126230459D01*
X115320643Y-126239356D01*
X115310002Y-126247248D01*
X115298639Y-126254059D01*
X115286662Y-126259724D01*
X115274188Y-126264187D01*
X115261337Y-126267406D01*
X115248232Y-126269350D01*
X115235000Y-126270000D01*
X114965000Y-126270000D01*
X114951768Y-126269350D01*
X114938663Y-126267406D01*
X114925812Y-126264187D01*
X114913338Y-126259724D01*
X114901361Y-126254059D01*
X114889998Y-126247248D01*
X114879357Y-126239356D01*
X114869541Y-126230459D01*
X114860644Y-126220643D01*
X114852752Y-126210002D01*
X114845941Y-126198639D01*
X114840276Y-126186662D01*
X114835813Y-126174188D01*
X114832594Y-126161337D01*
X114830650Y-126148232D01*
X114830000Y-126135000D01*
X114830000Y-125765000D01*
X114830650Y-125751768D01*
X114832594Y-125738663D01*
X114835813Y-125725812D01*
X114840276Y-125713338D01*
X114845941Y-125701361D01*
X114852752Y-125689998D01*
X114860644Y-125679357D01*
X114869541Y-125669541D01*
X114879357Y-125660644D01*
X114889998Y-125652752D01*
X114901361Y-125645941D01*
X114913338Y-125640276D01*
X114925812Y-125635813D01*
X114938663Y-125632594D01*
X114951768Y-125630650D01*
X114965000Y-125630000D01*
X115235000Y-125630000D01*
X115248232Y-125630650D01*
G37*
%TD.AperFunction*%
%TD*%
%TA.AperFunction,SMDPad,CuDef*%
%TO.P,R1,2*%
%TO.N,Net-(R1-Pad2)*%
G36*
X124388232Y-117030650D02*
G01*
X124401337Y-117032594D01*
X124414188Y-117035813D01*
X124426662Y-117040276D01*
X124438639Y-117045941D01*
X124450002Y-117052752D01*
X124460643Y-117060644D01*
X124470459Y-117069541D01*
X124479356Y-117079357D01*
X124487248Y-117089998D01*
X124494059Y-117101361D01*
X124499724Y-117113338D01*
X124504187Y-117125812D01*
X124507406Y-117138663D01*
X124509350Y-117151768D01*
X124510000Y-117165000D01*
X124510000Y-117535000D01*
X124509350Y-117548232D01*
X124507406Y-117561337D01*
X124504187Y-117574188D01*
X124499724Y-117586662D01*
X124494059Y-117598639D01*
X124487248Y-117610002D01*
X124479356Y-117620643D01*
X124470459Y-117630459D01*
X124460643Y-117639356D01*
X124450002Y-117647248D01*
X124438639Y-117654059D01*
X124426662Y-117659724D01*
X124414188Y-117664187D01*
X124401337Y-117667406D01*
X124388232Y-117669350D01*
X124375000Y-117670000D01*
X124105000Y-117670000D01*
X124091768Y-117669350D01*
X124078663Y-117667406D01*
X124065812Y-117664187D01*
X124053338Y-117659724D01*
X124041361Y-117654059D01*
X124029998Y-117647248D01*
X124019357Y-117639356D01*
X124009541Y-117630459D01*
X124000644Y-117620643D01*
X123992752Y-117610002D01*
X123985941Y-117598639D01*
X123980276Y-117586662D01*
X123975813Y-117574188D01*
X123972594Y-117561337D01*
X123970650Y-117548232D01*
X123970000Y-117535000D01*
X123970000Y-117165000D01*
X123970650Y-117151768D01*
X123972594Y-117138663D01*
X123975813Y-117125812D01*
X123980276Y-117113338D01*
X123985941Y-117101361D01*
X123992752Y-117089998D01*
X124000644Y-117079357D01*
X124009541Y-117069541D01*
X124019357Y-117060644D01*
X124029998Y-117052752D01*
X124041361Y-117045941D01*
X124053338Y-117040276D01*
X124065812Y-117035813D01*
X124078663Y-117032594D01*
X124091768Y-117030650D01*
X124105000Y-117030000D01*
X124375000Y-117030000D01*
X124388232Y-117030650D01*
G37*
%TD.AperFunction*%
%TA.AperFunction,SMDPad,CuDef*%
%TO.P,R1,1*%
%TO.N,+5V*%
G36*
X125408232Y-117030650D02*
G01*
X125421337Y-117032594D01*
X125434188Y-117035813D01*
X125446662Y-117040276D01*
X125458639Y-117045941D01*
X125470002Y-117052752D01*
X125480643Y-117060644D01*
X125490459Y-117069541D01*
X125499356Y-117079357D01*
X125507248Y-117089998D01*
X125514059Y-117101361D01*
X125519724Y-117113338D01*
X125524187Y-117125812D01*
X125527406Y-117138663D01*
X125529350Y-117151768D01*
X125530000Y-117165000D01*
X125530000Y-117535000D01*
X125529350Y-117548232D01*
X125527406Y-117561337D01*
X125524187Y-117574188D01*
X125519724Y-117586662D01*
X125514059Y-117598639D01*
X125507248Y-117610002D01*
X125499356Y-117620643D01*
X125490459Y-117630459D01*
X125480643Y-117639356D01*
X125470002Y-117647248D01*
X125458639Y-117654059D01*
X125446662Y-117659724D01*
X125434188Y-117664187D01*
X125421337Y-117667406D01*
X125408232Y-117669350D01*
X125395000Y-117670000D01*
X125125000Y-117670000D01*
X125111768Y-117669350D01*
X125098663Y-117667406D01*
X125085812Y-117664187D01*
X125073338Y-117659724D01*
X125061361Y-117654059D01*
X125049998Y-117647248D01*
X125039357Y-117639356D01*
X125029541Y-117630459D01*
X125020644Y-117620643D01*
X125012752Y-117610002D01*
X125005941Y-117598639D01*
X125000276Y-117586662D01*
X124995813Y-117574188D01*
X124992594Y-117561337D01*
X124990650Y-117548232D01*
X124990000Y-117535000D01*
X124990000Y-117165000D01*
X124990650Y-117151768D01*
X124992594Y-117138663D01*
X124995813Y-117125812D01*
X125000276Y-117113338D01*
X125005941Y-117101361D01*
X125012752Y-117089998D01*
X125020644Y-117079357D01*
X125029541Y-117069541D01*
X125039357Y-117060644D01*
X125049998Y-117052752D01*
X125061361Y-117045941D01*
X125073338Y-117040276D01*
X125085812Y-117035813D01*
X125098663Y-117032594D01*
X125111768Y-117030650D01*
X125125000Y-117030000D01*
X125395000Y-117030000D01*
X125408232Y-117030650D01*
G37*
%TD.AperFunction*%
%TD*%
%TA.AperFunction,SMDPad,CuDef*%
%TO.P,R3,1*%
%TO.N,+5V*%
G36*
X124498232Y-128840650D02*
G01*
X124511337Y-128842594D01*
X124524188Y-128845813D01*
X124536662Y-128850276D01*
X124548639Y-128855941D01*
X124560002Y-128862752D01*
X124570643Y-128870644D01*
X124580459Y-128879541D01*
X124589356Y-128889357D01*
X124597248Y-128899998D01*
X124604059Y-128911361D01*
X124609724Y-128923338D01*
X124614187Y-128935812D01*
X124617406Y-128948663D01*
X124619350Y-128961768D01*
X124620000Y-128975000D01*
X124620000Y-129245000D01*
X124619350Y-129258232D01*
X124617406Y-129271337D01*
X124614187Y-129284188D01*
X124609724Y-129296662D01*
X124604059Y-129308639D01*
X124597248Y-129320002D01*
X124589356Y-129330643D01*
X124580459Y-129340459D01*
X124570643Y-129349356D01*
X124560002Y-129357248D01*
X124548639Y-129364059D01*
X124536662Y-129369724D01*
X124524188Y-129374187D01*
X124511337Y-129377406D01*
X124498232Y-129379350D01*
X124485000Y-129380000D01*
X124115000Y-129380000D01*
X124101768Y-129379350D01*
X124088663Y-129377406D01*
X124075812Y-129374187D01*
X124063338Y-129369724D01*
X124051361Y-129364059D01*
X124039998Y-129357248D01*
X124029357Y-129349356D01*
X124019541Y-129340459D01*
X124010644Y-129330643D01*
X124002752Y-129320002D01*
X123995941Y-129308639D01*
X123990276Y-129296662D01*
X123985813Y-129284188D01*
X123982594Y-129271337D01*
X123980650Y-129258232D01*
X123980000Y-129245000D01*
X123980000Y-128975000D01*
X123980650Y-128961768D01*
X123982594Y-128948663D01*
X123985813Y-128935812D01*
X123990276Y-128923338D01*
X123995941Y-128911361D01*
X124002752Y-128899998D01*
X124010644Y-128889357D01*
X124019541Y-128879541D01*
X124029357Y-128870644D01*
X124039998Y-128862752D01*
X124051361Y-128855941D01*
X124063338Y-128850276D01*
X124075812Y-128845813D01*
X124088663Y-128842594D01*
X124101768Y-128840650D01*
X124115000Y-128840000D01*
X124485000Y-128840000D01*
X124498232Y-128840650D01*
G37*
%TD.AperFunction*%
%TA.AperFunction,SMDPad,CuDef*%
%TO.P,R3,2*%
%TO.N,Net-(R3-Pad2)*%
G36*
X124498232Y-129860650D02*
G01*
X124511337Y-129862594D01*
X124524188Y-129865813D01*
X124536662Y-129870276D01*
X124548639Y-129875941D01*
X124560002Y-129882752D01*
X124570643Y-129890644D01*
X124580459Y-129899541D01*
X124589356Y-129909357D01*
X124597248Y-129919998D01*
X124604059Y-129931361D01*
X124609724Y-129943338D01*
X124614187Y-129955812D01*
X124617406Y-129968663D01*
X124619350Y-129981768D01*
X124620000Y-129995000D01*
X124620000Y-130265000D01*
X124619350Y-130278232D01*
X124617406Y-130291337D01*
X124614187Y-130304188D01*
X124609724Y-130316662D01*
X124604059Y-130328639D01*
X124597248Y-130340002D01*
X124589356Y-130350643D01*
X124580459Y-130360459D01*
X124570643Y-130369356D01*
X124560002Y-130377248D01*
X124548639Y-130384059D01*
X124536662Y-130389724D01*
X124524188Y-130394187D01*
X124511337Y-130397406D01*
X124498232Y-130399350D01*
X124485000Y-130400000D01*
X124115000Y-130400000D01*
X124101768Y-130399350D01*
X124088663Y-130397406D01*
X124075812Y-130394187D01*
X124063338Y-130389724D01*
X124051361Y-130384059D01*
X124039998Y-130377248D01*
X124029357Y-130369356D01*
X124019541Y-130360459D01*
X124010644Y-130350643D01*
X124002752Y-130340002D01*
X123995941Y-130328639D01*
X123990276Y-130316662D01*
X123985813Y-130304188D01*
X123982594Y-130291337D01*
X123980650Y-130278232D01*
X123980000Y-130265000D01*
X123980000Y-129995000D01*
X123980650Y-129981768D01*
X123982594Y-129968663D01*
X123985813Y-129955812D01*
X123990276Y-129943338D01*
X123995941Y-129931361D01*
X124002752Y-129919998D01*
X124010644Y-129909357D01*
X124019541Y-129899541D01*
X124029357Y-129890644D01*
X124039998Y-129882752D01*
X124051361Y-129875941D01*
X124063338Y-129870276D01*
X124075812Y-129865813D01*
X124088663Y-129862594D01*
X124101768Y-129860650D01*
X124115000Y-129860000D01*
X124485000Y-129860000D01*
X124498232Y-129860650D01*
G37*
%TD.AperFunction*%
%TD*%
%TA.AperFunction,SMDPad,CuDef*%
%TO.P,R4,2*%
%TO.N,/CASSETTE_DATA_IN_TTL*%
G36*
X124948232Y-119790650D02*
G01*
X124961337Y-119792594D01*
X124974188Y-119795813D01*
X124986662Y-119800276D01*
X124998639Y-119805941D01*
X125010002Y-119812752D01*
X125020643Y-119820644D01*
X125030459Y-119829541D01*
X125039356Y-119839357D01*
X125047248Y-119849998D01*
X125054059Y-119861361D01*
X125059724Y-119873338D01*
X125064187Y-119885812D01*
X125067406Y-119898663D01*
X125069350Y-119911768D01*
X125070000Y-119925000D01*
X125070000Y-120195000D01*
X125069350Y-120208232D01*
X125067406Y-120221337D01*
X125064187Y-120234188D01*
X125059724Y-120246662D01*
X125054059Y-120258639D01*
X125047248Y-120270002D01*
X125039356Y-120280643D01*
X125030459Y-120290459D01*
X125020643Y-120299356D01*
X125010002Y-120307248D01*
X124998639Y-120314059D01*
X124986662Y-120319724D01*
X124974188Y-120324187D01*
X124961337Y-120327406D01*
X124948232Y-120329350D01*
X124935000Y-120330000D01*
X124565000Y-120330000D01*
X124551768Y-120329350D01*
X124538663Y-120327406D01*
X124525812Y-120324187D01*
X124513338Y-120319724D01*
X124501361Y-120314059D01*
X124489998Y-120307248D01*
X124479357Y-120299356D01*
X124469541Y-120290459D01*
X124460644Y-120280643D01*
X124452752Y-120270002D01*
X124445941Y-120258639D01*
X124440276Y-120246662D01*
X124435813Y-120234188D01*
X124432594Y-120221337D01*
X124430650Y-120208232D01*
X124430000Y-120195000D01*
X124430000Y-119925000D01*
X124430650Y-119911768D01*
X124432594Y-119898663D01*
X124435813Y-119885812D01*
X124440276Y-119873338D01*
X124445941Y-119861361D01*
X124452752Y-119849998D01*
X124460644Y-119839357D01*
X124469541Y-119829541D01*
X124479357Y-119820644D01*
X124489998Y-119812752D01*
X124501361Y-119805941D01*
X124513338Y-119800276D01*
X124525812Y-119795813D01*
X124538663Y-119792594D01*
X124551768Y-119790650D01*
X124565000Y-119790000D01*
X124935000Y-119790000D01*
X124948232Y-119790650D01*
G37*
%TD.AperFunction*%
%TA.AperFunction,SMDPad,CuDef*%
%TO.P,R4,1*%
%TO.N,+5V*%
G36*
X124948232Y-118770650D02*
G01*
X124961337Y-118772594D01*
X124974188Y-118775813D01*
X124986662Y-118780276D01*
X124998639Y-118785941D01*
X125010002Y-118792752D01*
X125020643Y-118800644D01*
X125030459Y-118809541D01*
X125039356Y-118819357D01*
X125047248Y-118829998D01*
X125054059Y-118841361D01*
X125059724Y-118853338D01*
X125064187Y-118865812D01*
X125067406Y-118878663D01*
X125069350Y-118891768D01*
X125070000Y-118905000D01*
X125070000Y-119175000D01*
X125069350Y-119188232D01*
X125067406Y-119201337D01*
X125064187Y-119214188D01*
X125059724Y-119226662D01*
X125054059Y-119238639D01*
X125047248Y-119250002D01*
X125039356Y-119260643D01*
X125030459Y-119270459D01*
X125020643Y-119279356D01*
X125010002Y-119287248D01*
X124998639Y-119294059D01*
X124986662Y-119299724D01*
X124974188Y-119304187D01*
X124961337Y-119307406D01*
X124948232Y-119309350D01*
X124935000Y-119310000D01*
X124565000Y-119310000D01*
X124551768Y-119309350D01*
X124538663Y-119307406D01*
X124525812Y-119304187D01*
X124513338Y-119299724D01*
X124501361Y-119294059D01*
X124489998Y-119287248D01*
X124479357Y-119279356D01*
X124469541Y-119270459D01*
X124460644Y-119260643D01*
X124452752Y-119250002D01*
X124445941Y-119238639D01*
X124440276Y-119226662D01*
X124435813Y-119214188D01*
X124432594Y-119201337D01*
X124430650Y-119188232D01*
X124430000Y-119175000D01*
X124430000Y-118905000D01*
X124430650Y-118891768D01*
X124432594Y-118878663D01*
X124435813Y-118865812D01*
X124440276Y-118853338D01*
X124445941Y-118841361D01*
X124452752Y-118829998D01*
X124460644Y-118819357D01*
X124469541Y-118809541D01*
X124479357Y-118800644D01*
X124489998Y-118792752D01*
X124501361Y-118785941D01*
X124513338Y-118780276D01*
X124525812Y-118775813D01*
X124538663Y-118772594D01*
X124551768Y-118770650D01*
X124565000Y-118770000D01*
X124935000Y-118770000D01*
X124948232Y-118770650D01*
G37*
%TD.AperFunction*%
%TD*%
%TA.AperFunction,SMDPad,CuDef*%
%TO.P,R5,1*%
%TO.N,Net-(D2-Pad1)*%
G36*
X121498232Y-118470650D02*
G01*
X121511337Y-118472594D01*
X121524188Y-118475813D01*
X121536662Y-118480276D01*
X121548639Y-118485941D01*
X121560002Y-118492752D01*
X121570643Y-118500644D01*
X121580459Y-118509541D01*
X121589356Y-118519357D01*
X121597248Y-118529998D01*
X121604059Y-118541361D01*
X121609724Y-118553338D01*
X121614187Y-118565812D01*
X121617406Y-118578663D01*
X121619350Y-118591768D01*
X121620000Y-118605000D01*
X121620000Y-118875000D01*
X121619350Y-118888232D01*
X121617406Y-118901337D01*
X121614187Y-118914188D01*
X121609724Y-118926662D01*
X121604059Y-118938639D01*
X121597248Y-118950002D01*
X121589356Y-118960643D01*
X121580459Y-118970459D01*
X121570643Y-118979356D01*
X121560002Y-118987248D01*
X121548639Y-118994059D01*
X121536662Y-118999724D01*
X121524188Y-119004187D01*
X121511337Y-119007406D01*
X121498232Y-119009350D01*
X121485000Y-119010000D01*
X121115000Y-119010000D01*
X121101768Y-119009350D01*
X121088663Y-119007406D01*
X121075812Y-119004187D01*
X121063338Y-118999724D01*
X121051361Y-118994059D01*
X121039998Y-118987248D01*
X121029357Y-118979356D01*
X121019541Y-118970459D01*
X121010644Y-118960643D01*
X121002752Y-118950002D01*
X120995941Y-118938639D01*
X120990276Y-118926662D01*
X120985813Y-118914188D01*
X120982594Y-118901337D01*
X120980650Y-118888232D01*
X120980000Y-118875000D01*
X120980000Y-118605000D01*
X120980650Y-118591768D01*
X120982594Y-118578663D01*
X120985813Y-118565812D01*
X120990276Y-118553338D01*
X120995941Y-118541361D01*
X121002752Y-118529998D01*
X121010644Y-118519357D01*
X121019541Y-118509541D01*
X121029357Y-118500644D01*
X121039998Y-118492752D01*
X121051361Y-118485941D01*
X121063338Y-118480276D01*
X121075812Y-118475813D01*
X121088663Y-118472594D01*
X121101768Y-118470650D01*
X121115000Y-118470000D01*
X121485000Y-118470000D01*
X121498232Y-118470650D01*
G37*
%TD.AperFunction*%
%TA.AperFunction,SMDPad,CuDef*%
%TO.P,R5,2*%
%TO.N,/CASSETTE_DATA_IN*%
G36*
X121498232Y-119490650D02*
G01*
X121511337Y-119492594D01*
X121524188Y-119495813D01*
X121536662Y-119500276D01*
X121548639Y-119505941D01*
X121560002Y-119512752D01*
X121570643Y-119520644D01*
X121580459Y-119529541D01*
X121589356Y-119539357D01*
X121597248Y-119549998D01*
X121604059Y-119561361D01*
X121609724Y-119573338D01*
X121614187Y-119585812D01*
X121617406Y-119598663D01*
X121619350Y-119611768D01*
X121620000Y-119625000D01*
X121620000Y-119895000D01*
X121619350Y-119908232D01*
X121617406Y-119921337D01*
X121614187Y-119934188D01*
X121609724Y-119946662D01*
X121604059Y-119958639D01*
X121597248Y-119970002D01*
X121589356Y-119980643D01*
X121580459Y-119990459D01*
X121570643Y-119999356D01*
X121560002Y-120007248D01*
X121548639Y-120014059D01*
X121536662Y-120019724D01*
X121524188Y-120024187D01*
X121511337Y-120027406D01*
X121498232Y-120029350D01*
X121485000Y-120030000D01*
X121115000Y-120030000D01*
X121101768Y-120029350D01*
X121088663Y-120027406D01*
X121075812Y-120024187D01*
X121063338Y-120019724D01*
X121051361Y-120014059D01*
X121039998Y-120007248D01*
X121029357Y-119999356D01*
X121019541Y-119990459D01*
X121010644Y-119980643D01*
X121002752Y-119970002D01*
X120995941Y-119958639D01*
X120990276Y-119946662D01*
X120985813Y-119934188D01*
X120982594Y-119921337D01*
X120980650Y-119908232D01*
X120980000Y-119895000D01*
X120980000Y-119625000D01*
X120980650Y-119611768D01*
X120982594Y-119598663D01*
X120985813Y-119585812D01*
X120990276Y-119573338D01*
X120995941Y-119561361D01*
X121002752Y-119549998D01*
X121010644Y-119539357D01*
X121019541Y-119529541D01*
X121029357Y-119520644D01*
X121039998Y-119512752D01*
X121051361Y-119505941D01*
X121063338Y-119500276D01*
X121075812Y-119495813D01*
X121088663Y-119492594D01*
X121101768Y-119490650D01*
X121115000Y-119490000D01*
X121485000Y-119490000D01*
X121498232Y-119490650D01*
G37*
%TD.AperFunction*%
%TD*%
%TA.AperFunction,SMDPad,CuDef*%
%TO.P,R6,1*%
%TO.N,Net-(R1-Pad2)*%
G36*
X123458232Y-119780650D02*
G01*
X123471337Y-119782594D01*
X123484188Y-119785813D01*
X123496662Y-119790276D01*
X123508639Y-119795941D01*
X123520002Y-119802752D01*
X123530643Y-119810644D01*
X123540459Y-119819541D01*
X123549356Y-119829357D01*
X123557248Y-119839998D01*
X123564059Y-119851361D01*
X123569724Y-119863338D01*
X123574187Y-119875812D01*
X123577406Y-119888663D01*
X123579350Y-119901768D01*
X123580000Y-119915000D01*
X123580000Y-120285000D01*
X123579350Y-120298232D01*
X123577406Y-120311337D01*
X123574187Y-120324188D01*
X123569724Y-120336662D01*
X123564059Y-120348639D01*
X123557248Y-120360002D01*
X123549356Y-120370643D01*
X123540459Y-120380459D01*
X123530643Y-120389356D01*
X123520002Y-120397248D01*
X123508639Y-120404059D01*
X123496662Y-120409724D01*
X123484188Y-120414187D01*
X123471337Y-120417406D01*
X123458232Y-120419350D01*
X123445000Y-120420000D01*
X123175000Y-120420000D01*
X123161768Y-120419350D01*
X123148663Y-120417406D01*
X123135812Y-120414187D01*
X123123338Y-120409724D01*
X123111361Y-120404059D01*
X123099998Y-120397248D01*
X123089357Y-120389356D01*
X123079541Y-120380459D01*
X123070644Y-120370643D01*
X123062752Y-120360002D01*
X123055941Y-120348639D01*
X123050276Y-120336662D01*
X123045813Y-120324188D01*
X123042594Y-120311337D01*
X123040650Y-120298232D01*
X123040000Y-120285000D01*
X123040000Y-119915000D01*
X123040650Y-119901768D01*
X123042594Y-119888663D01*
X123045813Y-119875812D01*
X123050276Y-119863338D01*
X123055941Y-119851361D01*
X123062752Y-119839998D01*
X123070644Y-119829357D01*
X123079541Y-119819541D01*
X123089357Y-119810644D01*
X123099998Y-119802752D01*
X123111361Y-119795941D01*
X123123338Y-119790276D01*
X123135812Y-119785813D01*
X123148663Y-119782594D01*
X123161768Y-119780650D01*
X123175000Y-119780000D01*
X123445000Y-119780000D01*
X123458232Y-119780650D01*
G37*
%TD.AperFunction*%
%TA.AperFunction,SMDPad,CuDef*%
%TO.P,R6,2*%
%TO.N,Net-(D2-Pad1)*%
G36*
X122438232Y-119780650D02*
G01*
X122451337Y-119782594D01*
X122464188Y-119785813D01*
X122476662Y-119790276D01*
X122488639Y-119795941D01*
X122500002Y-119802752D01*
X122510643Y-119810644D01*
X122520459Y-119819541D01*
X122529356Y-119829357D01*
X122537248Y-119839998D01*
X122544059Y-119851361D01*
X122549724Y-119863338D01*
X122554187Y-119875812D01*
X122557406Y-119888663D01*
X122559350Y-119901768D01*
X122560000Y-119915000D01*
X122560000Y-120285000D01*
X122559350Y-120298232D01*
X122557406Y-120311337D01*
X122554187Y-120324188D01*
X122549724Y-120336662D01*
X122544059Y-120348639D01*
X122537248Y-120360002D01*
X122529356Y-120370643D01*
X122520459Y-120380459D01*
X122510643Y-120389356D01*
X122500002Y-120397248D01*
X122488639Y-120404059D01*
X122476662Y-120409724D01*
X122464188Y-120414187D01*
X122451337Y-120417406D01*
X122438232Y-120419350D01*
X122425000Y-120420000D01*
X122155000Y-120420000D01*
X122141768Y-120419350D01*
X122128663Y-120417406D01*
X122115812Y-120414187D01*
X122103338Y-120409724D01*
X122091361Y-120404059D01*
X122079998Y-120397248D01*
X122069357Y-120389356D01*
X122059541Y-120380459D01*
X122050644Y-120370643D01*
X122042752Y-120360002D01*
X122035941Y-120348639D01*
X122030276Y-120336662D01*
X122025813Y-120324188D01*
X122022594Y-120311337D01*
X122020650Y-120298232D01*
X122020000Y-120285000D01*
X122020000Y-119915000D01*
X122020650Y-119901768D01*
X122022594Y-119888663D01*
X122025813Y-119875812D01*
X122030276Y-119863338D01*
X122035941Y-119851361D01*
X122042752Y-119839998D01*
X122050644Y-119829357D01*
X122059541Y-119819541D01*
X122069357Y-119810644D01*
X122079998Y-119802752D01*
X122091361Y-119795941D01*
X122103338Y-119790276D01*
X122115812Y-119785813D01*
X122128663Y-119782594D01*
X122141768Y-119780650D01*
X122155000Y-119780000D01*
X122425000Y-119780000D01*
X122438232Y-119780650D01*
G37*
%TD.AperFunction*%
%TD*%
%TA.AperFunction,SMDPad,CuDef*%
%TO.P,R7,2*%
%TO.N,Net-(R3-Pad2)*%
G36*
X121698232Y-129860650D02*
G01*
X121711337Y-129862594D01*
X121724188Y-129865813D01*
X121736662Y-129870276D01*
X121748639Y-129875941D01*
X121760002Y-129882752D01*
X121770643Y-129890644D01*
X121780459Y-129899541D01*
X121789356Y-129909357D01*
X121797248Y-129919998D01*
X121804059Y-129931361D01*
X121809724Y-129943338D01*
X121814187Y-129955812D01*
X121817406Y-129968663D01*
X121819350Y-129981768D01*
X121820000Y-129995000D01*
X121820000Y-130265000D01*
X121819350Y-130278232D01*
X121817406Y-130291337D01*
X121814187Y-130304188D01*
X121809724Y-130316662D01*
X121804059Y-130328639D01*
X121797248Y-130340002D01*
X121789356Y-130350643D01*
X121780459Y-130360459D01*
X121770643Y-130369356D01*
X121760002Y-130377248D01*
X121748639Y-130384059D01*
X121736662Y-130389724D01*
X121724188Y-130394187D01*
X121711337Y-130397406D01*
X121698232Y-130399350D01*
X121685000Y-130400000D01*
X121315000Y-130400000D01*
X121301768Y-130399350D01*
X121288663Y-130397406D01*
X121275812Y-130394187D01*
X121263338Y-130389724D01*
X121251361Y-130384059D01*
X121239998Y-130377248D01*
X121229357Y-130369356D01*
X121219541Y-130360459D01*
X121210644Y-130350643D01*
X121202752Y-130340002D01*
X121195941Y-130328639D01*
X121190276Y-130316662D01*
X121185813Y-130304188D01*
X121182594Y-130291337D01*
X121180650Y-130278232D01*
X121180000Y-130265000D01*
X121180000Y-129995000D01*
X121180650Y-129981768D01*
X121182594Y-129968663D01*
X121185813Y-129955812D01*
X121190276Y-129943338D01*
X121195941Y-129931361D01*
X121202752Y-129919998D01*
X121210644Y-129909357D01*
X121219541Y-129899541D01*
X121229357Y-129890644D01*
X121239998Y-129882752D01*
X121251361Y-129875941D01*
X121263338Y-129870276D01*
X121275812Y-129865813D01*
X121288663Y-129862594D01*
X121301768Y-129860650D01*
X121315000Y-129860000D01*
X121685000Y-129860000D01*
X121698232Y-129860650D01*
G37*
%TD.AperFunction*%
%TA.AperFunction,SMDPad,CuDef*%
%TO.P,R7,1*%
%TO.N,/CASSETTE_DATA_IN_TTL*%
G36*
X121698232Y-128840650D02*
G01*
X121711337Y-128842594D01*
X121724188Y-128845813D01*
X121736662Y-128850276D01*
X121748639Y-128855941D01*
X121760002Y-128862752D01*
X121770643Y-128870644D01*
X121780459Y-128879541D01*
X121789356Y-128889357D01*
X121797248Y-128899998D01*
X121804059Y-128911361D01*
X121809724Y-128923338D01*
X121814187Y-128935812D01*
X121817406Y-128948663D01*
X121819350Y-128961768D01*
X121820000Y-128975000D01*
X121820000Y-129245000D01*
X121819350Y-129258232D01*
X121817406Y-129271337D01*
X121814187Y-129284188D01*
X121809724Y-129296662D01*
X121804059Y-129308639D01*
X121797248Y-129320002D01*
X121789356Y-129330643D01*
X121780459Y-129340459D01*
X121770643Y-129349356D01*
X121760002Y-129357248D01*
X121748639Y-129364059D01*
X121736662Y-129369724D01*
X121724188Y-129374187D01*
X121711337Y-129377406D01*
X121698232Y-129379350D01*
X121685000Y-129380000D01*
X121315000Y-129380000D01*
X121301768Y-129379350D01*
X121288663Y-129377406D01*
X121275812Y-129374187D01*
X121263338Y-129369724D01*
X121251361Y-129364059D01*
X121239998Y-129357248D01*
X121229357Y-129349356D01*
X121219541Y-129340459D01*
X121210644Y-129330643D01*
X121202752Y-129320002D01*
X121195941Y-129308639D01*
X121190276Y-129296662D01*
X121185813Y-129284188D01*
X121182594Y-129271337D01*
X121180650Y-129258232D01*
X121180000Y-129245000D01*
X121180000Y-128975000D01*
X121180650Y-128961768D01*
X121182594Y-128948663D01*
X121185813Y-128935812D01*
X121190276Y-128923338D01*
X121195941Y-128911361D01*
X121202752Y-128899998D01*
X121210644Y-128889357D01*
X121219541Y-128879541D01*
X121229357Y-128870644D01*
X121239998Y-128862752D01*
X121251361Y-128855941D01*
X121263338Y-128850276D01*
X121275812Y-128845813D01*
X121288663Y-128842594D01*
X121301768Y-128840650D01*
X121315000Y-128840000D01*
X121685000Y-128840000D01*
X121698232Y-128840650D01*
G37*
%TD.AperFunction*%
%TD*%
%TA.AperFunction,SMDPad,CuDef*%
%TO.P,R8,2*%
%TO.N,GND*%
G36*
X123098232Y-129860650D02*
G01*
X123111337Y-129862594D01*
X123124188Y-129865813D01*
X123136662Y-129870276D01*
X123148639Y-129875941D01*
X123160002Y-129882752D01*
X123170643Y-129890644D01*
X123180459Y-129899541D01*
X123189356Y-129909357D01*
X123197248Y-129919998D01*
X123204059Y-129931361D01*
X123209724Y-129943338D01*
X123214187Y-129955812D01*
X123217406Y-129968663D01*
X123219350Y-129981768D01*
X123220000Y-129995000D01*
X123220000Y-130265000D01*
X123219350Y-130278232D01*
X123217406Y-130291337D01*
X123214187Y-130304188D01*
X123209724Y-130316662D01*
X123204059Y-130328639D01*
X123197248Y-130340002D01*
X123189356Y-130350643D01*
X123180459Y-130360459D01*
X123170643Y-130369356D01*
X123160002Y-130377248D01*
X123148639Y-130384059D01*
X123136662Y-130389724D01*
X123124188Y-130394187D01*
X123111337Y-130397406D01*
X123098232Y-130399350D01*
X123085000Y-130400000D01*
X122715000Y-130400000D01*
X122701768Y-130399350D01*
X122688663Y-130397406D01*
X122675812Y-130394187D01*
X122663338Y-130389724D01*
X122651361Y-130384059D01*
X122639998Y-130377248D01*
X122629357Y-130369356D01*
X122619541Y-130360459D01*
X122610644Y-130350643D01*
X122602752Y-130340002D01*
X122595941Y-130328639D01*
X122590276Y-130316662D01*
X122585813Y-130304188D01*
X122582594Y-130291337D01*
X122580650Y-130278232D01*
X122580000Y-130265000D01*
X122580000Y-129995000D01*
X122580650Y-129981768D01*
X122582594Y-129968663D01*
X122585813Y-129955812D01*
X122590276Y-129943338D01*
X122595941Y-129931361D01*
X122602752Y-129919998D01*
X122610644Y-129909357D01*
X122619541Y-129899541D01*
X122629357Y-129890644D01*
X122639998Y-129882752D01*
X122651361Y-129875941D01*
X122663338Y-129870276D01*
X122675812Y-129865813D01*
X122688663Y-129862594D01*
X122701768Y-129860650D01*
X122715000Y-129860000D01*
X123085000Y-129860000D01*
X123098232Y-129860650D01*
G37*
%TD.AperFunction*%
%TA.AperFunction,SMDPad,CuDef*%
%TO.P,R8,1*%
%TO.N,Net-(R3-Pad2)*%
G36*
X123098232Y-128840650D02*
G01*
X123111337Y-128842594D01*
X123124188Y-128845813D01*
X123136662Y-128850276D01*
X123148639Y-128855941D01*
X123160002Y-128862752D01*
X123170643Y-128870644D01*
X123180459Y-128879541D01*
X123189356Y-128889357D01*
X123197248Y-128899998D01*
X123204059Y-128911361D01*
X123209724Y-128923338D01*
X123214187Y-128935812D01*
X123217406Y-128948663D01*
X123219350Y-128961768D01*
X123220000Y-128975000D01*
X123220000Y-129245000D01*
X123219350Y-129258232D01*
X123217406Y-129271337D01*
X123214187Y-129284188D01*
X123209724Y-129296662D01*
X123204059Y-129308639D01*
X123197248Y-129320002D01*
X123189356Y-129330643D01*
X123180459Y-129340459D01*
X123170643Y-129349356D01*
X123160002Y-129357248D01*
X123148639Y-129364059D01*
X123136662Y-129369724D01*
X123124188Y-129374187D01*
X123111337Y-129377406D01*
X123098232Y-129379350D01*
X123085000Y-129380000D01*
X122715000Y-129380000D01*
X122701768Y-129379350D01*
X122688663Y-129377406D01*
X122675812Y-129374187D01*
X122663338Y-129369724D01*
X122651361Y-129364059D01*
X122639998Y-129357248D01*
X122629357Y-129349356D01*
X122619541Y-129340459D01*
X122610644Y-129330643D01*
X122602752Y-129320002D01*
X122595941Y-129308639D01*
X122590276Y-129296662D01*
X122585813Y-129284188D01*
X122582594Y-129271337D01*
X122580650Y-129258232D01*
X122580000Y-129245000D01*
X122580000Y-128975000D01*
X122580650Y-128961768D01*
X122582594Y-128948663D01*
X122585813Y-128935812D01*
X122590276Y-128923338D01*
X122595941Y-128911361D01*
X122602752Y-128899998D01*
X122610644Y-128889357D01*
X122619541Y-128879541D01*
X122629357Y-128870644D01*
X122639998Y-128862752D01*
X122651361Y-128855941D01*
X122663338Y-128850276D01*
X122675812Y-128845813D01*
X122688663Y-128842594D01*
X122701768Y-128840650D01*
X122715000Y-128840000D01*
X123085000Y-128840000D01*
X123098232Y-128840650D01*
G37*
%TD.AperFunction*%
%TD*%
D19*
%TO.P,D1,1*%
%TO.N,Net-(D1-Pad1)*%
X128250000Y-124520000D03*
%TO.P,D1,2*%
%TO.N,GND*%
X128250000Y-128520000D03*
%TD*%
D20*
%TO.P,D2,1*%
%TO.N,Net-(D2-Pad1)*%
X122800000Y-118770000D03*
%TO.P,D2,2*%
%TO.N,GND*%
X122800000Y-116670000D03*
%TD*%
%TA.AperFunction,SMDPad,CuDef*%
D18*
%TO.P,U3,1*%
%TO.N,/CASSETTE_DATA_IN_TTL*%
G36*
X125669703Y-121150722D02*
G01*
X125684264Y-121152882D01*
X125698543Y-121156459D01*
X125712403Y-121161418D01*
X125725710Y-121167712D01*
X125738336Y-121175280D01*
X125750159Y-121184048D01*
X125761066Y-121193934D01*
X125770952Y-121204841D01*
X125779720Y-121216664D01*
X125787288Y-121229290D01*
X125793582Y-121242597D01*
X125798541Y-121256457D01*
X125802118Y-121270736D01*
X125804278Y-121285297D01*
X125805000Y-121300000D01*
X125805000Y-122950000D01*
X125804278Y-122964703D01*
X125802118Y-122979264D01*
X125798541Y-122993543D01*
X125793582Y-123007403D01*
X125787288Y-123020710D01*
X125779720Y-123033336D01*
X125770952Y-123045159D01*
X125761066Y-123056066D01*
X125750159Y-123065952D01*
X125738336Y-123074720D01*
X125725710Y-123082288D01*
X125712403Y-123088582D01*
X125698543Y-123093541D01*
X125684264Y-123097118D01*
X125669703Y-123099278D01*
X125655000Y-123100000D01*
X125355000Y-123100000D01*
X125340297Y-123099278D01*
X125325736Y-123097118D01*
X125311457Y-123093541D01*
X125297597Y-123088582D01*
X125284290Y-123082288D01*
X125271664Y-123074720D01*
X125259841Y-123065952D01*
X125248934Y-123056066D01*
X125239048Y-123045159D01*
X125230280Y-123033336D01*
X125222712Y-123020710D01*
X125216418Y-123007403D01*
X125211459Y-122993543D01*
X125207882Y-122979264D01*
X125205722Y-122964703D01*
X125205000Y-122950000D01*
X125205000Y-121300000D01*
X125205722Y-121285297D01*
X125207882Y-121270736D01*
X125211459Y-121256457D01*
X125216418Y-121242597D01*
X125222712Y-121229290D01*
X125230280Y-121216664D01*
X125239048Y-121204841D01*
X125248934Y-121193934D01*
X125259841Y-121184048D01*
X125271664Y-121175280D01*
X125284290Y-121167712D01*
X125297597Y-121161418D01*
X125311457Y-121156459D01*
X125325736Y-121152882D01*
X125340297Y-121150722D01*
X125355000Y-121150000D01*
X125655000Y-121150000D01*
X125669703Y-121150722D01*
G37*
%TD.AperFunction*%
%TA.AperFunction,SMDPad,CuDef*%
%TO.P,U3,2*%
%TO.N,Net-(R3-Pad2)*%
G36*
X124399703Y-121150722D02*
G01*
X124414264Y-121152882D01*
X124428543Y-121156459D01*
X124442403Y-121161418D01*
X124455710Y-121167712D01*
X124468336Y-121175280D01*
X124480159Y-121184048D01*
X124491066Y-121193934D01*
X124500952Y-121204841D01*
X124509720Y-121216664D01*
X124517288Y-121229290D01*
X124523582Y-121242597D01*
X124528541Y-121256457D01*
X124532118Y-121270736D01*
X124534278Y-121285297D01*
X124535000Y-121300000D01*
X124535000Y-122950000D01*
X124534278Y-122964703D01*
X124532118Y-122979264D01*
X124528541Y-122993543D01*
X124523582Y-123007403D01*
X124517288Y-123020710D01*
X124509720Y-123033336D01*
X124500952Y-123045159D01*
X124491066Y-123056066D01*
X124480159Y-123065952D01*
X124468336Y-123074720D01*
X124455710Y-123082288D01*
X124442403Y-123088582D01*
X124428543Y-123093541D01*
X124414264Y-123097118D01*
X124399703Y-123099278D01*
X124385000Y-123100000D01*
X124085000Y-123100000D01*
X124070297Y-123099278D01*
X124055736Y-123097118D01*
X124041457Y-123093541D01*
X124027597Y-123088582D01*
X124014290Y-123082288D01*
X124001664Y-123074720D01*
X123989841Y-123065952D01*
X123978934Y-123056066D01*
X123969048Y-123045159D01*
X123960280Y-123033336D01*
X123952712Y-123020710D01*
X123946418Y-123007403D01*
X123941459Y-122993543D01*
X123937882Y-122979264D01*
X123935722Y-122964703D01*
X123935000Y-122950000D01*
X123935000Y-121300000D01*
X123935722Y-121285297D01*
X123937882Y-121270736D01*
X123941459Y-121256457D01*
X123946418Y-121242597D01*
X123952712Y-121229290D01*
X123960280Y-121216664D01*
X123969048Y-121204841D01*
X123978934Y-121193934D01*
X123989841Y-121184048D01*
X124001664Y-121175280D01*
X124014290Y-121167712D01*
X124027597Y-121161418D01*
X124041457Y-121156459D01*
X124055736Y-121152882D01*
X124070297Y-121150722D01*
X124085000Y-121150000D01*
X124385000Y-121150000D01*
X124399703Y-121150722D01*
G37*
%TD.AperFunction*%
%TA.AperFunction,SMDPad,CuDef*%
%TO.P,U3,3*%
%TO.N,Net-(R1-Pad2)*%
G36*
X123129703Y-121150722D02*
G01*
X123144264Y-121152882D01*
X123158543Y-121156459D01*
X123172403Y-121161418D01*
X123185710Y-121167712D01*
X123198336Y-121175280D01*
X123210159Y-121184048D01*
X123221066Y-121193934D01*
X123230952Y-121204841D01*
X123239720Y-121216664D01*
X123247288Y-121229290D01*
X123253582Y-121242597D01*
X123258541Y-121256457D01*
X123262118Y-121270736D01*
X123264278Y-121285297D01*
X123265000Y-121300000D01*
X123265000Y-122950000D01*
X123264278Y-122964703D01*
X123262118Y-122979264D01*
X123258541Y-122993543D01*
X123253582Y-123007403D01*
X123247288Y-123020710D01*
X123239720Y-123033336D01*
X123230952Y-123045159D01*
X123221066Y-123056066D01*
X123210159Y-123065952D01*
X123198336Y-123074720D01*
X123185710Y-123082288D01*
X123172403Y-123088582D01*
X123158543Y-123093541D01*
X123144264Y-123097118D01*
X123129703Y-123099278D01*
X123115000Y-123100000D01*
X122815000Y-123100000D01*
X122800297Y-123099278D01*
X122785736Y-123097118D01*
X122771457Y-123093541D01*
X122757597Y-123088582D01*
X122744290Y-123082288D01*
X122731664Y-123074720D01*
X122719841Y-123065952D01*
X122708934Y-123056066D01*
X122699048Y-123045159D01*
X122690280Y-123033336D01*
X122682712Y-123020710D01*
X122676418Y-123007403D01*
X122671459Y-122993543D01*
X122667882Y-122979264D01*
X122665722Y-122964703D01*
X122665000Y-122950000D01*
X122665000Y-121300000D01*
X122665722Y-121285297D01*
X122667882Y-121270736D01*
X122671459Y-121256457D01*
X122676418Y-121242597D01*
X122682712Y-121229290D01*
X122690280Y-121216664D01*
X122699048Y-121204841D01*
X122708934Y-121193934D01*
X122719841Y-121184048D01*
X122731664Y-121175280D01*
X122744290Y-121167712D01*
X122757597Y-121161418D01*
X122771457Y-121156459D01*
X122785736Y-121152882D01*
X122800297Y-121150722D01*
X122815000Y-121150000D01*
X123115000Y-121150000D01*
X123129703Y-121150722D01*
G37*
%TD.AperFunction*%
%TA.AperFunction,SMDPad,CuDef*%
%TO.P,U3,4*%
%TO.N,GND*%
G36*
X121859703Y-121150722D02*
G01*
X121874264Y-121152882D01*
X121888543Y-121156459D01*
X121902403Y-121161418D01*
X121915710Y-121167712D01*
X121928336Y-121175280D01*
X121940159Y-121184048D01*
X121951066Y-121193934D01*
X121960952Y-121204841D01*
X121969720Y-121216664D01*
X121977288Y-121229290D01*
X121983582Y-121242597D01*
X121988541Y-121256457D01*
X121992118Y-121270736D01*
X121994278Y-121285297D01*
X121995000Y-121300000D01*
X121995000Y-122950000D01*
X121994278Y-122964703D01*
X121992118Y-122979264D01*
X121988541Y-122993543D01*
X121983582Y-123007403D01*
X121977288Y-123020710D01*
X121969720Y-123033336D01*
X121960952Y-123045159D01*
X121951066Y-123056066D01*
X121940159Y-123065952D01*
X121928336Y-123074720D01*
X121915710Y-123082288D01*
X121902403Y-123088582D01*
X121888543Y-123093541D01*
X121874264Y-123097118D01*
X121859703Y-123099278D01*
X121845000Y-123100000D01*
X121545000Y-123100000D01*
X121530297Y-123099278D01*
X121515736Y-123097118D01*
X121501457Y-123093541D01*
X121487597Y-123088582D01*
X121474290Y-123082288D01*
X121461664Y-123074720D01*
X121449841Y-123065952D01*
X121438934Y-123056066D01*
X121429048Y-123045159D01*
X121420280Y-123033336D01*
X121412712Y-123020710D01*
X121406418Y-123007403D01*
X121401459Y-122993543D01*
X121397882Y-122979264D01*
X121395722Y-122964703D01*
X121395000Y-122950000D01*
X121395000Y-121300000D01*
X121395722Y-121285297D01*
X121397882Y-121270736D01*
X121401459Y-121256457D01*
X121406418Y-121242597D01*
X121412712Y-121229290D01*
X121420280Y-121216664D01*
X121429048Y-121204841D01*
X121438934Y-121193934D01*
X121449841Y-121184048D01*
X121461664Y-121175280D01*
X121474290Y-121167712D01*
X121487597Y-121161418D01*
X121501457Y-121156459D01*
X121515736Y-121152882D01*
X121530297Y-121150722D01*
X121545000Y-121150000D01*
X121845000Y-121150000D01*
X121859703Y-121150722D01*
G37*
%TD.AperFunction*%
%TA.AperFunction,SMDPad,CuDef*%
%TO.P,U3,5*%
%TO.N,Net-(U3-Pad5)*%
G36*
X121859703Y-126100722D02*
G01*
X121874264Y-126102882D01*
X121888543Y-126106459D01*
X121902403Y-126111418D01*
X121915710Y-126117712D01*
X121928336Y-126125280D01*
X121940159Y-126134048D01*
X121951066Y-126143934D01*
X121960952Y-126154841D01*
X121969720Y-126166664D01*
X121977288Y-126179290D01*
X121983582Y-126192597D01*
X121988541Y-126206457D01*
X121992118Y-126220736D01*
X121994278Y-126235297D01*
X121995000Y-126250000D01*
X121995000Y-127900000D01*
X121994278Y-127914703D01*
X121992118Y-127929264D01*
X121988541Y-127943543D01*
X121983582Y-127957403D01*
X121977288Y-127970710D01*
X121969720Y-127983336D01*
X121960952Y-127995159D01*
X121951066Y-128006066D01*
X121940159Y-128015952D01*
X121928336Y-128024720D01*
X121915710Y-128032288D01*
X121902403Y-128038582D01*
X121888543Y-128043541D01*
X121874264Y-128047118D01*
X121859703Y-128049278D01*
X121845000Y-128050000D01*
X121545000Y-128050000D01*
X121530297Y-128049278D01*
X121515736Y-128047118D01*
X121501457Y-128043541D01*
X121487597Y-128038582D01*
X121474290Y-128032288D01*
X121461664Y-128024720D01*
X121449841Y-128015952D01*
X121438934Y-128006066D01*
X121429048Y-127995159D01*
X121420280Y-127983336D01*
X121412712Y-127970710D01*
X121406418Y-127957403D01*
X121401459Y-127943543D01*
X121397882Y-127929264D01*
X121395722Y-127914703D01*
X121395000Y-127900000D01*
X121395000Y-126250000D01*
X121395722Y-126235297D01*
X121397882Y-126220736D01*
X121401459Y-126206457D01*
X121406418Y-126192597D01*
X121412712Y-126179290D01*
X121420280Y-126166664D01*
X121429048Y-126154841D01*
X121438934Y-126143934D01*
X121449841Y-126134048D01*
X121461664Y-126125280D01*
X121474290Y-126117712D01*
X121487597Y-126111418D01*
X121501457Y-126106459D01*
X121515736Y-126102882D01*
X121530297Y-126100722D01*
X121545000Y-126100000D01*
X121845000Y-126100000D01*
X121859703Y-126100722D01*
G37*
%TD.AperFunction*%
%TA.AperFunction,SMDPad,CuDef*%
%TO.P,U3,6*%
%TO.N,Net-(U3-Pad6)*%
G36*
X123129703Y-126100722D02*
G01*
X123144264Y-126102882D01*
X123158543Y-126106459D01*
X123172403Y-126111418D01*
X123185710Y-126117712D01*
X123198336Y-126125280D01*
X123210159Y-126134048D01*
X123221066Y-126143934D01*
X123230952Y-126154841D01*
X123239720Y-126166664D01*
X123247288Y-126179290D01*
X123253582Y-126192597D01*
X123258541Y-126206457D01*
X123262118Y-126220736D01*
X123264278Y-126235297D01*
X123265000Y-126250000D01*
X123265000Y-127900000D01*
X123264278Y-127914703D01*
X123262118Y-127929264D01*
X123258541Y-127943543D01*
X123253582Y-127957403D01*
X123247288Y-127970710D01*
X123239720Y-127983336D01*
X123230952Y-127995159D01*
X123221066Y-128006066D01*
X123210159Y-128015952D01*
X123198336Y-128024720D01*
X123185710Y-128032288D01*
X123172403Y-128038582D01*
X123158543Y-128043541D01*
X123144264Y-128047118D01*
X123129703Y-128049278D01*
X123115000Y-128050000D01*
X122815000Y-128050000D01*
X122800297Y-128049278D01*
X122785736Y-128047118D01*
X122771457Y-128043541D01*
X122757597Y-128038582D01*
X122744290Y-128032288D01*
X122731664Y-128024720D01*
X122719841Y-128015952D01*
X122708934Y-128006066D01*
X122699048Y-127995159D01*
X122690280Y-127983336D01*
X122682712Y-127970710D01*
X122676418Y-127957403D01*
X122671459Y-127943543D01*
X122667882Y-127929264D01*
X122665722Y-127914703D01*
X122665000Y-127900000D01*
X122665000Y-126250000D01*
X122665722Y-126235297D01*
X122667882Y-126220736D01*
X122671459Y-126206457D01*
X122676418Y-126192597D01*
X122682712Y-126179290D01*
X122690280Y-126166664D01*
X122699048Y-126154841D01*
X122708934Y-126143934D01*
X122719841Y-126134048D01*
X122731664Y-126125280D01*
X122744290Y-126117712D01*
X122757597Y-126111418D01*
X122771457Y-126106459D01*
X122785736Y-126102882D01*
X122800297Y-126100722D01*
X122815000Y-126100000D01*
X123115000Y-126100000D01*
X123129703Y-126100722D01*
G37*
%TD.AperFunction*%
%TA.AperFunction,SMDPad,CuDef*%
%TO.P,U3,7*%
%TO.N,N/C*%
G36*
X124399703Y-126100722D02*
G01*
X124414264Y-126102882D01*
X124428543Y-126106459D01*
X124442403Y-126111418D01*
X124455710Y-126117712D01*
X124468336Y-126125280D01*
X124480159Y-126134048D01*
X124491066Y-126143934D01*
X124500952Y-126154841D01*
X124509720Y-126166664D01*
X124517288Y-126179290D01*
X124523582Y-126192597D01*
X124528541Y-126206457D01*
X124532118Y-126220736D01*
X124534278Y-126235297D01*
X124535000Y-126250000D01*
X124535000Y-127900000D01*
X124534278Y-127914703D01*
X124532118Y-127929264D01*
X124528541Y-127943543D01*
X124523582Y-127957403D01*
X124517288Y-127970710D01*
X124509720Y-127983336D01*
X124500952Y-127995159D01*
X124491066Y-128006066D01*
X124480159Y-128015952D01*
X124468336Y-128024720D01*
X124455710Y-128032288D01*
X124442403Y-128038582D01*
X124428543Y-128043541D01*
X124414264Y-128047118D01*
X124399703Y-128049278D01*
X124385000Y-128050000D01*
X124085000Y-128050000D01*
X124070297Y-128049278D01*
X124055736Y-128047118D01*
X124041457Y-128043541D01*
X124027597Y-128038582D01*
X124014290Y-128032288D01*
X124001664Y-128024720D01*
X123989841Y-128015952D01*
X123978934Y-128006066D01*
X123969048Y-127995159D01*
X123960280Y-127983336D01*
X123952712Y-127970710D01*
X123946418Y-127957403D01*
X123941459Y-127943543D01*
X123937882Y-127929264D01*
X123935722Y-127914703D01*
X123935000Y-127900000D01*
X123935000Y-126250000D01*
X123935722Y-126235297D01*
X123937882Y-126220736D01*
X123941459Y-126206457D01*
X123946418Y-126192597D01*
X123952712Y-126179290D01*
X123960280Y-126166664D01*
X123969048Y-126154841D01*
X123978934Y-126143934D01*
X123989841Y-126134048D01*
X124001664Y-126125280D01*
X124014290Y-126117712D01*
X124027597Y-126111418D01*
X124041457Y-126106459D01*
X124055736Y-126102882D01*
X124070297Y-126100722D01*
X124085000Y-126100000D01*
X124385000Y-126100000D01*
X124399703Y-126100722D01*
G37*
%TD.AperFunction*%
%TA.AperFunction,SMDPad,CuDef*%
%TO.P,U3,8*%
%TO.N,+5V*%
G36*
X125669703Y-126100722D02*
G01*
X125684264Y-126102882D01*
X125698543Y-126106459D01*
X125712403Y-126111418D01*
X125725710Y-126117712D01*
X125738336Y-126125280D01*
X125750159Y-126134048D01*
X125761066Y-126143934D01*
X125770952Y-126154841D01*
X125779720Y-126166664D01*
X125787288Y-126179290D01*
X125793582Y-126192597D01*
X125798541Y-126206457D01*
X125802118Y-126220736D01*
X125804278Y-126235297D01*
X125805000Y-126250000D01*
X125805000Y-127900000D01*
X125804278Y-127914703D01*
X125802118Y-127929264D01*
X125798541Y-127943543D01*
X125793582Y-127957403D01*
X125787288Y-127970710D01*
X125779720Y-127983336D01*
X125770952Y-127995159D01*
X125761066Y-128006066D01*
X125750159Y-128015952D01*
X125738336Y-128024720D01*
X125725710Y-128032288D01*
X125712403Y-128038582D01*
X125698543Y-128043541D01*
X125684264Y-128047118D01*
X125669703Y-128049278D01*
X125655000Y-128050000D01*
X125355000Y-128050000D01*
X125340297Y-128049278D01*
X125325736Y-128047118D01*
X125311457Y-128043541D01*
X125297597Y-128038582D01*
X125284290Y-128032288D01*
X125271664Y-128024720D01*
X125259841Y-128015952D01*
X125248934Y-128006066D01*
X125239048Y-127995159D01*
X125230280Y-127983336D01*
X125222712Y-127970710D01*
X125216418Y-127957403D01*
X125211459Y-127943543D01*
X125207882Y-127929264D01*
X125205722Y-127914703D01*
X125205000Y-127900000D01*
X125205000Y-126250000D01*
X125205722Y-126235297D01*
X125207882Y-126220736D01*
X125211459Y-126206457D01*
X125216418Y-126192597D01*
X125222712Y-126179290D01*
X125230280Y-126166664D01*
X125239048Y-126154841D01*
X125248934Y-126143934D01*
X125259841Y-126134048D01*
X125271664Y-126125280D01*
X125284290Y-126117712D01*
X125297597Y-126111418D01*
X125311457Y-126106459D01*
X125325736Y-126102882D01*
X125340297Y-126100722D01*
X125355000Y-126100000D01*
X125655000Y-126100000D01*
X125669703Y-126100722D01*
G37*
%TD.AperFunction*%
%TD*%
D21*
%TO.N,+5V*%
X113000040Y-110850000D03*
D22*
X132100000Y-130770000D03*
X107900000Y-131220002D03*
D21*
%TO.N,GND*%
X116100000Y-123650000D03*
X114100000Y-110850000D03*
D22*
X119450000Y-100520000D03*
D21*
X121236650Y-124406650D03*
D22*
X129750000Y-111470000D03*
X121250000Y-110970000D03*
X108500000Y-110670000D03*
X107900000Y-105570000D03*
X107950000Y-99320000D03*
D21*
X119400001Y-103769999D03*
X119400000Y-102170000D03*
D22*
X125650000Y-129400000D03*
D21*
X113700000Y-126320000D03*
X109700000Y-126770000D03*
X109700000Y-122520000D03*
%TO.N,/SERIAL_IN_TTL*%
X117803000Y-113205200D03*
X116126600Y-121244500D03*
%TO.N,/CD_IN_TTL*%
X116350000Y-110875623D03*
%TO.N,/CD_IN_RS232*%
X115295675Y-110856946D03*
%TO.N,/SERIAL_OUT_TTL*%
X117468000Y-110929600D03*
D22*
%TO.N,Net-(D1-Pad1)*%
X119450000Y-105520000D03*
X124050000Y-113420000D03*
D21*
%TO.N,Net-(C8-Pad2)*%
X113262100Y-121385400D03*
X113000000Y-116219998D03*
%TO.N,/CASSETTE_DATA_IN_TTL*%
X124885000Y-123785000D03*
%TD*%
D23*
%TO.N,+5V*%
X113125000Y-110974960D02*
X113000040Y-110850000D01*
X113125000Y-112075000D02*
X113125000Y-110974960D01*
D24*
X126174990Y-108623862D02*
X126771128Y-109220000D01*
X126174990Y-102244990D02*
X126174990Y-108623862D01*
X126150000Y-102220000D02*
X126174990Y-102244990D01*
X122825000Y-102220000D02*
X126150000Y-102220000D01*
X132100000Y-109948872D02*
X132100000Y-114420000D01*
X131371128Y-109220000D02*
X132100000Y-109948872D01*
X130150000Y-109220000D02*
X131371128Y-109220000D01*
X126771128Y-109220000D02*
X130150000Y-109220000D01*
D23*
X111600000Y-115805002D02*
X111600000Y-116680000D01*
X113125000Y-114280002D02*
X111600000Y-115805002D01*
X113125000Y-112075000D02*
X113125000Y-114280002D01*
D24*
X132100000Y-130770000D02*
X132100000Y-114420000D01*
D23*
X124300000Y-129110000D02*
X124300000Y-129260000D01*
X114600000Y-124100000D02*
X114600000Y-123650000D01*
X113130000Y-125570000D02*
X114600000Y-124100000D01*
X108400000Y-125570000D02*
X113130000Y-125570000D01*
X107850000Y-126120000D02*
X108400000Y-125570000D01*
D24*
X107900000Y-118570000D02*
X107900000Y-126070000D01*
X109790000Y-116680000D02*
X107900000Y-118570000D01*
X111600000Y-116680000D02*
X109790000Y-116680000D01*
X107900000Y-126170000D02*
X107900000Y-131220002D01*
D23*
X124275000Y-129085000D02*
X124300000Y-129110000D01*
X125500000Y-127080000D02*
X125505000Y-127075000D01*
X125500000Y-127900000D02*
X125500000Y-127080000D01*
X124300000Y-129100000D02*
X125500000Y-127900000D01*
X124300000Y-129110000D02*
X124300000Y-129100000D01*
X124650000Y-109220000D02*
X130150000Y-109220000D01*
X122250000Y-111620000D02*
X124650000Y-109220000D01*
X122250000Y-114320000D02*
X122250000Y-111620000D01*
X125260000Y-117330000D02*
X122250000Y-114320000D01*
X125260000Y-117350000D02*
X125260000Y-117330000D01*
X125505000Y-126045000D02*
X125505000Y-127045000D01*
X126750000Y-118000000D02*
X126750000Y-124800000D01*
X126100000Y-117350000D02*
X126750000Y-118000000D01*
X125260000Y-117350000D02*
X126100000Y-117350000D01*
X126750000Y-124800000D02*
X125505000Y-126045000D01*
X125250000Y-117360000D02*
X125260000Y-117350000D01*
X125250000Y-118540000D02*
X125250000Y-117360000D01*
X124750000Y-119040000D02*
X125250000Y-118540000D01*
%TO.N,GND*%
X117200000Y-125200100D02*
X117465300Y-125465400D01*
X117465300Y-125465400D02*
X120177900Y-125465400D01*
X115100000Y-125950000D02*
X115849900Y-125200100D01*
X115849900Y-125200100D02*
X117200000Y-125200100D01*
X117200000Y-125200100D02*
X117200000Y-123725000D01*
X114650000Y-126824700D02*
X115100000Y-126374700D01*
X115100000Y-126374700D02*
X115100000Y-125950000D01*
X114650000Y-127600000D02*
X114650000Y-126824700D01*
X113775000Y-111175000D02*
X114100000Y-110850000D01*
X113775000Y-112075000D02*
X113775000Y-111175000D01*
X116175000Y-123725000D02*
X116100000Y-123650000D01*
X117200000Y-123725000D02*
X116175000Y-123725000D01*
X120177900Y-125465400D02*
X121236650Y-124406650D01*
D24*
X117075000Y-100520000D02*
X113675000Y-103920000D01*
X122825000Y-100520000D02*
X119450000Y-100520000D01*
X120349990Y-103819990D02*
X122020813Y-103819990D01*
X120299999Y-103769999D02*
X120349990Y-103819990D01*
X113825001Y-103769999D02*
X119400001Y-103769999D01*
X113675000Y-103920000D02*
X113825001Y-103769999D01*
X119450000Y-100520000D02*
X117075000Y-100520000D01*
D23*
X128150000Y-128770000D02*
X128250000Y-128670000D01*
D25*
X108500000Y-109095000D02*
X113675000Y-103920000D01*
X108500000Y-110670000D02*
X108500000Y-109095000D01*
D24*
X109075000Y-99320000D02*
X113675000Y-103920000D01*
X107950000Y-99320000D02*
X109075000Y-99320000D01*
X107925010Y-105544990D02*
X107925010Y-105570000D01*
X109550000Y-103920000D02*
X107925010Y-105544990D01*
X113675000Y-103920000D02*
X109550000Y-103920000D01*
X119400001Y-103769999D02*
X120299999Y-103769999D01*
X112870000Y-129380000D02*
X111600000Y-129380000D01*
X114650000Y-127600000D02*
X112870000Y-129380000D01*
D23*
X121695000Y-123069999D02*
X121695000Y-122125000D01*
X121689999Y-123069999D02*
X121695000Y-123069999D01*
X121350000Y-123409998D02*
X121689999Y-123069999D01*
X121350000Y-124293300D02*
X121350000Y-123409998D01*
X121236650Y-124406650D02*
X121350000Y-124293300D01*
X125450000Y-129600000D02*
X125600000Y-129450000D01*
X125450000Y-130700000D02*
X125450000Y-129600000D01*
X125250000Y-130900000D02*
X125450000Y-130700000D01*
X123250000Y-130900000D02*
X125250000Y-130900000D01*
X122900000Y-130550000D02*
X123250000Y-130900000D01*
X122900000Y-130280000D02*
X122900000Y-130550000D01*
%TO.N,Net-(C6-Pad1)*%
X113125000Y-119435000D02*
X113390000Y-119700000D01*
X113125000Y-117625000D02*
X113125000Y-119435000D01*
%TO.N,Net-(C6-Pad2)*%
X114425000Y-119625000D02*
X114425000Y-117625000D01*
X114350000Y-119700000D02*
X114425000Y-119625000D01*
%TO.N,Net-(C7-Pad2)*%
X115725000Y-118650000D02*
X115725000Y-117625000D01*
X117225000Y-120150000D02*
X115725000Y-118650000D01*
%TO.N,Net-(C7-Pad1)*%
X115075000Y-119550000D02*
X115075000Y-117625000D01*
X115675000Y-120150000D02*
X115075000Y-119550000D01*
%TO.N,Net-(C9-Pad2)*%
X117350000Y-119300000D02*
X116375000Y-118325000D01*
X117800000Y-119300000D02*
X117350000Y-119300000D01*
X116375000Y-118325000D02*
X116375000Y-117625000D01*
X118150000Y-121300000D02*
X118150000Y-119650000D01*
X118150000Y-119650000D02*
X117800000Y-119300000D01*
X118114600Y-121335400D02*
X118150000Y-121300000D01*
X118039600Y-121335400D02*
X118114600Y-121335400D01*
X117200000Y-122175000D02*
X118039600Y-121335400D01*
D24*
%TO.N,Net-(J1-Pad9)*%
X119000000Y-129600000D02*
X119220000Y-129380000D01*
X115600000Y-129600000D02*
X119000000Y-129600000D01*
%TO.N,Net-(J1-Pad10)*%
X116550000Y-127600000D02*
X117435000Y-127600000D01*
X118460000Y-127600000D02*
X119220000Y-126840000D01*
X117435000Y-127600000D02*
X118460000Y-127600000D01*
D23*
X116120000Y-126285000D02*
X116120000Y-125950000D01*
X117435000Y-127600000D02*
X116120000Y-126285000D01*
%TO.N,/SERIAL_IN_TTL*%
X112829900Y-120449900D02*
X111600000Y-119220000D01*
X114130500Y-120449900D02*
X112829900Y-120449900D01*
X114925100Y-121244500D02*
X114130500Y-120449900D01*
X116126600Y-121244500D02*
X114925100Y-121244500D01*
X117675000Y-112075000D02*
X117675000Y-112925300D01*
X117803000Y-113053300D02*
X117803000Y-113205200D01*
X117675000Y-112925300D02*
X117803000Y-113053300D01*
%TO.N,/SERIAL_OUT_RS232*%
X119220000Y-121760000D02*
X119220000Y-120634700D01*
X120345300Y-119790800D02*
X119501400Y-120634700D01*
X120345300Y-116188100D02*
X120345300Y-119790800D01*
X119697800Y-115540600D02*
X120345300Y-116188100D01*
X118489500Y-115540600D02*
X119697800Y-115540600D01*
X119501400Y-120634700D02*
X119220000Y-120634700D01*
X117255400Y-116774700D02*
X118489500Y-115540600D01*
X117025000Y-116774700D02*
X117255400Y-116774700D01*
X117025000Y-117625000D02*
X117025000Y-116774700D01*
%TO.N,/CD_IN_TTL*%
X115725000Y-111500623D02*
X116350000Y-110875623D01*
X115725000Y-112075000D02*
X115725000Y-111500623D01*
%TO.N,/CD_IN_RS232*%
X115075000Y-111077621D02*
X115295675Y-110856946D01*
X115075000Y-112075000D02*
X115075000Y-111077621D01*
%TO.N,/SERIAL_OUT_TTL*%
X117172900Y-111224700D02*
X117468000Y-110929600D01*
X117025000Y-111224700D02*
X117172900Y-111224700D01*
X117025000Y-112075000D02*
X117025000Y-111224700D01*
%TO.N,/SERIAL_IN_RS232*%
X118275000Y-117625000D02*
X119220000Y-116680000D01*
X117675000Y-117625000D02*
X118275000Y-117625000D01*
D24*
%TO.N,VCC*%
X122825000Y-107320000D02*
X120250000Y-107320000D01*
X119220000Y-110468630D02*
X119220000Y-111600000D01*
X119325001Y-110363629D02*
X119220000Y-110468630D01*
X119325001Y-108244999D02*
X119325001Y-110363629D01*
X120250000Y-107320000D02*
X119325001Y-108244999D01*
%TO.N,Net-(D1-Pad1)*%
X122650000Y-105620000D02*
X122550000Y-105520000D01*
X122825000Y-105620000D02*
X122650000Y-105620000D01*
X122550000Y-105520000D02*
X119450000Y-105520000D01*
X125400000Y-113420000D02*
X126400000Y-114420000D01*
X124050000Y-113420000D02*
X125400000Y-113420000D01*
D25*
X128250000Y-116270000D02*
X128250000Y-124370000D01*
X126400000Y-114420000D02*
X128250000Y-116270000D01*
D23*
%TO.N,Net-(C8-Pad2)*%
X113885400Y-121385400D02*
X114600000Y-122100000D01*
X113262100Y-121385400D02*
X113885400Y-121385400D01*
X113775000Y-117625000D02*
X113775000Y-116994998D01*
X113775000Y-116994998D02*
X113399999Y-116619997D01*
X113399999Y-116619997D02*
X113000000Y-116219998D01*
%TO.N,Net-(D2-Pad1)*%
X122290000Y-119660000D02*
X122290000Y-120100000D01*
X121370000Y-118740000D02*
X122290000Y-119660000D01*
X121300000Y-118740000D02*
X121370000Y-118740000D01*
X122800000Y-118770000D02*
X122650000Y-118770000D01*
X121330000Y-118770000D02*
X122800000Y-118770000D01*
X121300000Y-118740000D02*
X121330000Y-118770000D01*
%TO.N,/CASSETTE_DATA_IN*%
X119220000Y-124300000D02*
X119220000Y-123680000D01*
X120019999Y-123500001D02*
X119220000Y-124300000D01*
X120650000Y-122870000D02*
X120019999Y-123500001D01*
X120650000Y-120680000D02*
X120650000Y-122870000D01*
X121300000Y-120030000D02*
X120650000Y-120680000D01*
X121300000Y-119760000D02*
X121300000Y-120030000D01*
%TO.N,Net-(R3-Pad2)*%
X124300000Y-121862500D02*
X124275000Y-121887500D01*
%TO.N,/CASSETTE_DATA_IN_TTL*%
X125450000Y-121955000D02*
X125505000Y-121900000D01*
X125450000Y-123220000D02*
X125450000Y-121955000D01*
X124885000Y-123785000D02*
X125450000Y-123220000D01*
X124319315Y-123785000D02*
X124885000Y-123785000D01*
X122339990Y-128590010D02*
X122339990Y-125764325D01*
X122339990Y-125764325D02*
X124319315Y-123785000D01*
X121820000Y-129110000D02*
X122339990Y-128590010D01*
X121500000Y-129110000D02*
X121820000Y-129110000D01*
X125505000Y-120945000D02*
X125505000Y-122125000D01*
X124750000Y-120190000D02*
X125505000Y-120945000D01*
X124750000Y-120060000D02*
X124750000Y-120190000D01*
%TO.N,Net-(R1-Pad2)*%
X122975000Y-121887500D02*
X122975000Y-120435000D01*
X122975000Y-120435000D02*
X123310000Y-120100000D01*
X123500800Y-119909200D02*
X123310000Y-120100000D01*
X123500800Y-118089200D02*
X123500800Y-119909200D01*
X124240000Y-117350000D02*
X123500800Y-118089200D01*
%TO.N,Net-(R3-Pad2)*%
X124235000Y-122765000D02*
X124235000Y-121900000D01*
X120550000Y-126450000D02*
X124235000Y-122765000D01*
X120550000Y-129220000D02*
X120550000Y-126450000D01*
X122580000Y-129120000D02*
X121515000Y-130185000D01*
X123250000Y-129120000D02*
X122580000Y-129120000D01*
X121515000Y-130185000D02*
X120550000Y-129220000D01*
X124300000Y-130170000D02*
X123250000Y-129120000D01*
X124300000Y-130280000D02*
X124300000Y-130170000D01*
%TD*%
D26*
%TO.N,GND*%
G36*
X125743674Y-110151231D02*
G01*
X125787047Y-110204081D01*
X125997940Y-110377157D01*
X126238547Y-110505764D01*
X126499621Y-110584960D01*
X126703091Y-110605000D01*
X126703100Y-110605000D01*
X126771127Y-110611700D01*
X126839154Y-110605000D01*
X130715000Y-110605000D01*
X130715001Y-112214498D01*
X130648815Y-112268815D01*
X130569463Y-112365506D01*
X130510498Y-112475820D01*
X130474188Y-112595518D01*
X130461928Y-112720000D01*
X130461928Y-116120000D01*
X130474188Y-116244482D01*
X130510498Y-116364180D01*
X130569463Y-116474494D01*
X130648815Y-116571185D01*
X130715001Y-116625502D01*
X130715000Y-130377301D01*
X130665000Y-130628665D01*
X130665000Y-130911335D01*
X130720147Y-131188574D01*
X130828320Y-131449727D01*
X130985363Y-131684759D01*
X131058291Y-131757687D01*
X109237065Y-131741875D01*
X109279853Y-131638576D01*
X109335000Y-131361337D01*
X109335000Y-131078667D01*
X109285000Y-130827303D01*
X109285000Y-129729039D01*
X110208096Y-129729039D01*
X110248754Y-129863087D01*
X110368963Y-130117420D01*
X110536481Y-130343414D01*
X110744869Y-130532385D01*
X110986119Y-130677070D01*
X111250960Y-130771909D01*
X111473000Y-130650624D01*
X111473000Y-129507000D01*
X111727000Y-129507000D01*
X111727000Y-130650624D01*
X111949040Y-130771909D01*
X112213881Y-130677070D01*
X112455131Y-130532385D01*
X112663519Y-130343414D01*
X112831037Y-130117420D01*
X112951246Y-129863087D01*
X112991904Y-129729039D01*
X112869915Y-129507000D01*
X111727000Y-129507000D01*
X111473000Y-129507000D01*
X110330085Y-129507000D01*
X110208096Y-129729039D01*
X109285000Y-129729039D01*
X109285000Y-126330000D01*
X110258017Y-126330000D01*
X110220147Y-126421426D01*
X110165000Y-126698665D01*
X110165000Y-126981335D01*
X110220147Y-127258574D01*
X110328320Y-127519727D01*
X110485363Y-127754759D01*
X110685241Y-127954637D01*
X110920273Y-128111680D01*
X110930865Y-128116067D01*
X110744869Y-128227615D01*
X110536481Y-128416586D01*
X110368963Y-128642580D01*
X110248754Y-128896913D01*
X110208096Y-129030961D01*
X110330085Y-129253000D01*
X111473000Y-129253000D01*
X111473000Y-129233000D01*
X111727000Y-129233000D01*
X111727000Y-129253000D01*
X112869915Y-129253000D01*
X112991904Y-129030961D01*
X112951246Y-128896913D01*
X112831037Y-128642580D01*
X112663519Y-128416586D01*
X112455131Y-128227615D01*
X112269135Y-128116067D01*
X112279727Y-128111680D01*
X112514759Y-127954637D01*
X112714637Y-127754759D01*
X112871680Y-127519727D01*
X112979853Y-127258574D01*
X113035000Y-126981335D01*
X113035000Y-126698665D01*
X112979853Y-126421426D01*
X112941983Y-126330000D01*
X113092678Y-126330000D01*
X113130000Y-126333676D01*
X113167322Y-126330000D01*
X113167333Y-126330000D01*
X113278986Y-126319003D01*
X113422247Y-126275546D01*
X113554276Y-126204974D01*
X113670001Y-126110001D01*
X113693804Y-126080997D01*
X114197160Y-125577642D01*
X114191977Y-125637881D01*
X114195000Y-125664250D01*
X114353750Y-125823000D01*
X114973000Y-125823000D01*
X114973000Y-125153750D01*
X114814250Y-124995000D01*
X114776290Y-124998512D01*
X115068526Y-124706276D01*
X115180283Y-124672375D01*
X115329497Y-124592618D01*
X115460284Y-124485284D01*
X115567618Y-124354497D01*
X115647375Y-124205283D01*
X115656561Y-124175000D01*
X116086928Y-124175000D01*
X116099188Y-124299482D01*
X116135498Y-124419180D01*
X116194463Y-124529494D01*
X116273815Y-124626185D01*
X116370506Y-124705537D01*
X116480820Y-124764502D01*
X116600518Y-124800812D01*
X116725000Y-124813072D01*
X116914250Y-124810000D01*
X117073000Y-124651250D01*
X117073000Y-123852000D01*
X116248750Y-123852000D01*
X116090000Y-124010750D01*
X116086928Y-124175000D01*
X115656561Y-124175000D01*
X115696488Y-124043377D01*
X115713072Y-123875000D01*
X115713072Y-123425000D01*
X115696488Y-123256623D01*
X115647375Y-123094717D01*
X115567618Y-122945503D01*
X115509758Y-122875000D01*
X115567618Y-122804497D01*
X115647375Y-122655283D01*
X115696488Y-122493377D01*
X115713072Y-122325000D01*
X115713072Y-122193487D01*
X115824702Y-122239726D01*
X116024661Y-122279500D01*
X116086928Y-122279500D01*
X116086928Y-122400000D01*
X116103512Y-122568377D01*
X116152625Y-122730283D01*
X116230700Y-122876351D01*
X116194463Y-122920506D01*
X116135498Y-123030820D01*
X116099188Y-123150518D01*
X116086928Y-123275000D01*
X116090000Y-123439250D01*
X116248750Y-123598000D01*
X117073000Y-123598000D01*
X117073000Y-123578000D01*
X117327000Y-123578000D01*
X117327000Y-123598000D01*
X117347000Y-123598000D01*
X117347000Y-123852000D01*
X117327000Y-123852000D01*
X117327000Y-124651250D01*
X117485750Y-124810000D01*
X117675000Y-124813072D01*
X117799482Y-124800812D01*
X117865869Y-124780674D01*
X117948320Y-124979727D01*
X118105363Y-125214759D01*
X118305241Y-125414637D01*
X118537759Y-125570000D01*
X118305241Y-125725363D01*
X118105363Y-125925241D01*
X117962975Y-126138340D01*
X117886315Y-126215000D01*
X117124801Y-126215000D01*
X117028072Y-126118271D01*
X117028072Y-125765000D01*
X117013218Y-125614181D01*
X116969225Y-125469158D01*
X116897786Y-125335504D01*
X116801644Y-125218356D01*
X116684496Y-125122214D01*
X116550842Y-125050775D01*
X116405819Y-125006782D01*
X116255000Y-124991928D01*
X115985000Y-124991928D01*
X115834181Y-125006782D01*
X115689158Y-125050775D01*
X115661451Y-125065584D01*
X115621442Y-125043559D01*
X115502202Y-125005774D01*
X115385750Y-124995000D01*
X115227000Y-125153750D01*
X115227000Y-125613462D01*
X115226782Y-125614181D01*
X115211928Y-125765000D01*
X115211928Y-126097000D01*
X114973000Y-126097000D01*
X114973000Y-126077000D01*
X114353750Y-126077000D01*
X114195000Y-126235750D01*
X114191977Y-126262119D01*
X114202699Y-126386742D01*
X114237527Y-126506879D01*
X114240625Y-126512851D01*
X114125518Y-126524188D01*
X114005820Y-126560498D01*
X113895506Y-126619463D01*
X113798815Y-126698815D01*
X113719463Y-126795506D01*
X113660498Y-126905820D01*
X113624188Y-127025518D01*
X113611928Y-127150000D01*
X113615000Y-127314250D01*
X113773750Y-127473000D01*
X114523000Y-127473000D01*
X114523000Y-127453000D01*
X114777000Y-127453000D01*
X114777000Y-127473000D01*
X114797000Y-127473000D01*
X114797000Y-127727000D01*
X114777000Y-127727000D01*
X114777000Y-127747000D01*
X114523000Y-127747000D01*
X114523000Y-127727000D01*
X113773750Y-127727000D01*
X113615000Y-127885750D01*
X113611928Y-128050000D01*
X113624188Y-128174482D01*
X113660498Y-128294180D01*
X113719463Y-128404494D01*
X113798815Y-128501185D01*
X113895506Y-128580537D01*
X114005820Y-128639502D01*
X114125518Y-128675812D01*
X114250000Y-128688072D01*
X114364250Y-128685000D01*
X114522998Y-128526252D01*
X114522998Y-128685000D01*
X114559225Y-128685000D01*
X114442843Y-128826812D01*
X114314236Y-129067419D01*
X114235040Y-129328493D01*
X114208299Y-129600000D01*
X114235040Y-129871507D01*
X114314236Y-130132581D01*
X114442843Y-130373188D01*
X114615919Y-130584081D01*
X114826812Y-130757157D01*
X115067419Y-130885764D01*
X115328493Y-130964960D01*
X115531963Y-130985000D01*
X118931971Y-130985000D01*
X119000000Y-130991700D01*
X119068029Y-130985000D01*
X119068037Y-130985000D01*
X119271507Y-130964960D01*
X119532581Y-130885764D01*
X119773188Y-130757157D01*
X119910407Y-130644544D01*
X120134759Y-130494637D01*
X120334637Y-130294759D01*
X120420882Y-130165684D01*
X120544302Y-130289103D01*
X120556782Y-130415819D01*
X120600775Y-130560842D01*
X120672214Y-130694496D01*
X120768356Y-130811644D01*
X120885504Y-130907786D01*
X121019158Y-130979225D01*
X121164181Y-131023218D01*
X121315000Y-131038072D01*
X121685000Y-131038072D01*
X121835819Y-131023218D01*
X121980842Y-130979225D01*
X122114496Y-130907786D01*
X122155835Y-130873859D01*
X122232086Y-130934876D01*
X122343121Y-130992473D01*
X122463258Y-131027301D01*
X122587881Y-131038023D01*
X122614250Y-131035000D01*
X122773000Y-130876250D01*
X122773000Y-130257000D01*
X122753000Y-130257000D01*
X122753000Y-130021802D01*
X122756730Y-130018072D01*
X123047000Y-130018072D01*
X123047000Y-130257000D01*
X123027000Y-130257000D01*
X123027000Y-130876250D01*
X123185750Y-131035000D01*
X123212119Y-131038023D01*
X123336742Y-131027301D01*
X123456879Y-130992473D01*
X123567914Y-130934876D01*
X123644165Y-130873859D01*
X123685504Y-130907786D01*
X123819158Y-130979225D01*
X123964181Y-131023218D01*
X124115000Y-131038072D01*
X124243092Y-131038072D01*
X124300000Y-131043677D01*
X124356908Y-131038072D01*
X124485000Y-131038072D01*
X124635819Y-131023218D01*
X124780842Y-130979225D01*
X124914496Y-130907786D01*
X125031644Y-130811644D01*
X125127786Y-130694496D01*
X125199225Y-130560842D01*
X125243218Y-130415819D01*
X125258072Y-130265000D01*
X125258072Y-129995000D01*
X125243218Y-129844181D01*
X125220716Y-129770000D01*
X126711928Y-129770000D01*
X126724188Y-129894482D01*
X126760498Y-130014180D01*
X126819463Y-130124494D01*
X126898815Y-130221185D01*
X126995506Y-130300537D01*
X127105820Y-130359502D01*
X127225518Y-130395812D01*
X127350000Y-130408072D01*
X127964250Y-130405000D01*
X128123000Y-130246250D01*
X128123000Y-128647000D01*
X128377000Y-128647000D01*
X128377000Y-130246250D01*
X128535750Y-130405000D01*
X129150000Y-130408072D01*
X129274482Y-130395812D01*
X129394180Y-130359502D01*
X129504494Y-130300537D01*
X129601185Y-130221185D01*
X129680537Y-130124494D01*
X129739502Y-130014180D01*
X129775812Y-129894482D01*
X129788072Y-129770000D01*
X129785000Y-128805750D01*
X129626250Y-128647000D01*
X128377000Y-128647000D01*
X128123000Y-128647000D01*
X126873750Y-128647000D01*
X126715000Y-128805750D01*
X126711928Y-129770000D01*
X125220716Y-129770000D01*
X125199225Y-129699158D01*
X125156914Y-129620000D01*
X125199225Y-129540842D01*
X125243218Y-129395819D01*
X125258072Y-129245000D01*
X125258072Y-129216729D01*
X125801122Y-128673680D01*
X125808745Y-128672929D01*
X125956582Y-128628084D01*
X126092829Y-128555258D01*
X126212251Y-128457251D01*
X126310258Y-128337829D01*
X126383084Y-128201582D01*
X126427929Y-128053745D01*
X126443072Y-127900000D01*
X126443072Y-127270000D01*
X126711928Y-127270000D01*
X126715000Y-128234250D01*
X126873750Y-128393000D01*
X128123000Y-128393000D01*
X128123000Y-126793750D01*
X128377000Y-126793750D01*
X128377000Y-128393000D01*
X129626250Y-128393000D01*
X129785000Y-128234250D01*
X129788072Y-127270000D01*
X129775812Y-127145518D01*
X129739502Y-127025820D01*
X129680537Y-126915506D01*
X129601185Y-126818815D01*
X129504494Y-126739463D01*
X129394180Y-126680498D01*
X129274482Y-126644188D01*
X129150000Y-126631928D01*
X128535750Y-126635000D01*
X128377000Y-126793750D01*
X128123000Y-126793750D01*
X127964250Y-126635000D01*
X127350000Y-126631928D01*
X127225518Y-126644188D01*
X127105820Y-126680498D01*
X126995506Y-126739463D01*
X126898815Y-126818815D01*
X126819463Y-126915506D01*
X126760498Y-127025820D01*
X126724188Y-127145518D01*
X126711928Y-127270000D01*
X126443072Y-127270000D01*
X126443072Y-126250000D01*
X126436951Y-126187851D01*
X126725615Y-125899186D01*
X126760498Y-126014180D01*
X126819463Y-126124494D01*
X126898815Y-126221185D01*
X126995506Y-126300537D01*
X127105820Y-126359502D01*
X127225518Y-126395812D01*
X127350000Y-126408072D01*
X129150000Y-126408072D01*
X129274482Y-126395812D01*
X129394180Y-126359502D01*
X129504494Y-126300537D01*
X129601185Y-126221185D01*
X129680537Y-126124494D01*
X129739502Y-126014180D01*
X129775812Y-125894482D01*
X129788072Y-125770000D01*
X129788072Y-124932058D01*
X129861343Y-124690516D01*
X129885000Y-124450322D01*
X129885000Y-116350319D01*
X129892911Y-116269999D01*
X129883611Y-116175574D01*
X129861343Y-115949484D01*
X129767852Y-115641285D01*
X129616031Y-115357248D01*
X129411714Y-115108286D01*
X129349320Y-115057081D01*
X128038072Y-113745834D01*
X128038072Y-112720000D01*
X128025812Y-112595518D01*
X127989502Y-112475820D01*
X127930537Y-112365506D01*
X127851185Y-112268815D01*
X127754494Y-112189463D01*
X127644180Y-112130498D01*
X127524482Y-112094188D01*
X127400000Y-112081928D01*
X125760145Y-112081928D01*
X125671507Y-112055040D01*
X125468037Y-112035000D01*
X125468029Y-112035000D01*
X125400000Y-112028300D01*
X125331971Y-112035000D01*
X124442699Y-112035000D01*
X124191335Y-111985000D01*
X123908665Y-111985000D01*
X123631426Y-112040147D01*
X123370273Y-112148320D01*
X123135241Y-112305363D01*
X123010000Y-112430604D01*
X123010000Y-111934801D01*
X124964802Y-109980000D01*
X125572443Y-109980000D01*
X125743674Y-110151231D01*
G37*
X125743674Y-110151231D02*
X125787047Y-110204081D01*
X125997940Y-110377157D01*
X126238547Y-110505764D01*
X126499621Y-110584960D01*
X126703091Y-110605000D01*
X126703100Y-110605000D01*
X126771127Y-110611700D01*
X126839154Y-110605000D01*
X130715000Y-110605000D01*
X130715001Y-112214498D01*
X130648815Y-112268815D01*
X130569463Y-112365506D01*
X130510498Y-112475820D01*
X130474188Y-112595518D01*
X130461928Y-112720000D01*
X130461928Y-116120000D01*
X130474188Y-116244482D01*
X130510498Y-116364180D01*
X130569463Y-116474494D01*
X130648815Y-116571185D01*
X130715001Y-116625502D01*
X130715000Y-130377301D01*
X130665000Y-130628665D01*
X130665000Y-130911335D01*
X130720147Y-131188574D01*
X130828320Y-131449727D01*
X130985363Y-131684759D01*
X131058291Y-131757687D01*
X109237065Y-131741875D01*
X109279853Y-131638576D01*
X109335000Y-131361337D01*
X109335000Y-131078667D01*
X109285000Y-130827303D01*
X109285000Y-129729039D01*
X110208096Y-129729039D01*
X110248754Y-129863087D01*
X110368963Y-130117420D01*
X110536481Y-130343414D01*
X110744869Y-130532385D01*
X110986119Y-130677070D01*
X111250960Y-130771909D01*
X111473000Y-130650624D01*
X111473000Y-129507000D01*
X111727000Y-129507000D01*
X111727000Y-130650624D01*
X111949040Y-130771909D01*
X112213881Y-130677070D01*
X112455131Y-130532385D01*
X112663519Y-130343414D01*
X112831037Y-130117420D01*
X112951246Y-129863087D01*
X112991904Y-129729039D01*
X112869915Y-129507000D01*
X111727000Y-129507000D01*
X111473000Y-129507000D01*
X110330085Y-129507000D01*
X110208096Y-129729039D01*
X109285000Y-129729039D01*
X109285000Y-126330000D01*
X110258017Y-126330000D01*
X110220147Y-126421426D01*
X110165000Y-126698665D01*
X110165000Y-126981335D01*
X110220147Y-127258574D01*
X110328320Y-127519727D01*
X110485363Y-127754759D01*
X110685241Y-127954637D01*
X110920273Y-128111680D01*
X110930865Y-128116067D01*
X110744869Y-128227615D01*
X110536481Y-128416586D01*
X110368963Y-128642580D01*
X110248754Y-128896913D01*
X110208096Y-129030961D01*
X110330085Y-129253000D01*
X111473000Y-129253000D01*
X111473000Y-129233000D01*
X111727000Y-129233000D01*
X111727000Y-129253000D01*
X112869915Y-129253000D01*
X112991904Y-129030961D01*
X112951246Y-128896913D01*
X112831037Y-128642580D01*
X112663519Y-128416586D01*
X112455131Y-128227615D01*
X112269135Y-128116067D01*
X112279727Y-128111680D01*
X112514759Y-127954637D01*
X112714637Y-127754759D01*
X112871680Y-127519727D01*
X112979853Y-127258574D01*
X113035000Y-126981335D01*
X113035000Y-126698665D01*
X112979853Y-126421426D01*
X112941983Y-126330000D01*
X113092678Y-126330000D01*
X113130000Y-126333676D01*
X113167322Y-126330000D01*
X113167333Y-126330000D01*
X113278986Y-126319003D01*
X113422247Y-126275546D01*
X113554276Y-126204974D01*
X113670001Y-126110001D01*
X113693804Y-126080997D01*
X114197160Y-125577642D01*
X114191977Y-125637881D01*
X114195000Y-125664250D01*
X114353750Y-125823000D01*
X114973000Y-125823000D01*
X114973000Y-125153750D01*
X114814250Y-124995000D01*
X114776290Y-124998512D01*
X115068526Y-124706276D01*
X115180283Y-124672375D01*
X115329497Y-124592618D01*
X115460284Y-124485284D01*
X115567618Y-124354497D01*
X115647375Y-124205283D01*
X115656561Y-124175000D01*
X116086928Y-124175000D01*
X116099188Y-124299482D01*
X116135498Y-124419180D01*
X116194463Y-124529494D01*
X116273815Y-124626185D01*
X116370506Y-124705537D01*
X116480820Y-124764502D01*
X116600518Y-124800812D01*
X116725000Y-124813072D01*
X116914250Y-124810000D01*
X117073000Y-124651250D01*
X117073000Y-123852000D01*
X116248750Y-123852000D01*
X116090000Y-124010750D01*
X116086928Y-124175000D01*
X115656561Y-124175000D01*
X115696488Y-124043377D01*
X115713072Y-123875000D01*
X115713072Y-123425000D01*
X115696488Y-123256623D01*
X115647375Y-123094717D01*
X115567618Y-122945503D01*
X115509758Y-122875000D01*
X115567618Y-122804497D01*
X115647375Y-122655283D01*
X115696488Y-122493377D01*
X115713072Y-122325000D01*
X115713072Y-122193487D01*
X115824702Y-122239726D01*
X116024661Y-122279500D01*
X116086928Y-122279500D01*
X116086928Y-122400000D01*
X116103512Y-122568377D01*
X116152625Y-122730283D01*
X116230700Y-122876351D01*
X116194463Y-122920506D01*
X116135498Y-123030820D01*
X116099188Y-123150518D01*
X116086928Y-123275000D01*
X116090000Y-123439250D01*
X116248750Y-123598000D01*
X117073000Y-123598000D01*
X117073000Y-123578000D01*
X117327000Y-123578000D01*
X117327000Y-123598000D01*
X117347000Y-123598000D01*
X117347000Y-123852000D01*
X117327000Y-123852000D01*
X117327000Y-124651250D01*
X117485750Y-124810000D01*
X117675000Y-124813072D01*
X117799482Y-124800812D01*
X117865869Y-124780674D01*
X117948320Y-124979727D01*
X118105363Y-125214759D01*
X118305241Y-125414637D01*
X118537759Y-125570000D01*
X118305241Y-125725363D01*
X118105363Y-125925241D01*
X117962975Y-126138340D01*
X117886315Y-126215000D01*
X117124801Y-126215000D01*
X117028072Y-126118271D01*
X117028072Y-125765000D01*
X117013218Y-125614181D01*
X116969225Y-125469158D01*
X116897786Y-125335504D01*
X116801644Y-125218356D01*
X116684496Y-125122214D01*
X116550842Y-125050775D01*
X116405819Y-125006782D01*
X116255000Y-124991928D01*
X115985000Y-124991928D01*
X115834181Y-125006782D01*
X115689158Y-125050775D01*
X115661451Y-125065584D01*
X115621442Y-125043559D01*
X115502202Y-125005774D01*
X115385750Y-124995000D01*
X115227000Y-125153750D01*
X115227000Y-125613462D01*
X115226782Y-125614181D01*
X115211928Y-125765000D01*
X115211928Y-126097000D01*
X114973000Y-126097000D01*
X114973000Y-126077000D01*
X114353750Y-126077000D01*
X114195000Y-126235750D01*
X114191977Y-126262119D01*
X114202699Y-126386742D01*
X114237527Y-126506879D01*
X114240625Y-126512851D01*
X114125518Y-126524188D01*
X114005820Y-126560498D01*
X113895506Y-126619463D01*
X113798815Y-126698815D01*
X113719463Y-126795506D01*
X113660498Y-126905820D01*
X113624188Y-127025518D01*
X113611928Y-127150000D01*
X113615000Y-127314250D01*
X113773750Y-127473000D01*
X114523000Y-127473000D01*
X114523000Y-127453000D01*
X114777000Y-127453000D01*
X114777000Y-127473000D01*
X114797000Y-127473000D01*
X114797000Y-127727000D01*
X114777000Y-127727000D01*
X114777000Y-127747000D01*
X114523000Y-127747000D01*
X114523000Y-127727000D01*
X113773750Y-127727000D01*
X113615000Y-127885750D01*
X113611928Y-128050000D01*
X113624188Y-128174482D01*
X113660498Y-128294180D01*
X113719463Y-128404494D01*
X113798815Y-128501185D01*
X113895506Y-128580537D01*
X114005820Y-128639502D01*
X114125518Y-128675812D01*
X114250000Y-128688072D01*
X114364250Y-128685000D01*
X114522998Y-128526252D01*
X114522998Y-128685000D01*
X114559225Y-128685000D01*
X114442843Y-128826812D01*
X114314236Y-129067419D01*
X114235040Y-129328493D01*
X114208299Y-129600000D01*
X114235040Y-129871507D01*
X114314236Y-130132581D01*
X114442843Y-130373188D01*
X114615919Y-130584081D01*
X114826812Y-130757157D01*
X115067419Y-130885764D01*
X115328493Y-130964960D01*
X115531963Y-130985000D01*
X118931971Y-130985000D01*
X119000000Y-130991700D01*
X119068029Y-130985000D01*
X119068037Y-130985000D01*
X119271507Y-130964960D01*
X119532581Y-130885764D01*
X119773188Y-130757157D01*
X119910407Y-130644544D01*
X120134759Y-130494637D01*
X120334637Y-130294759D01*
X120420882Y-130165684D01*
X120544302Y-130289103D01*
X120556782Y-130415819D01*
X120600775Y-130560842D01*
X120672214Y-130694496D01*
X120768356Y-130811644D01*
X120885504Y-130907786D01*
X121019158Y-130979225D01*
X121164181Y-131023218D01*
X121315000Y-131038072D01*
X121685000Y-131038072D01*
X121835819Y-131023218D01*
X121980842Y-130979225D01*
X122114496Y-130907786D01*
X122155835Y-130873859D01*
X122232086Y-130934876D01*
X122343121Y-130992473D01*
X122463258Y-131027301D01*
X122587881Y-131038023D01*
X122614250Y-131035000D01*
X122773000Y-130876250D01*
X122773000Y-130257000D01*
X122753000Y-130257000D01*
X122753000Y-130021802D01*
X122756730Y-130018072D01*
X123047000Y-130018072D01*
X123047000Y-130257000D01*
X123027000Y-130257000D01*
X123027000Y-130876250D01*
X123185750Y-131035000D01*
X123212119Y-131038023D01*
X123336742Y-131027301D01*
X123456879Y-130992473D01*
X123567914Y-130934876D01*
X123644165Y-130873859D01*
X123685504Y-130907786D01*
X123819158Y-130979225D01*
X123964181Y-131023218D01*
X124115000Y-131038072D01*
X124243092Y-131038072D01*
X124300000Y-131043677D01*
X124356908Y-131038072D01*
X124485000Y-131038072D01*
X124635819Y-131023218D01*
X124780842Y-130979225D01*
X124914496Y-130907786D01*
X125031644Y-130811644D01*
X125127786Y-130694496D01*
X125199225Y-130560842D01*
X125243218Y-130415819D01*
X125258072Y-130265000D01*
X125258072Y-129995000D01*
X125243218Y-129844181D01*
X125220716Y-129770000D01*
X126711928Y-129770000D01*
X126724188Y-129894482D01*
X126760498Y-130014180D01*
X126819463Y-130124494D01*
X126898815Y-130221185D01*
X126995506Y-130300537D01*
X127105820Y-130359502D01*
X127225518Y-130395812D01*
X127350000Y-130408072D01*
X127964250Y-130405000D01*
X128123000Y-130246250D01*
X128123000Y-128647000D01*
X128377000Y-128647000D01*
X128377000Y-130246250D01*
X128535750Y-130405000D01*
X129150000Y-130408072D01*
X129274482Y-130395812D01*
X129394180Y-130359502D01*
X129504494Y-130300537D01*
X129601185Y-130221185D01*
X129680537Y-130124494D01*
X129739502Y-130014180D01*
X129775812Y-129894482D01*
X129788072Y-129770000D01*
X129785000Y-128805750D01*
X129626250Y-128647000D01*
X128377000Y-128647000D01*
X128123000Y-128647000D01*
X126873750Y-128647000D01*
X126715000Y-128805750D01*
X126711928Y-129770000D01*
X125220716Y-129770000D01*
X125199225Y-129699158D01*
X125156914Y-129620000D01*
X125199225Y-129540842D01*
X125243218Y-129395819D01*
X125258072Y-129245000D01*
X125258072Y-129216729D01*
X125801122Y-128673680D01*
X125808745Y-128672929D01*
X125956582Y-128628084D01*
X126092829Y-128555258D01*
X126212251Y-128457251D01*
X126310258Y-128337829D01*
X126383084Y-128201582D01*
X126427929Y-128053745D01*
X126443072Y-127900000D01*
X126443072Y-127270000D01*
X126711928Y-127270000D01*
X126715000Y-128234250D01*
X126873750Y-128393000D01*
X128123000Y-128393000D01*
X128123000Y-126793750D01*
X128377000Y-126793750D01*
X128377000Y-128393000D01*
X129626250Y-128393000D01*
X129785000Y-128234250D01*
X129788072Y-127270000D01*
X129775812Y-127145518D01*
X129739502Y-127025820D01*
X129680537Y-126915506D01*
X129601185Y-126818815D01*
X129504494Y-126739463D01*
X129394180Y-126680498D01*
X129274482Y-126644188D01*
X129150000Y-126631928D01*
X128535750Y-126635000D01*
X128377000Y-126793750D01*
X128123000Y-126793750D01*
X127964250Y-126635000D01*
X127350000Y-126631928D01*
X127225518Y-126644188D01*
X127105820Y-126680498D01*
X126995506Y-126739463D01*
X126898815Y-126818815D01*
X126819463Y-126915506D01*
X126760498Y-127025820D01*
X126724188Y-127145518D01*
X126711928Y-127270000D01*
X126443072Y-127270000D01*
X126443072Y-126250000D01*
X126436951Y-126187851D01*
X126725615Y-125899186D01*
X126760498Y-126014180D01*
X126819463Y-126124494D01*
X126898815Y-126221185D01*
X126995506Y-126300537D01*
X127105820Y-126359502D01*
X127225518Y-126395812D01*
X127350000Y-126408072D01*
X129150000Y-126408072D01*
X129274482Y-126395812D01*
X129394180Y-126359502D01*
X129504494Y-126300537D01*
X129601185Y-126221185D01*
X129680537Y-126124494D01*
X129739502Y-126014180D01*
X129775812Y-125894482D01*
X129788072Y-125770000D01*
X129788072Y-124932058D01*
X129861343Y-124690516D01*
X129885000Y-124450322D01*
X129885000Y-116350319D01*
X129892911Y-116269999D01*
X129883611Y-116175574D01*
X129861343Y-115949484D01*
X129767852Y-115641285D01*
X129616031Y-115357248D01*
X129411714Y-115108286D01*
X129349320Y-115057081D01*
X128038072Y-113745834D01*
X128038072Y-112720000D01*
X128025812Y-112595518D01*
X127989502Y-112475820D01*
X127930537Y-112365506D01*
X127851185Y-112268815D01*
X127754494Y-112189463D01*
X127644180Y-112130498D01*
X127524482Y-112094188D01*
X127400000Y-112081928D01*
X125760145Y-112081928D01*
X125671507Y-112055040D01*
X125468037Y-112035000D01*
X125468029Y-112035000D01*
X125400000Y-112028300D01*
X125331971Y-112035000D01*
X124442699Y-112035000D01*
X124191335Y-111985000D01*
X123908665Y-111985000D01*
X123631426Y-112040147D01*
X123370273Y-112148320D01*
X123135241Y-112305363D01*
X123010000Y-112430604D01*
X123010000Y-111934801D01*
X124964802Y-109980000D01*
X125572443Y-109980000D01*
X125743674Y-110151231D01*
G36*
X121822000Y-121998000D02*
G01*
X121842000Y-121998000D01*
X121842000Y-122252000D01*
X121822000Y-122252000D01*
X121822000Y-123576250D01*
X121980750Y-123735000D01*
X121995000Y-123738072D01*
X122119482Y-123725812D01*
X122234180Y-123691019D01*
X120167297Y-125757901D01*
X120134759Y-125725363D01*
X119902241Y-125570000D01*
X120134759Y-125414637D01*
X120334637Y-125214759D01*
X120491680Y-124979727D01*
X120599853Y-124718574D01*
X120655000Y-124441335D01*
X120655000Y-124158665D01*
X120618688Y-123976113D01*
X120998631Y-123596171D01*
X121040506Y-123630537D01*
X121150820Y-123689502D01*
X121270518Y-123725812D01*
X121395000Y-123738072D01*
X121409250Y-123735000D01*
X121568000Y-123576250D01*
X121568000Y-122252000D01*
X121548000Y-122252000D01*
X121548000Y-121998000D01*
X121568000Y-121998000D01*
X121568000Y-121978000D01*
X121822000Y-121978000D01*
X121822000Y-121998000D01*
G37*
X121822000Y-121998000D02*
X121842000Y-121998000D01*
X121842000Y-122252000D01*
X121822000Y-122252000D01*
X121822000Y-123576250D01*
X121980750Y-123735000D01*
X121995000Y-123738072D01*
X122119482Y-123725812D01*
X122234180Y-123691019D01*
X120167297Y-125757901D01*
X120134759Y-125725363D01*
X119902241Y-125570000D01*
X120134759Y-125414637D01*
X120334637Y-125214759D01*
X120491680Y-124979727D01*
X120599853Y-124718574D01*
X120655000Y-124441335D01*
X120655000Y-124158665D01*
X120618688Y-123976113D01*
X120998631Y-123596171D01*
X121040506Y-123630537D01*
X121150820Y-123689502D01*
X121270518Y-123725812D01*
X121395000Y-123738072D01*
X121409250Y-123735000D01*
X121568000Y-123576250D01*
X121568000Y-122252000D01*
X121548000Y-122252000D01*
X121548000Y-121998000D01*
X121568000Y-121998000D01*
X121568000Y-121978000D01*
X121822000Y-121978000D01*
X121822000Y-121998000D01*
G36*
X110685241Y-118105363D02*
G01*
X110485363Y-118305241D01*
X110328320Y-118540273D01*
X110220147Y-118801426D01*
X110165000Y-119078665D01*
X110165000Y-119361335D01*
X110220147Y-119638574D01*
X110328320Y-119899727D01*
X110485363Y-120134759D01*
X110685241Y-120334637D01*
X110917759Y-120490000D01*
X110685241Y-120645363D01*
X110485363Y-120845241D01*
X110328320Y-121080273D01*
X110220147Y-121341426D01*
X110165000Y-121618665D01*
X110165000Y-121901335D01*
X110220147Y-122178574D01*
X110328320Y-122439727D01*
X110485363Y-122674759D01*
X110685241Y-122874637D01*
X110917759Y-123030000D01*
X110685241Y-123185363D01*
X110485363Y-123385241D01*
X110328320Y-123620273D01*
X110220147Y-123881426D01*
X110165000Y-124158665D01*
X110165000Y-124441335D01*
X110220147Y-124718574D01*
X110258017Y-124810000D01*
X109285000Y-124810000D01*
X109285000Y-119143685D01*
X110363686Y-118065000D01*
X110745649Y-118065000D01*
X110685241Y-118105363D01*
G37*
X110685241Y-118105363D02*
X110485363Y-118305241D01*
X110328320Y-118540273D01*
X110220147Y-118801426D01*
X110165000Y-119078665D01*
X110165000Y-119361335D01*
X110220147Y-119638574D01*
X110328320Y-119899727D01*
X110485363Y-120134759D01*
X110685241Y-120334637D01*
X110917759Y-120490000D01*
X110685241Y-120645363D01*
X110485363Y-120845241D01*
X110328320Y-121080273D01*
X110220147Y-121341426D01*
X110165000Y-121618665D01*
X110165000Y-121901335D01*
X110220147Y-122178574D01*
X110328320Y-122439727D01*
X110485363Y-122674759D01*
X110685241Y-122874637D01*
X110917759Y-123030000D01*
X110685241Y-123185363D01*
X110485363Y-123385241D01*
X110328320Y-123620273D01*
X110220147Y-123881426D01*
X110165000Y-124158665D01*
X110165000Y-124441335D01*
X110220147Y-124718574D01*
X110258017Y-124810000D01*
X109285000Y-124810000D01*
X109285000Y-119143685D01*
X110363686Y-118065000D01*
X110745649Y-118065000D01*
X110685241Y-118105363D01*
G36*
X124357753Y-108514454D02*
G01*
X124225724Y-108585026D01*
X124109999Y-108679999D01*
X124086201Y-108708997D01*
X121738998Y-111056201D01*
X121710000Y-111079999D01*
X121686202Y-111108997D01*
X121686201Y-111108998D01*
X121615026Y-111195724D01*
X121544454Y-111327754D01*
X121516516Y-111419856D01*
X121500998Y-111471014D01*
X121490001Y-111582667D01*
X121486324Y-111620000D01*
X121490001Y-111657332D01*
X121490000Y-114282677D01*
X121486324Y-114320000D01*
X121490000Y-114357322D01*
X121490000Y-114357332D01*
X121500997Y-114468985D01*
X121533810Y-114577157D01*
X121544454Y-114612246D01*
X121615026Y-114744276D01*
X121641820Y-114776924D01*
X121709999Y-114860001D01*
X121739003Y-114883804D01*
X122672998Y-115817799D01*
X122672998Y-115864748D01*
X122543250Y-115735000D01*
X122434476Y-115747594D01*
X122315751Y-115786968D01*
X122206988Y-115848748D01*
X122112369Y-115930559D01*
X122035527Y-116029258D01*
X121979418Y-116141051D01*
X121946196Y-116261643D01*
X121940000Y-116384250D01*
X122098750Y-116543000D01*
X122702000Y-116543000D01*
X122702000Y-116523000D01*
X122898000Y-116523000D01*
X122898000Y-116543000D01*
X122947000Y-116543000D01*
X122947000Y-116797000D01*
X122898000Y-116797000D01*
X122898000Y-117446250D01*
X122982851Y-117531101D01*
X122960799Y-117549199D01*
X122915005Y-117605000D01*
X122865826Y-117664924D01*
X122842933Y-117707754D01*
X122795254Y-117796954D01*
X122784645Y-117831928D01*
X122575000Y-117831928D01*
X122450518Y-117844188D01*
X122330820Y-117880498D01*
X122220506Y-117939463D01*
X122134556Y-118010000D01*
X121972723Y-118010000D01*
X121914496Y-117962214D01*
X121780842Y-117890775D01*
X121635819Y-117846782D01*
X121485000Y-117831928D01*
X121115000Y-117831928D01*
X121105300Y-117832883D01*
X121105300Y-116955750D01*
X121940000Y-116955750D01*
X121946196Y-117078357D01*
X121979418Y-117198949D01*
X122035527Y-117310742D01*
X122112369Y-117409441D01*
X122206988Y-117491252D01*
X122315751Y-117553032D01*
X122434476Y-117592406D01*
X122543250Y-117605000D01*
X122702000Y-117446250D01*
X122702000Y-116797000D01*
X122098750Y-116797000D01*
X121940000Y-116955750D01*
X121105300Y-116955750D01*
X121105300Y-116225422D01*
X121108976Y-116188099D01*
X121105300Y-116150776D01*
X121105300Y-116150767D01*
X121094303Y-116039114D01*
X121050846Y-115895853D01*
X120980274Y-115763824D01*
X120885301Y-115648099D01*
X120856304Y-115624302D01*
X120310699Y-115078697D01*
X120334637Y-115054759D01*
X120491680Y-114819727D01*
X120599853Y-114558574D01*
X120655000Y-114281335D01*
X120655000Y-113998665D01*
X120599853Y-113721426D01*
X120491680Y-113460273D01*
X120334637Y-113225241D01*
X120134759Y-113025363D01*
X119902241Y-112870000D01*
X120134759Y-112714637D01*
X120334637Y-112514759D01*
X120491680Y-112279727D01*
X120599853Y-112018574D01*
X120655000Y-111741335D01*
X120655000Y-111458665D01*
X120605000Y-111207301D01*
X120605000Y-110906996D01*
X120610765Y-110896210D01*
X120689961Y-110635136D01*
X120710001Y-110431666D01*
X120710001Y-110431658D01*
X120716701Y-110363629D01*
X120710001Y-110295600D01*
X120710001Y-108818684D01*
X120823685Y-108705000D01*
X122893037Y-108705000D01*
X123096507Y-108684960D01*
X123357581Y-108605764D01*
X123540350Y-108508072D01*
X124378792Y-108508072D01*
X124357753Y-108514454D01*
G37*
X124357753Y-108514454D02*
X124225724Y-108585026D01*
X124109999Y-108679999D01*
X124086201Y-108708997D01*
X121738998Y-111056201D01*
X121710000Y-111079999D01*
X121686202Y-111108997D01*
X121686201Y-111108998D01*
X121615026Y-111195724D01*
X121544454Y-111327754D01*
X121516516Y-111419856D01*
X121500998Y-111471014D01*
X121490001Y-111582667D01*
X121486324Y-111620000D01*
X121490001Y-111657332D01*
X121490000Y-114282677D01*
X121486324Y-114320000D01*
X121490000Y-114357322D01*
X121490000Y-114357332D01*
X121500997Y-114468985D01*
X121533810Y-114577157D01*
X121544454Y-114612246D01*
X121615026Y-114744276D01*
X121641820Y-114776924D01*
X121709999Y-114860001D01*
X121739003Y-114883804D01*
X122672998Y-115817799D01*
X122672998Y-115864748D01*
X122543250Y-115735000D01*
X122434476Y-115747594D01*
X122315751Y-115786968D01*
X122206988Y-115848748D01*
X122112369Y-115930559D01*
X122035527Y-116029258D01*
X121979418Y-116141051D01*
X121946196Y-116261643D01*
X121940000Y-116384250D01*
X122098750Y-116543000D01*
X122702000Y-116543000D01*
X122702000Y-116523000D01*
X122898000Y-116523000D01*
X122898000Y-116543000D01*
X122947000Y-116543000D01*
X122947000Y-116797000D01*
X122898000Y-116797000D01*
X122898000Y-117446250D01*
X122982851Y-117531101D01*
X122960799Y-117549199D01*
X122915005Y-117605000D01*
X122865826Y-117664924D01*
X122842933Y-117707754D01*
X122795254Y-117796954D01*
X122784645Y-117831928D01*
X122575000Y-117831928D01*
X122450518Y-117844188D01*
X122330820Y-117880498D01*
X122220506Y-117939463D01*
X122134556Y-118010000D01*
X121972723Y-118010000D01*
X121914496Y-117962214D01*
X121780842Y-117890775D01*
X121635819Y-117846782D01*
X121485000Y-117831928D01*
X121115000Y-117831928D01*
X121105300Y-117832883D01*
X121105300Y-116955750D01*
X121940000Y-116955750D01*
X121946196Y-117078357D01*
X121979418Y-117198949D01*
X122035527Y-117310742D01*
X122112369Y-117409441D01*
X122206988Y-117491252D01*
X122315751Y-117553032D01*
X122434476Y-117592406D01*
X122543250Y-117605000D01*
X122702000Y-117446250D01*
X122702000Y-116797000D01*
X122098750Y-116797000D01*
X121940000Y-116955750D01*
X121105300Y-116955750D01*
X121105300Y-116225422D01*
X121108976Y-116188099D01*
X121105300Y-116150776D01*
X121105300Y-116150767D01*
X121094303Y-116039114D01*
X121050846Y-115895853D01*
X120980274Y-115763824D01*
X120885301Y-115648099D01*
X120856304Y-115624302D01*
X120310699Y-115078697D01*
X120334637Y-115054759D01*
X120491680Y-114819727D01*
X120599853Y-114558574D01*
X120655000Y-114281335D01*
X120655000Y-113998665D01*
X120599853Y-113721426D01*
X120491680Y-113460273D01*
X120334637Y-113225241D01*
X120134759Y-113025363D01*
X119902241Y-112870000D01*
X120134759Y-112714637D01*
X120334637Y-112514759D01*
X120491680Y-112279727D01*
X120599853Y-112018574D01*
X120655000Y-111741335D01*
X120655000Y-111458665D01*
X120605000Y-111207301D01*
X120605000Y-110906996D01*
X120610765Y-110896210D01*
X120689961Y-110635136D01*
X120710001Y-110431666D01*
X120710001Y-110431658D01*
X120716701Y-110363629D01*
X120710001Y-110295600D01*
X120710001Y-108818684D01*
X120823685Y-108705000D01*
X122893037Y-108705000D01*
X123096507Y-108684960D01*
X123357581Y-108605764D01*
X123540350Y-108508072D01*
X124378792Y-108508072D01*
X124357753Y-108514454D01*
G36*
X108340000Y-103634250D02*
G01*
X108498750Y-103793000D01*
X113548000Y-103793000D01*
X113548000Y-103773000D01*
X113802000Y-103773000D01*
X113802000Y-103793000D01*
X118851250Y-103793000D01*
X119010000Y-103634250D01*
X119012201Y-99970000D01*
X119886928Y-99970000D01*
X119890000Y-100234250D01*
X120048750Y-100393000D01*
X122698000Y-100393000D01*
X122698000Y-99493750D01*
X122952000Y-99493750D01*
X122952000Y-100393000D01*
X125601250Y-100393000D01*
X125760000Y-100234250D01*
X125763072Y-99970000D01*
X125750812Y-99845518D01*
X125714502Y-99725820D01*
X125655537Y-99615506D01*
X125576185Y-99518815D01*
X125479494Y-99439463D01*
X125369180Y-99380498D01*
X125249482Y-99344188D01*
X125125000Y-99331928D01*
X123110750Y-99335000D01*
X122952000Y-99493750D01*
X122698000Y-99493750D01*
X122539250Y-99335000D01*
X120525000Y-99331928D01*
X120400518Y-99344188D01*
X120280820Y-99380498D01*
X120170506Y-99439463D01*
X120073815Y-99518815D01*
X119994463Y-99615506D01*
X119935498Y-99725820D01*
X119899188Y-99845518D01*
X119886928Y-99970000D01*
X119012201Y-99970000D01*
X119012916Y-98780000D01*
X126490000Y-98780000D01*
X126490000Y-100875817D01*
X126421507Y-100855040D01*
X126218037Y-100835000D01*
X126218029Y-100835000D01*
X126150000Y-100828300D01*
X126081971Y-100835000D01*
X125760340Y-100835000D01*
X125760000Y-100805750D01*
X125601250Y-100647000D01*
X122952000Y-100647000D01*
X122952000Y-100667000D01*
X122698000Y-100667000D01*
X122698000Y-100647000D01*
X120048750Y-100647000D01*
X119890000Y-100805750D01*
X119886928Y-101070000D01*
X119899188Y-101194482D01*
X119935498Y-101314180D01*
X119965335Y-101370000D01*
X119935498Y-101425820D01*
X119899188Y-101545518D01*
X119886928Y-101670000D01*
X119886928Y-102770000D01*
X119899188Y-102894482D01*
X119935498Y-103014180D01*
X119965335Y-103070000D01*
X119935498Y-103125820D01*
X119899188Y-103245518D01*
X119886928Y-103370000D01*
X119890000Y-103634250D01*
X120048750Y-103793000D01*
X122698000Y-103793000D01*
X122698000Y-103773000D01*
X122952000Y-103773000D01*
X122952000Y-103793000D01*
X122972000Y-103793000D01*
X122972000Y-104047000D01*
X122952000Y-104047000D01*
X122952000Y-104067000D01*
X122698000Y-104067000D01*
X122698000Y-104047000D01*
X120048750Y-104047000D01*
X119960750Y-104135000D01*
X119842699Y-104135000D01*
X119591335Y-104085000D01*
X119308665Y-104085000D01*
X119031426Y-104140147D01*
X118969887Y-104165637D01*
X118851250Y-104047000D01*
X113802000Y-104047000D01*
X113802000Y-109796250D01*
X113960750Y-109955000D01*
X114781727Y-109955571D01*
X114635901Y-110053009D01*
X114491738Y-110197172D01*
X114378470Y-110366690D01*
X114300449Y-110555048D01*
X114260675Y-110755007D01*
X114260675Y-110911928D01*
X114200000Y-110911928D01*
X114096052Y-110922166D01*
X114035040Y-110915367D01*
X114035040Y-110748061D01*
X113995266Y-110548102D01*
X113917245Y-110359744D01*
X113803977Y-110190226D01*
X113659814Y-110046063D01*
X113490296Y-109932795D01*
X113434547Y-109909703D01*
X113548000Y-109796250D01*
X113548000Y-104047000D01*
X108498750Y-104047000D01*
X108340000Y-104205750D01*
X108336928Y-109320000D01*
X108349188Y-109444482D01*
X108385498Y-109564180D01*
X108444463Y-109674494D01*
X108523815Y-109771185D01*
X108620506Y-109850537D01*
X108730820Y-109909502D01*
X108850518Y-109945812D01*
X108975000Y-109958072D01*
X112475600Y-109955636D01*
X112340266Y-110046063D01*
X112224401Y-110161928D01*
X110800000Y-110161928D01*
X110675518Y-110174188D01*
X110555820Y-110210498D01*
X110445506Y-110269463D01*
X110348815Y-110348815D01*
X110269463Y-110445506D01*
X110210498Y-110555820D01*
X110174188Y-110675518D01*
X110161928Y-110800000D01*
X110161928Y-112400000D01*
X110174188Y-112524482D01*
X110210498Y-112644180D01*
X110269463Y-112754494D01*
X110348815Y-112851185D01*
X110445506Y-112930537D01*
X110555820Y-112989502D01*
X110675518Y-113025812D01*
X110683961Y-113026643D01*
X110485363Y-113225241D01*
X110328320Y-113460273D01*
X110220147Y-113721426D01*
X110165000Y-113998665D01*
X110165000Y-114281335D01*
X110220147Y-114558574D01*
X110328320Y-114819727D01*
X110485363Y-115054759D01*
X110685241Y-115254637D01*
X110745649Y-115295000D01*
X109858029Y-115295000D01*
X109790000Y-115288300D01*
X109721971Y-115295000D01*
X109721963Y-115295000D01*
X109518493Y-115315040D01*
X109257419Y-115394236D01*
X109016812Y-115522843D01*
X108858766Y-115652548D01*
X108858764Y-115652550D01*
X108805919Y-115695919D01*
X108762550Y-115748764D01*
X107310000Y-117201315D01*
X107310000Y-98780000D01*
X108337084Y-98780000D01*
X108340000Y-103634250D01*
G37*
X108340000Y-103634250D02*
X108498750Y-103793000D01*
X113548000Y-103793000D01*
X113548000Y-103773000D01*
X113802000Y-103773000D01*
X113802000Y-103793000D01*
X118851250Y-103793000D01*
X119010000Y-103634250D01*
X119012201Y-99970000D01*
X119886928Y-99970000D01*
X119890000Y-100234250D01*
X120048750Y-100393000D01*
X122698000Y-100393000D01*
X122698000Y-99493750D01*
X122952000Y-99493750D01*
X122952000Y-100393000D01*
X125601250Y-100393000D01*
X125760000Y-100234250D01*
X125763072Y-99970000D01*
X125750812Y-99845518D01*
X125714502Y-99725820D01*
X125655537Y-99615506D01*
X125576185Y-99518815D01*
X125479494Y-99439463D01*
X125369180Y-99380498D01*
X125249482Y-99344188D01*
X125125000Y-99331928D01*
X123110750Y-99335000D01*
X122952000Y-99493750D01*
X122698000Y-99493750D01*
X122539250Y-99335000D01*
X120525000Y-99331928D01*
X120400518Y-99344188D01*
X120280820Y-99380498D01*
X120170506Y-99439463D01*
X120073815Y-99518815D01*
X119994463Y-99615506D01*
X119935498Y-99725820D01*
X119899188Y-99845518D01*
X119886928Y-99970000D01*
X119012201Y-99970000D01*
X119012916Y-98780000D01*
X126490000Y-98780000D01*
X126490000Y-100875817D01*
X126421507Y-100855040D01*
X126218037Y-100835000D01*
X126218029Y-100835000D01*
X126150000Y-100828300D01*
X126081971Y-100835000D01*
X125760340Y-100835000D01*
X125760000Y-100805750D01*
X125601250Y-100647000D01*
X122952000Y-100647000D01*
X122952000Y-100667000D01*
X122698000Y-100667000D01*
X122698000Y-100647000D01*
X120048750Y-100647000D01*
X119890000Y-100805750D01*
X119886928Y-101070000D01*
X119899188Y-101194482D01*
X119935498Y-101314180D01*
X119965335Y-101370000D01*
X119935498Y-101425820D01*
X119899188Y-101545518D01*
X119886928Y-101670000D01*
X119886928Y-102770000D01*
X119899188Y-102894482D01*
X119935498Y-103014180D01*
X119965335Y-103070000D01*
X119935498Y-103125820D01*
X119899188Y-103245518D01*
X119886928Y-103370000D01*
X119890000Y-103634250D01*
X120048750Y-103793000D01*
X122698000Y-103793000D01*
X122698000Y-103773000D01*
X122952000Y-103773000D01*
X122952000Y-103793000D01*
X122972000Y-103793000D01*
X122972000Y-104047000D01*
X122952000Y-104047000D01*
X122952000Y-104067000D01*
X122698000Y-104067000D01*
X122698000Y-104047000D01*
X120048750Y-104047000D01*
X119960750Y-104135000D01*
X119842699Y-104135000D01*
X119591335Y-104085000D01*
X119308665Y-104085000D01*
X119031426Y-104140147D01*
X118969887Y-104165637D01*
X118851250Y-104047000D01*
X113802000Y-104047000D01*
X113802000Y-109796250D01*
X113960750Y-109955000D01*
X114781727Y-109955571D01*
X114635901Y-110053009D01*
X114491738Y-110197172D01*
X114378470Y-110366690D01*
X114300449Y-110555048D01*
X114260675Y-110755007D01*
X114260675Y-110911928D01*
X114200000Y-110911928D01*
X114096052Y-110922166D01*
X114035040Y-110915367D01*
X114035040Y-110748061D01*
X113995266Y-110548102D01*
X113917245Y-110359744D01*
X113803977Y-110190226D01*
X113659814Y-110046063D01*
X113490296Y-109932795D01*
X113434547Y-109909703D01*
X113548000Y-109796250D01*
X113548000Y-104047000D01*
X108498750Y-104047000D01*
X108340000Y-104205750D01*
X108336928Y-109320000D01*
X108349188Y-109444482D01*
X108385498Y-109564180D01*
X108444463Y-109674494D01*
X108523815Y-109771185D01*
X108620506Y-109850537D01*
X108730820Y-109909502D01*
X108850518Y-109945812D01*
X108975000Y-109958072D01*
X112475600Y-109955636D01*
X112340266Y-110046063D01*
X112224401Y-110161928D01*
X110800000Y-110161928D01*
X110675518Y-110174188D01*
X110555820Y-110210498D01*
X110445506Y-110269463D01*
X110348815Y-110348815D01*
X110269463Y-110445506D01*
X110210498Y-110555820D01*
X110174188Y-110675518D01*
X110161928Y-110800000D01*
X110161928Y-112400000D01*
X110174188Y-112524482D01*
X110210498Y-112644180D01*
X110269463Y-112754494D01*
X110348815Y-112851185D01*
X110445506Y-112930537D01*
X110555820Y-112989502D01*
X110675518Y-113025812D01*
X110683961Y-113026643D01*
X110485363Y-113225241D01*
X110328320Y-113460273D01*
X110220147Y-113721426D01*
X110165000Y-113998665D01*
X110165000Y-114281335D01*
X110220147Y-114558574D01*
X110328320Y-114819727D01*
X110485363Y-115054759D01*
X110685241Y-115254637D01*
X110745649Y-115295000D01*
X109858029Y-115295000D01*
X109790000Y-115288300D01*
X109721971Y-115295000D01*
X109721963Y-115295000D01*
X109518493Y-115315040D01*
X109257419Y-115394236D01*
X109016812Y-115522843D01*
X108858766Y-115652548D01*
X108858764Y-115652550D01*
X108805919Y-115695919D01*
X108762550Y-115748764D01*
X107310000Y-117201315D01*
X107310000Y-98780000D01*
X108337084Y-98780000D01*
X108340000Y-103634250D01*
%TD*%
M02*
