M48
; DRILL file {KiCad 5.1.5+dfsg1-2build2} date Tue 06 Sep 2022 02:28:31 PM EDT
; FORMAT={-:-/ absolute / inch / decimal}
; #@! TF.CreationDate,2022-09-06T14:28:31-04:00
; #@! TF.GenerationSoftware,Kicad,Pcbnew,5.1.5+dfsg1-2build2
FMAT,2
INCH
T1C0.0157
T2C0.0315
%
G90
G05
T1
X4.3189Y-4.8236
X4.3189Y-4.9909
X4.4488Y-4.5756
X4.4488Y-4.3642
X4.4591Y-4.779
X4.4764Y-4.9732
X4.4921Y-4.3642
X4.5392Y-4.3644
X4.5709Y-4.8681
X4.5719Y-4.7734
X4.5807Y-4.3652
X4.6247Y-4.3673
X4.6379Y-4.4569
X4.7008Y-4.0224
X4.7008Y-4.0854
X4.7731Y-4.8979
X4.9167Y-4.8734
T2
X4.248Y-4.1563
X4.248Y-5.1661
X4.25Y-3.9102
X4.2717Y-4.3571
X4.7028Y-3.9575
X4.7028Y-4.1543
X4.7736Y-4.3689
X4.8839Y-4.4654
X4.9469Y-5.0945
X5.1083Y-4.3886
X5.2008Y-5.1484
X4.3937Y-4.3937
X4.3937Y-4.4937
X4.3937Y-4.5937
X4.3937Y-4.6937
X4.3937Y-4.7937
X4.3937Y-4.8937
X4.3937Y-4.9937
X4.3937Y-5.0937
X4.6937Y-4.3937
X4.6937Y-4.4937
X4.6937Y-4.5937
X4.6937Y-4.6937
X4.6937Y-4.7937
X4.6937Y-4.8937
X4.6937Y-4.9937
X4.6937Y-5.0937
T0
M30
