%TF.GenerationSoftware,KiCad,Pcbnew,5.1.5+dfsg1-2build2*%
%TF.CreationDate,2022-09-06T14:28:28-04:00*%
%TF.ProjectId,salt_replacement,73616c74-5f72-4657-906c-6163656d656e,1.1.0*%
%TF.SameCoordinates,Original*%
%TF.FileFunction,Copper,L2,Bot*%
%TF.FilePolarity,Positive*%
%FSLAX46Y46*%
G04 Gerber Fmt 4.6, Leading zero omitted, Abs format (unit mm)*
G04 Created by KiCad (PCBNEW 5.1.5+dfsg1-2build2) date 2022-09-06 14:28:28*
%MOMM*%
%LPD*%
G04 APERTURE LIST*
%TA.AperFunction,ComponentPad*%
%ADD10R,1.600000X1.600000*%
%TD*%
%TA.AperFunction,ComponentPad*%
%ADD11O,1.600000X1.600000*%
%TD*%
%TA.AperFunction,ViaPad*%
%ADD12C,0.800000*%
%TD*%
%TA.AperFunction,ViaPad*%
%ADD13C,1.600000*%
%TD*%
%TA.AperFunction,Conductor*%
%ADD14C,1.500000*%
%TD*%
%TA.AperFunction,Conductor*%
%ADD15C,0.250000*%
%TD*%
%TA.AperFunction,Conductor*%
%ADD16C,0.254000*%
%TD*%
G04 APERTURE END LIST*
D10*
%TO.P,J1,1*%
%TO.N,N/C*%
X111600000Y-111600000D03*
D11*
%TO.P,J1,9*%
%TO.N,Net-(J1-Pad9)*%
X119220000Y-129380000D03*
%TO.P,J1,2*%
%TO.N,N/C*%
X111600000Y-114140000D03*
%TO.P,J1,10*%
%TO.N,Net-(J1-Pad10)*%
X119220000Y-126840000D03*
%TO.P,J1,3*%
%TO.N,+5V*%
X111600000Y-116680000D03*
%TO.P,J1,11*%
%TO.N,/CASSETTE_DATA_IN*%
X119220000Y-124300000D03*
%TO.P,J1,4*%
%TO.N,/SERIAL_IN_TTL*%
X111600000Y-119220000D03*
%TO.P,J1,12*%
%TO.N,/SERIAL_OUT_RS232*%
X119220000Y-121760000D03*
%TO.P,J1,5*%
%TO.N,/CD_IN_TTL*%
X111600000Y-121760000D03*
%TO.P,J1,13*%
%TO.N,/CD_IN_RS232*%
X119220000Y-119220000D03*
%TO.P,J1,6*%
%TO.N,/SERIAL_OUT_TTL*%
X111600000Y-124300000D03*
%TO.P,J1,14*%
%TO.N,/SERIAL_IN_RS232*%
X119220000Y-116680000D03*
%TO.P,J1,7*%
%TO.N,/CASSETTE_DATA_IN_TTL*%
X111600000Y-126840000D03*
%TO.P,J1,15*%
%TO.N,N/C*%
X119220000Y-114140000D03*
%TO.P,J1,8*%
%TO.N,GND*%
X111600000Y-129380000D03*
%TO.P,J1,16*%
%TO.N,VCC*%
X119220000Y-111600000D03*
%TD*%
D12*
%TO.N,+5V*%
X113000040Y-110850000D03*
D13*
X132100000Y-130770000D03*
X107900000Y-131220002D03*
D12*
%TO.N,GND*%
X116100000Y-123650000D03*
X114100000Y-110850000D03*
D13*
X119450000Y-100520000D03*
D12*
X121236650Y-124406650D03*
D13*
X129750000Y-111470000D03*
X121250000Y-110970000D03*
X108500000Y-110670000D03*
X107900000Y-105570000D03*
X107950000Y-99320000D03*
D12*
X119400001Y-103769999D03*
X119400000Y-102170000D03*
D13*
X125650000Y-129400000D03*
D12*
X113700000Y-126320000D03*
X109700000Y-126770000D03*
X109700000Y-122520000D03*
%TO.N,/SERIAL_IN_TTL*%
X117803000Y-113205200D03*
X116126600Y-121244500D03*
%TO.N,/CD_IN_TTL*%
X116350000Y-110875623D03*
%TO.N,/CD_IN_RS232*%
X115295675Y-110856946D03*
%TO.N,/SERIAL_OUT_TTL*%
X117468000Y-110929600D03*
D13*
%TO.N,Net-(D1-Pad1)*%
X119450000Y-105520000D03*
X124050000Y-113420000D03*
D12*
%TO.N,Net-(C8-Pad2)*%
X113262100Y-121385400D03*
X113000000Y-116219998D03*
%TO.N,/CASSETTE_DATA_IN_TTL*%
X124885000Y-123785000D03*
%TD*%
D14*
%TO.N,+5V*%
X132100000Y-130770000D02*
X130968630Y-130770000D01*
X130968630Y-130770000D02*
X130518628Y-131220002D01*
X130518628Y-131220002D02*
X109031370Y-131220002D01*
X109031370Y-131220002D02*
X107900000Y-131220002D01*
D15*
%TO.N,GND*%
X114100000Y-110850000D02*
X114100000Y-121100000D01*
X114100000Y-121100000D02*
X115600000Y-122600000D01*
X115600000Y-123150000D02*
X116100000Y-123650000D01*
X115600000Y-122600000D02*
X115600000Y-123150000D01*
D14*
X108500000Y-127411370D02*
X108500000Y-111801370D01*
X108500000Y-111801370D02*
X108500000Y-110670000D01*
X110468630Y-129380000D02*
X108500000Y-127411370D01*
X111600000Y-129380000D02*
X110468630Y-129380000D01*
D15*
%TO.N,/SERIAL_IN_TTL*%
X117803000Y-119568100D02*
X117803000Y-113205200D01*
X116126600Y-121244500D02*
X117803000Y-119568100D01*
%TO.N,/CD_IN_TTL*%
X110190000Y-121760000D02*
X111600000Y-121760000D01*
X109950000Y-121520000D02*
X110190000Y-121760000D01*
X110550000Y-109820000D02*
X109950000Y-110420000D01*
X115860062Y-109820000D02*
X110550000Y-109820000D01*
X109950000Y-110420000D02*
X109950000Y-121520000D01*
X116350000Y-110309938D02*
X115860062Y-109820000D01*
X116350000Y-110875623D02*
X116350000Y-110309938D01*
%TO.N,/CD_IN_RS232*%
X116410300Y-122029700D02*
X115870300Y-122029700D01*
X119220000Y-119220000D02*
X116410300Y-122029700D01*
X115295675Y-121455075D02*
X115295675Y-110856946D01*
X115870300Y-122029700D02*
X115295675Y-121455075D01*
%TO.N,/SERIAL_OUT_TTL*%
X112725300Y-124300000D02*
X111600000Y-124300000D01*
X112883300Y-124458000D02*
X112725300Y-124300000D01*
X116693002Y-124458000D02*
X112883300Y-124458000D01*
X119760001Y-125425001D02*
X117660003Y-125425001D01*
X120364200Y-124820802D02*
X119760001Y-125425001D01*
X120364200Y-113689300D02*
X120364200Y-124820802D01*
X118850400Y-112870000D02*
X119544900Y-112870000D01*
X117468000Y-111487600D02*
X118850400Y-112870000D01*
X117660003Y-125425001D02*
X116693002Y-124458000D01*
X119544900Y-112870000D02*
X120364200Y-113689300D01*
X117468000Y-110929600D02*
X117468000Y-111487600D01*
D14*
%TO.N,Net-(D1-Pad1)*%
X119450000Y-106651370D02*
X124050000Y-111251370D01*
X119450000Y-105520000D02*
X119450000Y-106651370D01*
X124050000Y-111251370D02*
X124050000Y-113420000D01*
D15*
%TO.N,Net-(C8-Pad2)*%
X113262100Y-116482098D02*
X113000000Y-116219998D01*
X113262100Y-121385400D02*
X113262100Y-116482098D01*
%TO.N,/CASSETTE_DATA_IN_TTL*%
X124900000Y-123770000D02*
X124900000Y-123750000D01*
X120450001Y-128219999D02*
X124885000Y-123785000D01*
X112979999Y-128219999D02*
X120450001Y-128219999D01*
X111600000Y-126840000D02*
X112979999Y-128219999D01*
X124885000Y-123785000D02*
X124900000Y-123770000D01*
%TD*%
D16*
%TO.N,GND*%
G36*
X126490001Y-108187571D02*
G01*
X126486807Y-108220000D01*
X126499550Y-108349383D01*
X126537290Y-108473793D01*
X126598575Y-108588450D01*
X126681052Y-108688948D01*
X126781550Y-108771425D01*
X126896207Y-108832710D01*
X127020617Y-108870450D01*
X127117581Y-108880000D01*
X127150000Y-108883193D01*
X127182419Y-108880000D01*
X131476620Y-108880000D01*
X133590000Y-110993381D01*
X133590001Y-131759522D01*
X133140200Y-131759196D01*
X133214637Y-131684759D01*
X133371680Y-131449727D01*
X133479853Y-131188574D01*
X133535000Y-130911335D01*
X133535000Y-130628665D01*
X133479853Y-130351426D01*
X133371680Y-130090273D01*
X133214637Y-129855241D01*
X133014759Y-129655363D01*
X132779727Y-129498320D01*
X132518574Y-129390147D01*
X132241335Y-129335000D01*
X131958665Y-129335000D01*
X131707301Y-129385000D01*
X131036659Y-129385000D01*
X130968630Y-129378300D01*
X130900601Y-129385000D01*
X130900593Y-129385000D01*
X130720522Y-129402735D01*
X130697122Y-129405040D01*
X130566586Y-129444638D01*
X130436049Y-129484236D01*
X130195442Y-129612843D01*
X129984549Y-129785919D01*
X129944267Y-129835002D01*
X120584764Y-129835002D01*
X120599853Y-129798574D01*
X120655000Y-129521335D01*
X120655000Y-129238665D01*
X120601225Y-128968323D01*
X120742248Y-128925545D01*
X120874277Y-128854973D01*
X120990002Y-128760000D01*
X121013805Y-128730996D01*
X124924802Y-124820000D01*
X124986939Y-124820000D01*
X125186898Y-124780226D01*
X125375256Y-124702205D01*
X125544774Y-124588937D01*
X125688937Y-124444774D01*
X125802205Y-124275256D01*
X125880226Y-124086898D01*
X125920000Y-123886939D01*
X125920000Y-123683061D01*
X125880226Y-123483102D01*
X125802205Y-123294744D01*
X125688937Y-123125226D01*
X125544774Y-122981063D01*
X125375256Y-122867795D01*
X125186898Y-122789774D01*
X124986939Y-122750000D01*
X124783061Y-122750000D01*
X124583102Y-122789774D01*
X124394744Y-122867795D01*
X124225226Y-122981063D01*
X124081063Y-123125226D01*
X123967795Y-123294744D01*
X123889774Y-123483102D01*
X123850000Y-123683061D01*
X123850000Y-123745198D01*
X120655000Y-126940199D01*
X120655000Y-126698665D01*
X120599853Y-126421426D01*
X120491680Y-126160273D01*
X120334637Y-125925241D01*
X120334600Y-125925204D01*
X120875208Y-125384597D01*
X120904201Y-125360803D01*
X120927995Y-125331810D01*
X120927999Y-125331806D01*
X120999173Y-125245079D01*
X120999174Y-125245078D01*
X121069746Y-125113049D01*
X121113203Y-124969788D01*
X121124200Y-124858135D01*
X121124200Y-124858126D01*
X121127876Y-124820803D01*
X121124200Y-124783480D01*
X121124200Y-113726622D01*
X121127876Y-113689299D01*
X121124200Y-113651976D01*
X121124200Y-113651967D01*
X121113203Y-113540314D01*
X121069746Y-113397053D01*
X120999174Y-113265024D01*
X120904201Y-113149299D01*
X120875204Y-113125502D01*
X120299549Y-112549847D01*
X120334637Y-112514759D01*
X120491680Y-112279727D01*
X120599853Y-112018574D01*
X120655000Y-111741335D01*
X120655000Y-111458665D01*
X120599853Y-111181426D01*
X120491680Y-110920273D01*
X120334637Y-110685241D01*
X120134759Y-110485363D01*
X119899727Y-110328320D01*
X119638574Y-110220147D01*
X119361335Y-110165000D01*
X119078665Y-110165000D01*
X118801426Y-110220147D01*
X118540273Y-110328320D01*
X118381782Y-110434220D01*
X118271937Y-110269826D01*
X118127774Y-110125663D01*
X117958256Y-110012395D01*
X117769898Y-109934374D01*
X117569939Y-109894600D01*
X117366061Y-109894600D01*
X117166102Y-109934374D01*
X117039125Y-109986970D01*
X117027706Y-109965606D01*
X116984974Y-109885661D01*
X116948011Y-109840623D01*
X116890001Y-109769937D01*
X116860997Y-109746134D01*
X116423866Y-109309003D01*
X116400063Y-109279999D01*
X116284338Y-109185026D01*
X116152309Y-109114454D01*
X116009048Y-109070997D01*
X115897395Y-109060000D01*
X115897384Y-109060000D01*
X115860062Y-109056324D01*
X115822740Y-109060000D01*
X110587322Y-109060000D01*
X110549999Y-109056324D01*
X110512676Y-109060000D01*
X110512667Y-109060000D01*
X110401014Y-109070997D01*
X110257753Y-109114454D01*
X110125723Y-109185026D01*
X110042083Y-109253668D01*
X110009999Y-109279999D01*
X109986200Y-109308998D01*
X109439002Y-109856197D01*
X109409999Y-109879999D01*
X109354871Y-109947174D01*
X109315026Y-109995724D01*
X109275565Y-110069550D01*
X109244454Y-110127754D01*
X109200997Y-110271015D01*
X109190000Y-110382668D01*
X109190000Y-110382678D01*
X109186324Y-110420000D01*
X109190000Y-110457322D01*
X109190001Y-121482668D01*
X109186324Y-121520000D01*
X109200998Y-121668985D01*
X109244454Y-121812246D01*
X109315026Y-121944276D01*
X109386201Y-122031002D01*
X109410000Y-122060001D01*
X109438998Y-122083799D01*
X109626196Y-122270997D01*
X109649999Y-122300001D01*
X109765724Y-122394974D01*
X109897753Y-122465546D01*
X110041014Y-122509003D01*
X110152667Y-122520000D01*
X110152676Y-122520000D01*
X110189999Y-122523676D01*
X110227322Y-122520000D01*
X110381957Y-122520000D01*
X110485363Y-122674759D01*
X110685241Y-122874637D01*
X110917759Y-123030000D01*
X110685241Y-123185363D01*
X110485363Y-123385241D01*
X110328320Y-123620273D01*
X110220147Y-123881426D01*
X110165000Y-124158665D01*
X110165000Y-124441335D01*
X110220147Y-124718574D01*
X110328320Y-124979727D01*
X110485363Y-125214759D01*
X110685241Y-125414637D01*
X110917759Y-125570000D01*
X110685241Y-125725363D01*
X110485363Y-125925241D01*
X110328320Y-126160273D01*
X110220147Y-126421426D01*
X110165000Y-126698665D01*
X110165000Y-126981335D01*
X110220147Y-127258574D01*
X110328320Y-127519727D01*
X110485363Y-127754759D01*
X110685241Y-127954637D01*
X110920273Y-128111680D01*
X110930865Y-128116067D01*
X110744869Y-128227615D01*
X110536481Y-128416586D01*
X110368963Y-128642580D01*
X110248754Y-128896913D01*
X110208096Y-129030961D01*
X110330085Y-129253000D01*
X111473000Y-129253000D01*
X111473000Y-129233000D01*
X111727000Y-129233000D01*
X111727000Y-129253000D01*
X112869915Y-129253000D01*
X112991904Y-129030961D01*
X112977487Y-128983428D01*
X112979998Y-128983675D01*
X113017321Y-128979999D01*
X117836453Y-128979999D01*
X117785000Y-129238665D01*
X117785000Y-129521335D01*
X117840147Y-129798574D01*
X117855236Y-129835002D01*
X112959764Y-129835002D01*
X112991904Y-129729039D01*
X112869915Y-129507000D01*
X111727000Y-129507000D01*
X111727000Y-129527000D01*
X111473000Y-129527000D01*
X111473000Y-129507000D01*
X110330085Y-129507000D01*
X110208096Y-129729039D01*
X110240236Y-129835002D01*
X108292699Y-129835002D01*
X108041335Y-129785002D01*
X107758665Y-129785002D01*
X107481426Y-129840149D01*
X107310000Y-129911156D01*
X107310000Y-105378665D01*
X118015000Y-105378665D01*
X118015000Y-105661335D01*
X118065000Y-105912699D01*
X118065000Y-106583341D01*
X118058300Y-106651370D01*
X118065000Y-106719399D01*
X118065000Y-106719407D01*
X118085040Y-106922877D01*
X118164236Y-107183951D01*
X118292844Y-107424558D01*
X118422548Y-107582603D01*
X118422551Y-107582606D01*
X118465920Y-107635451D01*
X118518764Y-107678819D01*
X122665000Y-111825056D01*
X122665001Y-113027297D01*
X122615000Y-113278665D01*
X122615000Y-113561335D01*
X122670147Y-113838574D01*
X122778320Y-114099727D01*
X122935363Y-114334759D01*
X123135241Y-114534637D01*
X123370273Y-114691680D01*
X123631426Y-114799853D01*
X123908665Y-114855000D01*
X124191335Y-114855000D01*
X124468574Y-114799853D01*
X124729727Y-114691680D01*
X124964759Y-114534637D01*
X125164637Y-114334759D01*
X125321680Y-114099727D01*
X125429853Y-113838574D01*
X125485000Y-113561335D01*
X125485000Y-113278665D01*
X125435000Y-113027301D01*
X125435000Y-111319396D01*
X125441700Y-111251369D01*
X125435000Y-111183342D01*
X125435000Y-111183333D01*
X125414960Y-110979863D01*
X125335764Y-110718789D01*
X125207157Y-110478182D01*
X125159408Y-110420000D01*
X125077452Y-110320136D01*
X125077445Y-110320129D01*
X125034080Y-110267289D01*
X124981241Y-110223925D01*
X120835000Y-106077685D01*
X120835000Y-105912699D01*
X120885000Y-105661335D01*
X120885000Y-105378665D01*
X120829853Y-105101426D01*
X120721680Y-104840273D01*
X120564637Y-104605241D01*
X120364759Y-104405363D01*
X120129727Y-104248320D01*
X119868574Y-104140147D01*
X119591335Y-104085000D01*
X119308665Y-104085000D01*
X119031426Y-104140147D01*
X118770273Y-104248320D01*
X118535241Y-104405363D01*
X118335363Y-104605241D01*
X118178320Y-104840273D01*
X118070147Y-105101426D01*
X118015000Y-105378665D01*
X107310000Y-105378665D01*
X107310000Y-98780000D01*
X126490000Y-98780000D01*
X126490001Y-108187571D01*
G37*
X126490001Y-108187571D02*
X126486807Y-108220000D01*
X126499550Y-108349383D01*
X126537290Y-108473793D01*
X126598575Y-108588450D01*
X126681052Y-108688948D01*
X126781550Y-108771425D01*
X126896207Y-108832710D01*
X127020617Y-108870450D01*
X127117581Y-108880000D01*
X127150000Y-108883193D01*
X127182419Y-108880000D01*
X131476620Y-108880000D01*
X133590000Y-110993381D01*
X133590001Y-131759522D01*
X133140200Y-131759196D01*
X133214637Y-131684759D01*
X133371680Y-131449727D01*
X133479853Y-131188574D01*
X133535000Y-130911335D01*
X133535000Y-130628665D01*
X133479853Y-130351426D01*
X133371680Y-130090273D01*
X133214637Y-129855241D01*
X133014759Y-129655363D01*
X132779727Y-129498320D01*
X132518574Y-129390147D01*
X132241335Y-129335000D01*
X131958665Y-129335000D01*
X131707301Y-129385000D01*
X131036659Y-129385000D01*
X130968630Y-129378300D01*
X130900601Y-129385000D01*
X130900593Y-129385000D01*
X130720522Y-129402735D01*
X130697122Y-129405040D01*
X130566586Y-129444638D01*
X130436049Y-129484236D01*
X130195442Y-129612843D01*
X129984549Y-129785919D01*
X129944267Y-129835002D01*
X120584764Y-129835002D01*
X120599853Y-129798574D01*
X120655000Y-129521335D01*
X120655000Y-129238665D01*
X120601225Y-128968323D01*
X120742248Y-128925545D01*
X120874277Y-128854973D01*
X120990002Y-128760000D01*
X121013805Y-128730996D01*
X124924802Y-124820000D01*
X124986939Y-124820000D01*
X125186898Y-124780226D01*
X125375256Y-124702205D01*
X125544774Y-124588937D01*
X125688937Y-124444774D01*
X125802205Y-124275256D01*
X125880226Y-124086898D01*
X125920000Y-123886939D01*
X125920000Y-123683061D01*
X125880226Y-123483102D01*
X125802205Y-123294744D01*
X125688937Y-123125226D01*
X125544774Y-122981063D01*
X125375256Y-122867795D01*
X125186898Y-122789774D01*
X124986939Y-122750000D01*
X124783061Y-122750000D01*
X124583102Y-122789774D01*
X124394744Y-122867795D01*
X124225226Y-122981063D01*
X124081063Y-123125226D01*
X123967795Y-123294744D01*
X123889774Y-123483102D01*
X123850000Y-123683061D01*
X123850000Y-123745198D01*
X120655000Y-126940199D01*
X120655000Y-126698665D01*
X120599853Y-126421426D01*
X120491680Y-126160273D01*
X120334637Y-125925241D01*
X120334600Y-125925204D01*
X120875208Y-125384597D01*
X120904201Y-125360803D01*
X120927995Y-125331810D01*
X120927999Y-125331806D01*
X120999173Y-125245079D01*
X120999174Y-125245078D01*
X121069746Y-125113049D01*
X121113203Y-124969788D01*
X121124200Y-124858135D01*
X121124200Y-124858126D01*
X121127876Y-124820803D01*
X121124200Y-124783480D01*
X121124200Y-113726622D01*
X121127876Y-113689299D01*
X121124200Y-113651976D01*
X121124200Y-113651967D01*
X121113203Y-113540314D01*
X121069746Y-113397053D01*
X120999174Y-113265024D01*
X120904201Y-113149299D01*
X120875204Y-113125502D01*
X120299549Y-112549847D01*
X120334637Y-112514759D01*
X120491680Y-112279727D01*
X120599853Y-112018574D01*
X120655000Y-111741335D01*
X120655000Y-111458665D01*
X120599853Y-111181426D01*
X120491680Y-110920273D01*
X120334637Y-110685241D01*
X120134759Y-110485363D01*
X119899727Y-110328320D01*
X119638574Y-110220147D01*
X119361335Y-110165000D01*
X119078665Y-110165000D01*
X118801426Y-110220147D01*
X118540273Y-110328320D01*
X118381782Y-110434220D01*
X118271937Y-110269826D01*
X118127774Y-110125663D01*
X117958256Y-110012395D01*
X117769898Y-109934374D01*
X117569939Y-109894600D01*
X117366061Y-109894600D01*
X117166102Y-109934374D01*
X117039125Y-109986970D01*
X117027706Y-109965606D01*
X116984974Y-109885661D01*
X116948011Y-109840623D01*
X116890001Y-109769937D01*
X116860997Y-109746134D01*
X116423866Y-109309003D01*
X116400063Y-109279999D01*
X116284338Y-109185026D01*
X116152309Y-109114454D01*
X116009048Y-109070997D01*
X115897395Y-109060000D01*
X115897384Y-109060000D01*
X115860062Y-109056324D01*
X115822740Y-109060000D01*
X110587322Y-109060000D01*
X110549999Y-109056324D01*
X110512676Y-109060000D01*
X110512667Y-109060000D01*
X110401014Y-109070997D01*
X110257753Y-109114454D01*
X110125723Y-109185026D01*
X110042083Y-109253668D01*
X110009999Y-109279999D01*
X109986200Y-109308998D01*
X109439002Y-109856197D01*
X109409999Y-109879999D01*
X109354871Y-109947174D01*
X109315026Y-109995724D01*
X109275565Y-110069550D01*
X109244454Y-110127754D01*
X109200997Y-110271015D01*
X109190000Y-110382668D01*
X109190000Y-110382678D01*
X109186324Y-110420000D01*
X109190000Y-110457322D01*
X109190001Y-121482668D01*
X109186324Y-121520000D01*
X109200998Y-121668985D01*
X109244454Y-121812246D01*
X109315026Y-121944276D01*
X109386201Y-122031002D01*
X109410000Y-122060001D01*
X109438998Y-122083799D01*
X109626196Y-122270997D01*
X109649999Y-122300001D01*
X109765724Y-122394974D01*
X109897753Y-122465546D01*
X110041014Y-122509003D01*
X110152667Y-122520000D01*
X110152676Y-122520000D01*
X110189999Y-122523676D01*
X110227322Y-122520000D01*
X110381957Y-122520000D01*
X110485363Y-122674759D01*
X110685241Y-122874637D01*
X110917759Y-123030000D01*
X110685241Y-123185363D01*
X110485363Y-123385241D01*
X110328320Y-123620273D01*
X110220147Y-123881426D01*
X110165000Y-124158665D01*
X110165000Y-124441335D01*
X110220147Y-124718574D01*
X110328320Y-124979727D01*
X110485363Y-125214759D01*
X110685241Y-125414637D01*
X110917759Y-125570000D01*
X110685241Y-125725363D01*
X110485363Y-125925241D01*
X110328320Y-126160273D01*
X110220147Y-126421426D01*
X110165000Y-126698665D01*
X110165000Y-126981335D01*
X110220147Y-127258574D01*
X110328320Y-127519727D01*
X110485363Y-127754759D01*
X110685241Y-127954637D01*
X110920273Y-128111680D01*
X110930865Y-128116067D01*
X110744869Y-128227615D01*
X110536481Y-128416586D01*
X110368963Y-128642580D01*
X110248754Y-128896913D01*
X110208096Y-129030961D01*
X110330085Y-129253000D01*
X111473000Y-129253000D01*
X111473000Y-129233000D01*
X111727000Y-129233000D01*
X111727000Y-129253000D01*
X112869915Y-129253000D01*
X112991904Y-129030961D01*
X112977487Y-128983428D01*
X112979998Y-128983675D01*
X113017321Y-128979999D01*
X117836453Y-128979999D01*
X117785000Y-129238665D01*
X117785000Y-129521335D01*
X117840147Y-129798574D01*
X117855236Y-129835002D01*
X112959764Y-129835002D01*
X112991904Y-129729039D01*
X112869915Y-129507000D01*
X111727000Y-129507000D01*
X111727000Y-129527000D01*
X111473000Y-129527000D01*
X111473000Y-129507000D01*
X110330085Y-129507000D01*
X110208096Y-129729039D01*
X110240236Y-129835002D01*
X108292699Y-129835002D01*
X108041335Y-129785002D01*
X107758665Y-129785002D01*
X107481426Y-129840149D01*
X107310000Y-129911156D01*
X107310000Y-105378665D01*
X118015000Y-105378665D01*
X118015000Y-105661335D01*
X118065000Y-105912699D01*
X118065000Y-106583341D01*
X118058300Y-106651370D01*
X118065000Y-106719399D01*
X118065000Y-106719407D01*
X118085040Y-106922877D01*
X118164236Y-107183951D01*
X118292844Y-107424558D01*
X118422548Y-107582603D01*
X118422551Y-107582606D01*
X118465920Y-107635451D01*
X118518764Y-107678819D01*
X122665000Y-111825056D01*
X122665001Y-113027297D01*
X122615000Y-113278665D01*
X122615000Y-113561335D01*
X122670147Y-113838574D01*
X122778320Y-114099727D01*
X122935363Y-114334759D01*
X123135241Y-114534637D01*
X123370273Y-114691680D01*
X123631426Y-114799853D01*
X123908665Y-114855000D01*
X124191335Y-114855000D01*
X124468574Y-114799853D01*
X124729727Y-114691680D01*
X124964759Y-114534637D01*
X125164637Y-114334759D01*
X125321680Y-114099727D01*
X125429853Y-113838574D01*
X125485000Y-113561335D01*
X125485000Y-113278665D01*
X125435000Y-113027301D01*
X125435000Y-111319396D01*
X125441700Y-111251369D01*
X125435000Y-111183342D01*
X125435000Y-111183333D01*
X125414960Y-110979863D01*
X125335764Y-110718789D01*
X125207157Y-110478182D01*
X125159408Y-110420000D01*
X125077452Y-110320136D01*
X125077445Y-110320129D01*
X125034080Y-110267289D01*
X124981241Y-110223925D01*
X120835000Y-106077685D01*
X120835000Y-105912699D01*
X120885000Y-105661335D01*
X120885000Y-105378665D01*
X120829853Y-105101426D01*
X120721680Y-104840273D01*
X120564637Y-104605241D01*
X120364759Y-104405363D01*
X120129727Y-104248320D01*
X119868574Y-104140147D01*
X119591335Y-104085000D01*
X119308665Y-104085000D01*
X119031426Y-104140147D01*
X118770273Y-104248320D01*
X118535241Y-104405363D01*
X118335363Y-104605241D01*
X118178320Y-104840273D01*
X118070147Y-105101426D01*
X118015000Y-105378665D01*
X107310000Y-105378665D01*
X107310000Y-98780000D01*
X126490000Y-98780000D01*
X126490001Y-108187571D01*
G36*
X112734314Y-125207003D02*
G01*
X112845967Y-125218000D01*
X112845975Y-125218000D01*
X112883300Y-125221676D01*
X112920625Y-125218000D01*
X116378201Y-125218000D01*
X117096204Y-125936004D01*
X117120002Y-125965002D01*
X117149000Y-125988800D01*
X117235726Y-126059975D01*
X117266313Y-126076324D01*
X117367756Y-126130547D01*
X117511017Y-126174004D01*
X117622670Y-126185001D01*
X117622680Y-126185001D01*
X117660003Y-126188677D01*
X117697326Y-126185001D01*
X117938077Y-126185001D01*
X117840147Y-126421426D01*
X117785000Y-126698665D01*
X117785000Y-126981335D01*
X117840147Y-127258574D01*
X117923580Y-127459999D01*
X113294801Y-127459999D01*
X112998688Y-127163886D01*
X113035000Y-126981335D01*
X113035000Y-126698665D01*
X112979853Y-126421426D01*
X112871680Y-126160273D01*
X112714637Y-125925241D01*
X112514759Y-125725363D01*
X112282241Y-125570000D01*
X112514759Y-125414637D01*
X112714637Y-125214759D01*
X112722262Y-125203347D01*
X112734314Y-125207003D01*
G37*
X112734314Y-125207003D02*
X112845967Y-125218000D01*
X112845975Y-125218000D01*
X112883300Y-125221676D01*
X112920625Y-125218000D01*
X116378201Y-125218000D01*
X117096204Y-125936004D01*
X117120002Y-125965002D01*
X117149000Y-125988800D01*
X117235726Y-126059975D01*
X117266313Y-126076324D01*
X117367756Y-126130547D01*
X117511017Y-126174004D01*
X117622670Y-126185001D01*
X117622680Y-126185001D01*
X117660003Y-126188677D01*
X117697326Y-126185001D01*
X117938077Y-126185001D01*
X117840147Y-126421426D01*
X117785000Y-126698665D01*
X117785000Y-126981335D01*
X117840147Y-127258574D01*
X117923580Y-127459999D01*
X113294801Y-127459999D01*
X112998688Y-127163886D01*
X113035000Y-126981335D01*
X113035000Y-126698665D01*
X112979853Y-126421426D01*
X112871680Y-126160273D01*
X112714637Y-125925241D01*
X112514759Y-125725363D01*
X112282241Y-125570000D01*
X112514759Y-125414637D01*
X112714637Y-125214759D01*
X112722262Y-125203347D01*
X112734314Y-125207003D01*
G36*
X114260675Y-110755007D02*
G01*
X114260675Y-110958885D01*
X114300449Y-111158844D01*
X114378470Y-111347202D01*
X114491738Y-111516720D01*
X114535676Y-111560658D01*
X114535675Y-121417753D01*
X114531999Y-121455075D01*
X114535675Y-121492397D01*
X114535675Y-121492407D01*
X114546672Y-121604060D01*
X114566367Y-121668986D01*
X114590129Y-121747321D01*
X114660701Y-121879351D01*
X114685022Y-121908986D01*
X114755674Y-121995076D01*
X114784677Y-122018878D01*
X115306505Y-122540707D01*
X115330299Y-122569701D01*
X115359292Y-122593495D01*
X115359296Y-122593499D01*
X115429985Y-122651511D01*
X115446024Y-122664674D01*
X115578053Y-122735246D01*
X115721314Y-122778703D01*
X115832967Y-122789700D01*
X115832976Y-122789700D01*
X115870299Y-122793376D01*
X115907622Y-122789700D01*
X116372978Y-122789700D01*
X116410300Y-122793376D01*
X116447622Y-122789700D01*
X116447633Y-122789700D01*
X116559286Y-122778703D01*
X116702547Y-122735246D01*
X116834576Y-122664674D01*
X116950301Y-122569701D01*
X116974104Y-122540697D01*
X117785000Y-121729801D01*
X117785000Y-121901335D01*
X117840147Y-122178574D01*
X117948320Y-122439727D01*
X118105363Y-122674759D01*
X118305241Y-122874637D01*
X118537759Y-123030000D01*
X118305241Y-123185363D01*
X118105363Y-123385241D01*
X117948320Y-123620273D01*
X117840147Y-123881426D01*
X117785000Y-124158665D01*
X117785000Y-124441335D01*
X117793408Y-124483604D01*
X117256806Y-123947002D01*
X117233003Y-123917999D01*
X117117278Y-123823026D01*
X116985249Y-123752454D01*
X116841988Y-123708997D01*
X116730335Y-123698000D01*
X116730324Y-123698000D01*
X116693002Y-123694324D01*
X116655680Y-123698000D01*
X113189755Y-123698000D01*
X113149576Y-123665026D01*
X113017547Y-123594454D01*
X112874286Y-123550997D01*
X112821947Y-123545842D01*
X112714637Y-123385241D01*
X112514759Y-123185363D01*
X112282241Y-123030000D01*
X112514759Y-122874637D01*
X112714637Y-122674759D01*
X112871680Y-122439727D01*
X112905539Y-122357984D01*
X112960202Y-122380626D01*
X113160161Y-122420400D01*
X113364039Y-122420400D01*
X113563998Y-122380626D01*
X113752356Y-122302605D01*
X113921874Y-122189337D01*
X114066037Y-122045174D01*
X114179305Y-121875656D01*
X114257326Y-121687298D01*
X114297100Y-121487339D01*
X114297100Y-121283461D01*
X114257326Y-121083502D01*
X114179305Y-120895144D01*
X114066037Y-120725626D01*
X114022100Y-120681689D01*
X114022100Y-116519420D01*
X114025776Y-116482097D01*
X114022100Y-116444774D01*
X114022100Y-116444765D01*
X114018281Y-116405990D01*
X114035000Y-116321937D01*
X114035000Y-116118059D01*
X113995226Y-115918100D01*
X113917205Y-115729742D01*
X113803937Y-115560224D01*
X113659774Y-115416061D01*
X113490256Y-115302793D01*
X113301898Y-115224772D01*
X113101939Y-115184998D01*
X112898061Y-115184998D01*
X112698102Y-115224772D01*
X112509744Y-115302793D01*
X112340226Y-115416061D01*
X112320634Y-115435653D01*
X112282241Y-115410000D01*
X112514759Y-115254637D01*
X112714637Y-115054759D01*
X112871680Y-114819727D01*
X112979853Y-114558574D01*
X113035000Y-114281335D01*
X113035000Y-113998665D01*
X112979853Y-113721426D01*
X112871680Y-113460273D01*
X112714637Y-113225241D01*
X112516039Y-113026643D01*
X112524482Y-113025812D01*
X112644180Y-112989502D01*
X112754494Y-112930537D01*
X112851185Y-112851185D01*
X112930537Y-112754494D01*
X112989502Y-112644180D01*
X113025812Y-112524482D01*
X113038072Y-112400000D01*
X113038072Y-111885000D01*
X113101979Y-111885000D01*
X113301938Y-111845226D01*
X113490296Y-111767205D01*
X113659814Y-111653937D01*
X113803977Y-111509774D01*
X113917245Y-111340256D01*
X113995266Y-111151898D01*
X114035040Y-110951939D01*
X114035040Y-110748061D01*
X114001611Y-110580000D01*
X114295486Y-110580000D01*
X114260675Y-110755007D01*
G37*
X114260675Y-110755007D02*
X114260675Y-110958885D01*
X114300449Y-111158844D01*
X114378470Y-111347202D01*
X114491738Y-111516720D01*
X114535676Y-111560658D01*
X114535675Y-121417753D01*
X114531999Y-121455075D01*
X114535675Y-121492397D01*
X114535675Y-121492407D01*
X114546672Y-121604060D01*
X114566367Y-121668986D01*
X114590129Y-121747321D01*
X114660701Y-121879351D01*
X114685022Y-121908986D01*
X114755674Y-121995076D01*
X114784677Y-122018878D01*
X115306505Y-122540707D01*
X115330299Y-122569701D01*
X115359292Y-122593495D01*
X115359296Y-122593499D01*
X115429985Y-122651511D01*
X115446024Y-122664674D01*
X115578053Y-122735246D01*
X115721314Y-122778703D01*
X115832967Y-122789700D01*
X115832976Y-122789700D01*
X115870299Y-122793376D01*
X115907622Y-122789700D01*
X116372978Y-122789700D01*
X116410300Y-122793376D01*
X116447622Y-122789700D01*
X116447633Y-122789700D01*
X116559286Y-122778703D01*
X116702547Y-122735246D01*
X116834576Y-122664674D01*
X116950301Y-122569701D01*
X116974104Y-122540697D01*
X117785000Y-121729801D01*
X117785000Y-121901335D01*
X117840147Y-122178574D01*
X117948320Y-122439727D01*
X118105363Y-122674759D01*
X118305241Y-122874637D01*
X118537759Y-123030000D01*
X118305241Y-123185363D01*
X118105363Y-123385241D01*
X117948320Y-123620273D01*
X117840147Y-123881426D01*
X117785000Y-124158665D01*
X117785000Y-124441335D01*
X117793408Y-124483604D01*
X117256806Y-123947002D01*
X117233003Y-123917999D01*
X117117278Y-123823026D01*
X116985249Y-123752454D01*
X116841988Y-123708997D01*
X116730335Y-123698000D01*
X116730324Y-123698000D01*
X116693002Y-123694324D01*
X116655680Y-123698000D01*
X113189755Y-123698000D01*
X113149576Y-123665026D01*
X113017547Y-123594454D01*
X112874286Y-123550997D01*
X112821947Y-123545842D01*
X112714637Y-123385241D01*
X112514759Y-123185363D01*
X112282241Y-123030000D01*
X112514759Y-122874637D01*
X112714637Y-122674759D01*
X112871680Y-122439727D01*
X112905539Y-122357984D01*
X112960202Y-122380626D01*
X113160161Y-122420400D01*
X113364039Y-122420400D01*
X113563998Y-122380626D01*
X113752356Y-122302605D01*
X113921874Y-122189337D01*
X114066037Y-122045174D01*
X114179305Y-121875656D01*
X114257326Y-121687298D01*
X114297100Y-121487339D01*
X114297100Y-121283461D01*
X114257326Y-121083502D01*
X114179305Y-120895144D01*
X114066037Y-120725626D01*
X114022100Y-120681689D01*
X114022100Y-116519420D01*
X114025776Y-116482097D01*
X114022100Y-116444774D01*
X114022100Y-116444765D01*
X114018281Y-116405990D01*
X114035000Y-116321937D01*
X114035000Y-116118059D01*
X113995226Y-115918100D01*
X113917205Y-115729742D01*
X113803937Y-115560224D01*
X113659774Y-115416061D01*
X113490256Y-115302793D01*
X113301898Y-115224772D01*
X113101939Y-115184998D01*
X112898061Y-115184998D01*
X112698102Y-115224772D01*
X112509744Y-115302793D01*
X112340226Y-115416061D01*
X112320634Y-115435653D01*
X112282241Y-115410000D01*
X112514759Y-115254637D01*
X112714637Y-115054759D01*
X112871680Y-114819727D01*
X112979853Y-114558574D01*
X113035000Y-114281335D01*
X113035000Y-113998665D01*
X112979853Y-113721426D01*
X112871680Y-113460273D01*
X112714637Y-113225241D01*
X112516039Y-113026643D01*
X112524482Y-113025812D01*
X112644180Y-112989502D01*
X112754494Y-112930537D01*
X112851185Y-112851185D01*
X112930537Y-112754494D01*
X112989502Y-112644180D01*
X113025812Y-112524482D01*
X113038072Y-112400000D01*
X113038072Y-111885000D01*
X113101979Y-111885000D01*
X113301938Y-111845226D01*
X113490296Y-111767205D01*
X113659814Y-111653937D01*
X113803977Y-111509774D01*
X113917245Y-111340256D01*
X113995266Y-111151898D01*
X114035040Y-110951939D01*
X114035040Y-110748061D01*
X114001611Y-110580000D01*
X114295486Y-110580000D01*
X114260675Y-110755007D01*
%TD*%
M02*
