%TF.GenerationSoftware,KiCad,Pcbnew,5.1.7-a382d34a8~88~ubuntu18.04.1*%
%TF.CreationDate,2021-05-09T09:36:21-04:00*%
%TF.ProjectId,salt_replacement,73616c74-5f72-4657-906c-6163656d656e,1.0.0*%
%TF.SameCoordinates,Original*%
%TF.FileFunction,Copper,L1,Top*%
%TF.FilePolarity,Positive*%
%FSLAX46Y46*%
G04 Gerber Fmt 4.6, Leading zero omitted, Abs format (unit mm)*
G04 Created by KiCad (PCBNEW 5.1.7-a382d34a8~88~ubuntu18.04.1) date 2021-05-09 09:36:21*
%MOMM*%
%LPD*%
G01*
G04 APERTURE LIST*
%TA.AperFunction,ComponentPad*%
%ADD10R,1.600000X1.600000*%
%TD*%
%TA.AperFunction,ComponentPad*%
%ADD11O,1.600000X1.600000*%
%TD*%
%TA.AperFunction,SMDPad,CuDef*%
%ADD12R,2.500000X2.300000*%
%TD*%
%TA.AperFunction,SMDPad,CuDef*%
%ADD13R,2.000000X3.400000*%
%TD*%
%TA.AperFunction,SMDPad,CuDef*%
%ADD14R,0.800000X0.900000*%
%TD*%
%TA.AperFunction,SMDPad,CuDef*%
%ADD15R,4.600000X1.100000*%
%TD*%
%TA.AperFunction,SMDPad,CuDef*%
%ADD16R,9.400000X10.800000*%
%TD*%
%TA.AperFunction,SMDPad,CuDef*%
%ADD17R,0.450000X1.050000*%
%TD*%
%TA.AperFunction,SMDPad,CuDef*%
%ADD18R,0.895000X1.470000*%
%TD*%
%TA.AperFunction,SMDPad,CuDef*%
%ADD19R,0.700000X0.600000*%
%TD*%
%TA.AperFunction,ViaPad*%
%ADD20C,0.800000*%
%TD*%
%TA.AperFunction,ViaPad*%
%ADD21C,1.600000*%
%TD*%
%TA.AperFunction,Conductor*%
%ADD22C,0.250000*%
%TD*%
%TA.AperFunction,Conductor*%
%ADD23C,1.500000*%
%TD*%
%TA.AperFunction,Conductor*%
%ADD24C,3.000000*%
%TD*%
%TA.AperFunction,Conductor*%
%ADD25C,2.000000*%
%TD*%
%TA.AperFunction,Conductor*%
%ADD26C,0.254000*%
%TD*%
%TA.AperFunction,Conductor*%
%ADD27C,0.100000*%
%TD*%
G04 APERTURE END LIST*
D10*
%TO.P,J1,1*%
%TO.N,Net-(J1-Pad1)*%
X111600000Y-111600000D03*
D11*
%TO.P,J1,9*%
%TO.N,Net-(J1-Pad9)*%
X119220000Y-129380000D03*
%TO.P,J1,2*%
%TO.N,Net-(J1-Pad2)*%
X111600000Y-114140000D03*
%TO.P,J1,10*%
%TO.N,Net-(J1-Pad10)*%
X119220000Y-126840000D03*
%TO.P,J1,3*%
%TO.N,+5V*%
X111600000Y-116680000D03*
%TO.P,J1,11*%
%TO.N,/CASSETTE_DATA_IN*%
X119220000Y-124300000D03*
%TO.P,J1,4*%
%TO.N,/SERIAL_IN_TTL*%
X111600000Y-119220000D03*
%TO.P,J1,12*%
%TO.N,/SERIAL_OUT_RS232*%
X119220000Y-121760000D03*
%TO.P,J1,5*%
%TO.N,/CD_IN_TTL*%
X111600000Y-121760000D03*
%TO.P,J1,13*%
%TO.N,/CD_IN_RS232*%
X119220000Y-119220000D03*
%TO.P,J1,6*%
%TO.N,/SERIAL_OUT_TTL*%
X111600000Y-124300000D03*
%TO.P,J1,14*%
%TO.N,/SERIAL_IN_RS232*%
X119220000Y-116680000D03*
%TO.P,J1,7*%
%TO.N,/CASSETTE_DATA_IN_TTL*%
X111600000Y-126840000D03*
%TO.P,J1,15*%
%TO.N,Net-(J1-Pad15)*%
X119220000Y-114140000D03*
%TO.P,J1,8*%
%TO.N,GND*%
X111600000Y-129380000D03*
%TO.P,J1,16*%
%TO.N,VCC*%
X119220000Y-111600000D03*
%TD*%
D12*
%TO.P,D1,1*%
%TO.N,Net-(D1-Pad1)*%
X137950000Y-125200000D03*
%TO.P,D1,2*%
%TO.N,GND*%
X142250000Y-125200000D03*
%TD*%
D13*
%TO.P,L1,1*%
%TO.N,Net-(D1-Pad1)*%
X134650000Y-125100000D03*
%TO.P,L1,2*%
%TO.N,+5V*%
X128950000Y-125100000D03*
%TD*%
D14*
%TO.P,Q1,1*%
%TO.N,Net-(J1-Pad10)*%
X116550000Y-127600000D03*
%TO.P,Q1,2*%
%TO.N,GND*%
X114650000Y-127600000D03*
%TO.P,Q1,3*%
%TO.N,Net-(J1-Pad9)*%
X115600000Y-129600000D03*
%TD*%
D15*
%TO.P,U1,1*%
%TO.N,VCC*%
X130825000Y-112300000D03*
%TO.P,U1,2*%
%TO.N,Net-(D1-Pad1)*%
X130825000Y-114000000D03*
%TO.P,U1,3*%
%TO.N,GND*%
X130825000Y-115700000D03*
%TO.P,U1,4*%
%TO.N,+5V*%
X130825000Y-117400000D03*
%TO.P,U1,5*%
%TO.N,GND*%
X130825000Y-119100000D03*
D16*
%TO.P,U1,3*%
X139975000Y-115700000D03*
%TD*%
D17*
%TO.P,U2,1*%
%TO.N,Net-(C6-Pad1)*%
X113125000Y-117625000D03*
%TO.P,U2,2*%
%TO.N,Net-(C8-Pad2)*%
X113775000Y-117625000D03*
%TO.P,U2,3*%
%TO.N,Net-(C6-Pad2)*%
X114425000Y-117625000D03*
%TO.P,U2,4*%
%TO.N,Net-(C7-Pad1)*%
X115075000Y-117625000D03*
%TO.P,U2,5*%
%TO.N,Net-(C7-Pad2)*%
X115725000Y-117625000D03*
%TO.P,U2,6*%
%TO.N,Net-(C9-Pad2)*%
X116375000Y-117625000D03*
%TO.P,U2,7*%
%TO.N,/SERIAL_OUT_RS232*%
X117025000Y-117625000D03*
%TO.P,U2,8*%
%TO.N,/SERIAL_IN_RS232*%
X117675000Y-117625000D03*
%TO.P,U2,9*%
%TO.N,/SERIAL_IN_TTL*%
X117675000Y-112075000D03*
%TO.P,U2,10*%
%TO.N,/SERIAL_OUT_TTL*%
X117025000Y-112075000D03*
%TO.P,U2,11*%
%TO.N,Net-(U2-Pad11)*%
X116375000Y-112075000D03*
%TO.P,U2,12*%
%TO.N,/CD_IN_TTL*%
X115725000Y-112075000D03*
%TO.P,U2,13*%
%TO.N,/CD_IN_RS232*%
X115075000Y-112075000D03*
%TO.P,U2,14*%
%TO.N,Net-(U2-Pad14)*%
X114425000Y-112075000D03*
%TO.P,U2,15*%
%TO.N,GND*%
X113775000Y-112075000D03*
%TO.P,U2,16*%
%TO.N,+5V*%
X113125000Y-112075000D03*
D18*
%TO.P,U2,17*%
%TO.N,N/C*%
X116742500Y-114115000D03*
X115847500Y-114115000D03*
X114952500Y-114115000D03*
X114057500Y-114115000D03*
X116742500Y-115585000D03*
X115847500Y-115585000D03*
X114952500Y-115585000D03*
X114057500Y-115585000D03*
%TD*%
%TO.P,C6,1*%
%TO.N,Net-(C6-Pad1)*%
%TA.AperFunction,SMDPad,CuDef*%
G36*
G01*
X113110000Y-119870000D02*
X113110000Y-119530000D01*
G75*
G02*
X113250000Y-119390000I140000J0D01*
G01*
X113530000Y-119390000D01*
G75*
G02*
X113670000Y-119530000I0J-140000D01*
G01*
X113670000Y-119870000D01*
G75*
G02*
X113530000Y-120010000I-140000J0D01*
G01*
X113250000Y-120010000D01*
G75*
G02*
X113110000Y-119870000I0J140000D01*
G01*
G37*
%TD.AperFunction*%
%TO.P,C6,2*%
%TO.N,Net-(C6-Pad2)*%
%TA.AperFunction,SMDPad,CuDef*%
G36*
G01*
X114070000Y-119870000D02*
X114070000Y-119530000D01*
G75*
G02*
X114210000Y-119390000I140000J0D01*
G01*
X114490000Y-119390000D01*
G75*
G02*
X114630000Y-119530000I0J-140000D01*
G01*
X114630000Y-119870000D01*
G75*
G02*
X114490000Y-120010000I-140000J0D01*
G01*
X114210000Y-120010000D01*
G75*
G02*
X114070000Y-119870000I0J140000D01*
G01*
G37*
%TD.AperFunction*%
%TD*%
%TO.P,C7,2*%
%TO.N,Net-(C7-Pad2)*%
%TA.AperFunction,SMDPad,CuDef*%
G36*
G01*
X116775000Y-120400000D02*
X116775000Y-119900000D01*
G75*
G02*
X117000000Y-119675000I225000J0D01*
G01*
X117450000Y-119675000D01*
G75*
G02*
X117675000Y-119900000I0J-225000D01*
G01*
X117675000Y-120400000D01*
G75*
G02*
X117450000Y-120625000I-225000J0D01*
G01*
X117000000Y-120625000D01*
G75*
G02*
X116775000Y-120400000I0J225000D01*
G01*
G37*
%TD.AperFunction*%
%TO.P,C7,1*%
%TO.N,Net-(C7-Pad1)*%
%TA.AperFunction,SMDPad,CuDef*%
G36*
G01*
X115225000Y-120400000D02*
X115225000Y-119900000D01*
G75*
G02*
X115450000Y-119675000I225000J0D01*
G01*
X115900000Y-119675000D01*
G75*
G02*
X116125000Y-119900000I0J-225000D01*
G01*
X116125000Y-120400000D01*
G75*
G02*
X115900000Y-120625000I-225000J0D01*
G01*
X115450000Y-120625000D01*
G75*
G02*
X115225000Y-120400000I0J225000D01*
G01*
G37*
%TD.AperFunction*%
%TD*%
%TO.P,C8,1*%
%TO.N,+5V*%
%TA.AperFunction,SMDPad,CuDef*%
G36*
G01*
X114850000Y-124100000D02*
X114350000Y-124100000D01*
G75*
G02*
X114125000Y-123875000I0J225000D01*
G01*
X114125000Y-123425000D01*
G75*
G02*
X114350000Y-123200000I225000J0D01*
G01*
X114850000Y-123200000D01*
G75*
G02*
X115075000Y-123425000I0J-225000D01*
G01*
X115075000Y-123875000D01*
G75*
G02*
X114850000Y-124100000I-225000J0D01*
G01*
G37*
%TD.AperFunction*%
%TO.P,C8,2*%
%TO.N,Net-(C8-Pad2)*%
%TA.AperFunction,SMDPad,CuDef*%
G36*
G01*
X114850000Y-122550000D02*
X114350000Y-122550000D01*
G75*
G02*
X114125000Y-122325000I0J225000D01*
G01*
X114125000Y-121875000D01*
G75*
G02*
X114350000Y-121650000I225000J0D01*
G01*
X114850000Y-121650000D01*
G75*
G02*
X115075000Y-121875000I0J-225000D01*
G01*
X115075000Y-122325000D01*
G75*
G02*
X114850000Y-122550000I-225000J0D01*
G01*
G37*
%TD.AperFunction*%
%TD*%
%TO.P,C9,1*%
%TO.N,GND*%
%TA.AperFunction,SMDPad,CuDef*%
G36*
G01*
X117450000Y-124175000D02*
X116950000Y-124175000D01*
G75*
G02*
X116725000Y-123950000I0J225000D01*
G01*
X116725000Y-123500000D01*
G75*
G02*
X116950000Y-123275000I225000J0D01*
G01*
X117450000Y-123275000D01*
G75*
G02*
X117675000Y-123500000I0J-225000D01*
G01*
X117675000Y-123950000D01*
G75*
G02*
X117450000Y-124175000I-225000J0D01*
G01*
G37*
%TD.AperFunction*%
%TO.P,C9,2*%
%TO.N,Net-(C9-Pad2)*%
%TA.AperFunction,SMDPad,CuDef*%
G36*
G01*
X117450000Y-122625000D02*
X116950000Y-122625000D01*
G75*
G02*
X116725000Y-122400000I0J225000D01*
G01*
X116725000Y-121950000D01*
G75*
G02*
X116950000Y-121725000I225000J0D01*
G01*
X117450000Y-121725000D01*
G75*
G02*
X117675000Y-121950000I0J-225000D01*
G01*
X117675000Y-122400000D01*
G75*
G02*
X117450000Y-122625000I-225000J0D01*
G01*
G37*
%TD.AperFunction*%
%TD*%
%TO.P,R2,1*%
%TO.N,Net-(J1-Pad10)*%
%TA.AperFunction,SMDPad,CuDef*%
G36*
G01*
X116390000Y-125765000D02*
X116390000Y-126135000D01*
G75*
G02*
X116255000Y-126270000I-135000J0D01*
G01*
X115985000Y-126270000D01*
G75*
G02*
X115850000Y-126135000I0J135000D01*
G01*
X115850000Y-125765000D01*
G75*
G02*
X115985000Y-125630000I135000J0D01*
G01*
X116255000Y-125630000D01*
G75*
G02*
X116390000Y-125765000I0J-135000D01*
G01*
G37*
%TD.AperFunction*%
%TO.P,R2,2*%
%TO.N,GND*%
%TA.AperFunction,SMDPad,CuDef*%
G36*
G01*
X115370000Y-125765000D02*
X115370000Y-126135000D01*
G75*
G02*
X115235000Y-126270000I-135000J0D01*
G01*
X114965000Y-126270000D01*
G75*
G02*
X114830000Y-126135000I0J135000D01*
G01*
X114830000Y-125765000D01*
G75*
G02*
X114965000Y-125630000I135000J0D01*
G01*
X115235000Y-125630000D01*
G75*
G02*
X115370000Y-125765000I0J-135000D01*
G01*
G37*
%TD.AperFunction*%
%TD*%
%TO.P,U3,1*%
%TO.N,/CASSETTE_DATA_IN_TTL*%
%TA.AperFunction,SMDPad,CuDef*%
G36*
G01*
X124175000Y-121150000D02*
X124375000Y-121150000D01*
G75*
G02*
X124475000Y-121250000I0J-100000D01*
G01*
X124475000Y-122525000D01*
G75*
G02*
X124375000Y-122625000I-100000J0D01*
G01*
X124175000Y-122625000D01*
G75*
G02*
X124075000Y-122525000I0J100000D01*
G01*
X124075000Y-121250000D01*
G75*
G02*
X124175000Y-121150000I100000J0D01*
G01*
G37*
%TD.AperFunction*%
%TO.P,U3,2*%
%TO.N,Net-(R3-Pad2)*%
%TA.AperFunction,SMDPad,CuDef*%
G36*
G01*
X123525000Y-121150000D02*
X123725000Y-121150000D01*
G75*
G02*
X123825000Y-121250000I0J-100000D01*
G01*
X123825000Y-122525000D01*
G75*
G02*
X123725000Y-122625000I-100000J0D01*
G01*
X123525000Y-122625000D01*
G75*
G02*
X123425000Y-122525000I0J100000D01*
G01*
X123425000Y-121250000D01*
G75*
G02*
X123525000Y-121150000I100000J0D01*
G01*
G37*
%TD.AperFunction*%
%TO.P,U3,3*%
%TO.N,Net-(R1-Pad2)*%
%TA.AperFunction,SMDPad,CuDef*%
G36*
G01*
X122875000Y-121150000D02*
X123075000Y-121150000D01*
G75*
G02*
X123175000Y-121250000I0J-100000D01*
G01*
X123175000Y-122525000D01*
G75*
G02*
X123075000Y-122625000I-100000J0D01*
G01*
X122875000Y-122625000D01*
G75*
G02*
X122775000Y-122525000I0J100000D01*
G01*
X122775000Y-121250000D01*
G75*
G02*
X122875000Y-121150000I100000J0D01*
G01*
G37*
%TD.AperFunction*%
%TO.P,U3,4*%
%TO.N,GND*%
%TA.AperFunction,SMDPad,CuDef*%
G36*
G01*
X122225000Y-121150000D02*
X122425000Y-121150000D01*
G75*
G02*
X122525000Y-121250000I0J-100000D01*
G01*
X122525000Y-122525000D01*
G75*
G02*
X122425000Y-122625000I-100000J0D01*
G01*
X122225000Y-122625000D01*
G75*
G02*
X122125000Y-122525000I0J100000D01*
G01*
X122125000Y-121250000D01*
G75*
G02*
X122225000Y-121150000I100000J0D01*
G01*
G37*
%TD.AperFunction*%
%TO.P,U3,5*%
%TO.N,Net-(U3-Pad5)*%
%TA.AperFunction,SMDPad,CuDef*%
G36*
G01*
X122225000Y-126875000D02*
X122425000Y-126875000D01*
G75*
G02*
X122525000Y-126975000I0J-100000D01*
G01*
X122525000Y-128250000D01*
G75*
G02*
X122425000Y-128350000I-100000J0D01*
G01*
X122225000Y-128350000D01*
G75*
G02*
X122125000Y-128250000I0J100000D01*
G01*
X122125000Y-126975000D01*
G75*
G02*
X122225000Y-126875000I100000J0D01*
G01*
G37*
%TD.AperFunction*%
%TO.P,U3,6*%
%TO.N,Net-(U3-Pad6)*%
%TA.AperFunction,SMDPad,CuDef*%
G36*
G01*
X122875000Y-126875000D02*
X123075000Y-126875000D01*
G75*
G02*
X123175000Y-126975000I0J-100000D01*
G01*
X123175000Y-128250000D01*
G75*
G02*
X123075000Y-128350000I-100000J0D01*
G01*
X122875000Y-128350000D01*
G75*
G02*
X122775000Y-128250000I0J100000D01*
G01*
X122775000Y-126975000D01*
G75*
G02*
X122875000Y-126875000I100000J0D01*
G01*
G37*
%TD.AperFunction*%
%TO.P,U3,7*%
%TO.N,Net-(U3-Pad7)*%
%TA.AperFunction,SMDPad,CuDef*%
G36*
G01*
X123525000Y-126875000D02*
X123725000Y-126875000D01*
G75*
G02*
X123825000Y-126975000I0J-100000D01*
G01*
X123825000Y-128250000D01*
G75*
G02*
X123725000Y-128350000I-100000J0D01*
G01*
X123525000Y-128350000D01*
G75*
G02*
X123425000Y-128250000I0J100000D01*
G01*
X123425000Y-126975000D01*
G75*
G02*
X123525000Y-126875000I100000J0D01*
G01*
G37*
%TD.AperFunction*%
%TO.P,U3,8*%
%TO.N,+5V*%
%TA.AperFunction,SMDPad,CuDef*%
G36*
G01*
X124175000Y-126875000D02*
X124375000Y-126875000D01*
G75*
G02*
X124475000Y-126975000I0J-100000D01*
G01*
X124475000Y-128250000D01*
G75*
G02*
X124375000Y-128350000I-100000J0D01*
G01*
X124175000Y-128350000D01*
G75*
G02*
X124075000Y-128250000I0J100000D01*
G01*
X124075000Y-126975000D01*
G75*
G02*
X124175000Y-126875000I100000J0D01*
G01*
G37*
%TD.AperFunction*%
%TD*%
D19*
%TO.P,D2,2*%
%TO.N,GND*%
X122750000Y-118800000D03*
%TO.P,D2,1*%
%TO.N,Net-(D2-Pad1)*%
X122750000Y-117400000D03*
%TD*%
%TO.P,R1,2*%
%TO.N,Net-(R1-Pad2)*%
%TA.AperFunction,SMDPad,CuDef*%
G36*
G01*
X124210000Y-117165000D02*
X124210000Y-117535000D01*
G75*
G02*
X124075000Y-117670000I-135000J0D01*
G01*
X123805000Y-117670000D01*
G75*
G02*
X123670000Y-117535000I0J135000D01*
G01*
X123670000Y-117165000D01*
G75*
G02*
X123805000Y-117030000I135000J0D01*
G01*
X124075000Y-117030000D01*
G75*
G02*
X124210000Y-117165000I0J-135000D01*
G01*
G37*
%TD.AperFunction*%
%TO.P,R1,1*%
%TO.N,+5V*%
%TA.AperFunction,SMDPad,CuDef*%
G36*
G01*
X125230000Y-117165000D02*
X125230000Y-117535000D01*
G75*
G02*
X125095000Y-117670000I-135000J0D01*
G01*
X124825000Y-117670000D01*
G75*
G02*
X124690000Y-117535000I0J135000D01*
G01*
X124690000Y-117165000D01*
G75*
G02*
X124825000Y-117030000I135000J0D01*
G01*
X125095000Y-117030000D01*
G75*
G02*
X125230000Y-117165000I0J-135000D01*
G01*
G37*
%TD.AperFunction*%
%TD*%
%TO.P,R3,1*%
%TO.N,+5V*%
%TA.AperFunction,SMDPad,CuDef*%
G36*
G01*
X125615000Y-129120000D02*
X125985000Y-129120000D01*
G75*
G02*
X126120000Y-129255000I0J-135000D01*
G01*
X126120000Y-129525000D01*
G75*
G02*
X125985000Y-129660000I-135000J0D01*
G01*
X125615000Y-129660000D01*
G75*
G02*
X125480000Y-129525000I0J135000D01*
G01*
X125480000Y-129255000D01*
G75*
G02*
X125615000Y-129120000I135000J0D01*
G01*
G37*
%TD.AperFunction*%
%TO.P,R3,2*%
%TO.N,Net-(R3-Pad2)*%
%TA.AperFunction,SMDPad,CuDef*%
G36*
G01*
X125615000Y-130140000D02*
X125985000Y-130140000D01*
G75*
G02*
X126120000Y-130275000I0J-135000D01*
G01*
X126120000Y-130545000D01*
G75*
G02*
X125985000Y-130680000I-135000J0D01*
G01*
X125615000Y-130680000D01*
G75*
G02*
X125480000Y-130545000I0J135000D01*
G01*
X125480000Y-130275000D01*
G75*
G02*
X125615000Y-130140000I135000J0D01*
G01*
G37*
%TD.AperFunction*%
%TD*%
%TO.P,R4,2*%
%TO.N,/CASSETTE_DATA_IN_TTL*%
%TA.AperFunction,SMDPad,CuDef*%
G36*
G01*
X124115000Y-119790000D02*
X124485000Y-119790000D01*
G75*
G02*
X124620000Y-119925000I0J-135000D01*
G01*
X124620000Y-120195000D01*
G75*
G02*
X124485000Y-120330000I-135000J0D01*
G01*
X124115000Y-120330000D01*
G75*
G02*
X123980000Y-120195000I0J135000D01*
G01*
X123980000Y-119925000D01*
G75*
G02*
X124115000Y-119790000I135000J0D01*
G01*
G37*
%TD.AperFunction*%
%TO.P,R4,1*%
%TO.N,+5V*%
%TA.AperFunction,SMDPad,CuDef*%
G36*
G01*
X124115000Y-118770000D02*
X124485000Y-118770000D01*
G75*
G02*
X124620000Y-118905000I0J-135000D01*
G01*
X124620000Y-119175000D01*
G75*
G02*
X124485000Y-119310000I-135000J0D01*
G01*
X124115000Y-119310000D01*
G75*
G02*
X123980000Y-119175000I0J135000D01*
G01*
X123980000Y-118905000D01*
G75*
G02*
X124115000Y-118770000I135000J0D01*
G01*
G37*
%TD.AperFunction*%
%TD*%
%TO.P,R5,1*%
%TO.N,Net-(D2-Pad1)*%
%TA.AperFunction,SMDPad,CuDef*%
G36*
G01*
X121115000Y-118470000D02*
X121485000Y-118470000D01*
G75*
G02*
X121620000Y-118605000I0J-135000D01*
G01*
X121620000Y-118875000D01*
G75*
G02*
X121485000Y-119010000I-135000J0D01*
G01*
X121115000Y-119010000D01*
G75*
G02*
X120980000Y-118875000I0J135000D01*
G01*
X120980000Y-118605000D01*
G75*
G02*
X121115000Y-118470000I135000J0D01*
G01*
G37*
%TD.AperFunction*%
%TO.P,R5,2*%
%TO.N,/CASSETTE_DATA_IN*%
%TA.AperFunction,SMDPad,CuDef*%
G36*
G01*
X121115000Y-119490000D02*
X121485000Y-119490000D01*
G75*
G02*
X121620000Y-119625000I0J-135000D01*
G01*
X121620000Y-119895000D01*
G75*
G02*
X121485000Y-120030000I-135000J0D01*
G01*
X121115000Y-120030000D01*
G75*
G02*
X120980000Y-119895000I0J135000D01*
G01*
X120980000Y-119625000D01*
G75*
G02*
X121115000Y-119490000I135000J0D01*
G01*
G37*
%TD.AperFunction*%
%TD*%
%TO.P,R6,1*%
%TO.N,Net-(R1-Pad2)*%
%TA.AperFunction,SMDPad,CuDef*%
G36*
G01*
X123580000Y-119915000D02*
X123580000Y-120285000D01*
G75*
G02*
X123445000Y-120420000I-135000J0D01*
G01*
X123175000Y-120420000D01*
G75*
G02*
X123040000Y-120285000I0J135000D01*
G01*
X123040000Y-119915000D01*
G75*
G02*
X123175000Y-119780000I135000J0D01*
G01*
X123445000Y-119780000D01*
G75*
G02*
X123580000Y-119915000I0J-135000D01*
G01*
G37*
%TD.AperFunction*%
%TO.P,R6,2*%
%TO.N,Net-(D2-Pad1)*%
%TA.AperFunction,SMDPad,CuDef*%
G36*
G01*
X122560000Y-119915000D02*
X122560000Y-120285000D01*
G75*
G02*
X122425000Y-120420000I-135000J0D01*
G01*
X122155000Y-120420000D01*
G75*
G02*
X122020000Y-120285000I0J135000D01*
G01*
X122020000Y-119915000D01*
G75*
G02*
X122155000Y-119780000I135000J0D01*
G01*
X122425000Y-119780000D01*
G75*
G02*
X122560000Y-119915000I0J-135000D01*
G01*
G37*
%TD.AperFunction*%
%TD*%
%TO.P,R7,2*%
%TO.N,Net-(R3-Pad2)*%
%TA.AperFunction,SMDPad,CuDef*%
G36*
G01*
X121610000Y-129615000D02*
X121610000Y-129985000D01*
G75*
G02*
X121475000Y-130120000I-135000J0D01*
G01*
X121205000Y-130120000D01*
G75*
G02*
X121070000Y-129985000I0J135000D01*
G01*
X121070000Y-129615000D01*
G75*
G02*
X121205000Y-129480000I135000J0D01*
G01*
X121475000Y-129480000D01*
G75*
G02*
X121610000Y-129615000I0J-135000D01*
G01*
G37*
%TD.AperFunction*%
%TO.P,R7,1*%
%TO.N,/CASSETTE_DATA_IN_TTL*%
%TA.AperFunction,SMDPad,CuDef*%
G36*
G01*
X122630000Y-129615000D02*
X122630000Y-129985000D01*
G75*
G02*
X122495000Y-130120000I-135000J0D01*
G01*
X122225000Y-130120000D01*
G75*
G02*
X122090000Y-129985000I0J135000D01*
G01*
X122090000Y-129615000D01*
G75*
G02*
X122225000Y-129480000I135000J0D01*
G01*
X122495000Y-129480000D01*
G75*
G02*
X122630000Y-129615000I0J-135000D01*
G01*
G37*
%TD.AperFunction*%
%TD*%
%TO.P,R8,2*%
%TO.N,GND*%
%TA.AperFunction,SMDPad,CuDef*%
G36*
G01*
X124190000Y-130535000D02*
X124190000Y-130165000D01*
G75*
G02*
X124325000Y-130030000I135000J0D01*
G01*
X124595000Y-130030000D01*
G75*
G02*
X124730000Y-130165000I0J-135000D01*
G01*
X124730000Y-130535000D01*
G75*
G02*
X124595000Y-130670000I-135000J0D01*
G01*
X124325000Y-130670000D01*
G75*
G02*
X124190000Y-130535000I0J135000D01*
G01*
G37*
%TD.AperFunction*%
%TO.P,R8,1*%
%TO.N,Net-(R3-Pad2)*%
%TA.AperFunction,SMDPad,CuDef*%
G36*
G01*
X123170000Y-130535000D02*
X123170000Y-130165000D01*
G75*
G02*
X123305000Y-130030000I135000J0D01*
G01*
X123575000Y-130030000D01*
G75*
G02*
X123710000Y-130165000I0J-135000D01*
G01*
X123710000Y-130535000D01*
G75*
G02*
X123575000Y-130670000I-135000J0D01*
G01*
X123305000Y-130670000D01*
G75*
G02*
X123170000Y-130535000I0J135000D01*
G01*
G37*
%TD.AperFunction*%
%TD*%
D20*
%TO.N,+5V*%
X127010400Y-129364300D03*
X113261400Y-123666900D03*
D21*
X127375000Y-116875000D03*
D20*
X113000040Y-110850000D03*
%TO.N,GND*%
X116100000Y-123650000D03*
X114100000Y-110850000D03*
X128474990Y-108975010D03*
X126324990Y-108975010D03*
X123924990Y-108975010D03*
X134274990Y-108975010D03*
X138924990Y-108975010D03*
X131424990Y-108975010D03*
X122874990Y-108975010D03*
X142250000Y-122300000D03*
X143450000Y-129600000D03*
X140450000Y-129700000D03*
X137150000Y-129650000D03*
X133600000Y-129750000D03*
%TO.N,/SERIAL_IN_TTL*%
X116126600Y-121244500D03*
X117803000Y-113205200D03*
%TO.N,/CD_IN_TTL*%
X116297668Y-110853255D03*
%TO.N,/CD_IN_RS232*%
X115295675Y-110856946D03*
%TO.N,/SERIAL_OUT_TTL*%
X117468000Y-110929600D03*
%TO.N,Net-(D1-Pad1)*%
X138000000Y-122100000D03*
X137100000Y-122100000D03*
X136150000Y-122100000D03*
D21*
X127700000Y-114000000D03*
D20*
%TO.N,Net-(C8-Pad2)*%
X113262100Y-121385400D03*
X112978100Y-115762900D03*
%TO.N,Net-(D2-Pad1)*%
X121300000Y-117861700D03*
X123722800Y-116427200D03*
%TO.N,/CASSETTE_DATA_IN_TTL*%
X121500000Y-126350000D03*
X125850000Y-124550000D03*
%TO.N,Net-(R3-Pad2)*%
X126756200Y-130377100D03*
X125687900Y-127780800D03*
X123600000Y-123550000D03*
%TO.N,Net-(U3-Pad7)*%
X123724900Y-126270900D03*
%TD*%
D22*
%TO.N,+5V*%
X127010400Y-129364300D02*
X125825700Y-129364300D01*
X125825700Y-129364300D02*
X125800000Y-129390000D01*
X113261400Y-123666900D02*
X114583100Y-123666900D01*
X114583100Y-123666900D02*
X114600000Y-123650000D01*
X128950000Y-125100000D02*
X126787500Y-125100000D01*
X126787500Y-125100000D02*
X124275000Y-127612500D01*
X127637500Y-117137500D02*
X125172500Y-117137500D01*
X125172500Y-117137500D02*
X124960000Y-117350000D01*
D23*
X127637500Y-117137500D02*
X127375000Y-116875000D01*
X127965000Y-117400000D02*
X127900000Y-117400000D01*
X127900000Y-117400000D02*
X127637500Y-117137500D01*
D22*
X126750000Y-119152200D02*
X124412200Y-119152200D01*
X124412200Y-119152200D02*
X124300000Y-119040000D01*
D23*
X126750000Y-119152200D02*
X126750000Y-122900000D01*
X126750000Y-122900000D02*
X128950000Y-125100000D01*
X127965000Y-117400000D02*
X126750000Y-118615000D01*
X126750000Y-118615000D02*
X126750000Y-119152200D01*
X130825000Y-117400000D02*
X127965000Y-117400000D01*
D22*
X113125000Y-112075000D02*
X113125000Y-110974960D01*
X113125000Y-110974960D02*
X113000040Y-110850000D01*
%TO.N,GND*%
X124460000Y-130350000D02*
X124460000Y-129745800D01*
X124460000Y-129745800D02*
X125699700Y-128506100D01*
X125699700Y-128506100D02*
X140419200Y-128506100D01*
X140419200Y-128506100D02*
X142250000Y-126675300D01*
X142250000Y-125200000D02*
X142250000Y-126675300D01*
X120177900Y-125465400D02*
X122325000Y-123318300D01*
X122325000Y-123318300D02*
X122325000Y-121887500D01*
X122750000Y-118800000D02*
X122750000Y-118174700D01*
X130825000Y-115700000D02*
X123271300Y-115700000D01*
X123271300Y-115700000D02*
X122049200Y-116922100D01*
X122049200Y-116922100D02*
X122049200Y-117864700D01*
X122049200Y-117864700D02*
X122359200Y-118174700D01*
X122359200Y-118174700D02*
X122750000Y-118174700D01*
D23*
X130825000Y-115700000D02*
X139975000Y-115700000D01*
D22*
X117200000Y-125200100D02*
X117465300Y-125465400D01*
X117465300Y-125465400D02*
X120177900Y-125465400D01*
X115100000Y-125950000D02*
X115849900Y-125200100D01*
X115849900Y-125200100D02*
X117200000Y-125200100D01*
X117200000Y-125200100D02*
X117200000Y-123725000D01*
X114650000Y-126824700D02*
X115100000Y-126374700D01*
X115100000Y-126374700D02*
X115100000Y-125950000D01*
X114650000Y-127600000D02*
X114650000Y-126824700D01*
D23*
X114650000Y-127600000D02*
X112800000Y-129450000D01*
X112800000Y-129450000D02*
X112730000Y-129380000D01*
X112730000Y-129380000D02*
X111600000Y-129380000D01*
X130825000Y-119100000D02*
X136575000Y-119100000D01*
X136575000Y-119100000D02*
X139975000Y-115700000D01*
D24*
X142250000Y-125200000D02*
X142250000Y-122300000D01*
X142250000Y-117975000D02*
X139975000Y-115700000D01*
D25*
X143775000Y-111900000D02*
X139975000Y-115700000D01*
X143775000Y-109225010D02*
X143775000Y-111900000D01*
D23*
X109374990Y-108975010D02*
X122874990Y-108975010D01*
X109374990Y-127154990D02*
X109374990Y-108975010D01*
X143525000Y-108975010D02*
X143775000Y-109225010D01*
X111600000Y-129380000D02*
X109374990Y-127154990D01*
D22*
X113775000Y-111175000D02*
X114100000Y-110850000D01*
X113775000Y-112075000D02*
X113775000Y-111175000D01*
X116175000Y-123725000D02*
X116100000Y-123650000D01*
X117200000Y-123725000D02*
X116175000Y-123725000D01*
D23*
X128474990Y-108975010D02*
X131424990Y-108975010D01*
X126324990Y-108975010D02*
X128474990Y-108975010D01*
X123924990Y-108975010D02*
X126324990Y-108975010D01*
X134274990Y-108975010D02*
X138924990Y-108975010D01*
X138924990Y-108975010D02*
X143525000Y-108975010D01*
X131424990Y-108975010D02*
X134274990Y-108975010D01*
X122874990Y-108975010D02*
X123924990Y-108975010D01*
D24*
X142250000Y-122300000D02*
X142250000Y-117975000D01*
X137524990Y-109725010D02*
X134274990Y-109725010D01*
X139975000Y-115700000D02*
X139975000Y-112175020D01*
X139975000Y-112175020D02*
X137524990Y-109725010D01*
D22*
%TO.N,Net-(C6-Pad1)*%
X113125000Y-117625000D02*
X113125000Y-119435000D01*
X113125000Y-119435000D02*
X113390000Y-119700000D01*
%TO.N,Net-(C6-Pad2)*%
X114350000Y-119700000D02*
X114425000Y-119625000D01*
X114425000Y-119625000D02*
X114425000Y-117625000D01*
%TO.N,Net-(C7-Pad2)*%
X117225000Y-120150000D02*
X115725000Y-118650000D01*
X115725000Y-118650000D02*
X115725000Y-117625000D01*
%TO.N,Net-(C7-Pad1)*%
X115675000Y-120150000D02*
X115075000Y-119550000D01*
X115075000Y-119550000D02*
X115075000Y-117625000D01*
%TO.N,Net-(C9-Pad2)*%
X116375000Y-117625000D02*
X116375000Y-118475300D01*
X117200000Y-122175000D02*
X118039600Y-121335400D01*
X118039600Y-121335400D02*
X118039600Y-119649100D01*
X118039600Y-119649100D02*
X116865800Y-118475300D01*
X116865800Y-118475300D02*
X116375000Y-118475300D01*
D23*
%TO.N,Net-(J1-Pad9)*%
X115600000Y-129600000D02*
X119000000Y-129600000D01*
X119000000Y-129600000D02*
X119220000Y-129380000D01*
D22*
%TO.N,Net-(J1-Pad10)*%
X117435000Y-127600000D02*
X116120000Y-126285000D01*
X116120000Y-126285000D02*
X116120000Y-125950000D01*
D23*
X117435000Y-127600000D02*
X118460000Y-127600000D01*
X118460000Y-127600000D02*
X119220000Y-126840000D01*
X116550000Y-127600000D02*
X117435000Y-127600000D01*
D22*
%TO.N,/SERIAL_IN_TTL*%
X117675000Y-112925300D02*
X117803000Y-113053300D01*
X117803000Y-113053300D02*
X117803000Y-113205200D01*
X117675000Y-112075000D02*
X117675000Y-112925300D01*
X116126600Y-121244500D02*
X114925100Y-121244500D01*
X114925100Y-121244500D02*
X114130500Y-120449900D01*
X114130500Y-120449900D02*
X112829900Y-120449900D01*
X112829900Y-120449900D02*
X111600000Y-119220000D01*
%TO.N,/SERIAL_OUT_RS232*%
X119220000Y-121760000D02*
X119220000Y-120634700D01*
X117025000Y-117625000D02*
X117025000Y-116774700D01*
X117025000Y-116774700D02*
X117255400Y-116774700D01*
X117255400Y-116774700D02*
X118489500Y-115540600D01*
X118489500Y-115540600D02*
X119697800Y-115540600D01*
X119697800Y-115540600D02*
X120345300Y-116188100D01*
X120345300Y-116188100D02*
X120345300Y-119790800D01*
X120345300Y-119790800D02*
X119501400Y-120634700D01*
X119501400Y-120634700D02*
X119220000Y-120634700D01*
%TO.N,/CD_IN_TTL*%
X111600000Y-121760000D02*
X110474999Y-120634999D01*
X116297668Y-110287570D02*
X116297668Y-110853255D01*
X115725000Y-112075000D02*
X115725000Y-111500625D01*
X110474999Y-110539999D02*
X110952500Y-110062498D01*
X116297668Y-110927957D02*
X116297668Y-110853255D01*
X110474999Y-120634999D02*
X110474999Y-110539999D01*
X110952500Y-110062498D02*
X116072596Y-110062498D01*
X115725000Y-111500625D02*
X116297668Y-110927957D01*
X116072596Y-110062498D02*
X116297668Y-110287570D01*
%TO.N,/CD_IN_RS232*%
X115075000Y-112075000D02*
X115075000Y-111077621D01*
X115075000Y-111077621D02*
X115295675Y-110856946D01*
%TO.N,/SERIAL_OUT_TTL*%
X117025000Y-112075000D02*
X117025000Y-111224700D01*
X117025000Y-111224700D02*
X117172900Y-111224700D01*
X117172900Y-111224700D02*
X117468000Y-110929600D01*
%TO.N,/SERIAL_IN_RS232*%
X117675000Y-117625000D02*
X118275000Y-117625000D01*
X118275000Y-117625000D02*
X119220000Y-116680000D01*
D23*
%TO.N,VCC*%
X119670002Y-112050002D02*
X130575002Y-112050002D01*
X130575002Y-112050002D02*
X130825000Y-112300000D01*
X119220000Y-111600000D02*
X119670002Y-112050002D01*
%TO.N,Net-(D1-Pad1)*%
X137100000Y-122100000D02*
X138000000Y-122100000D01*
X136150000Y-122100000D02*
X137100000Y-122100000D01*
X138000000Y-122100000D02*
X138000000Y-125150000D01*
X138000000Y-125150000D02*
X137950000Y-125200000D01*
X130825000Y-114000000D02*
X127700000Y-114000000D01*
D24*
X137950000Y-125200000D02*
X134750000Y-125200000D01*
X134750000Y-125200000D02*
X134650000Y-125100000D01*
D22*
%TO.N,Net-(C8-Pad2)*%
X113775000Y-116774700D02*
X113544600Y-116774700D01*
X113544600Y-116774700D02*
X112978100Y-116208200D01*
X112978100Y-116208200D02*
X112978100Y-115762900D01*
X113775000Y-117625000D02*
X113775000Y-116774700D01*
X113262100Y-121385400D02*
X113885400Y-121385400D01*
X113885400Y-121385400D02*
X114600000Y-122100000D01*
%TO.N,Net-(D2-Pad1)*%
X122750000Y-117400000D02*
X123722800Y-116427200D01*
X121300000Y-118740000D02*
X121300000Y-117861700D01*
X121300000Y-118740000D02*
X122290000Y-119730000D01*
X122290000Y-119730000D02*
X122290000Y-120100000D01*
%TO.N,/CASSETTE_DATA_IN*%
X121300000Y-119760000D02*
X121300000Y-121376000D01*
X121300000Y-121376000D02*
X119501300Y-123174700D01*
X119501300Y-123174700D02*
X119220000Y-123174700D01*
X119220000Y-124300000D02*
X119220000Y-123174700D01*
%TO.N,/CASSETTE_DATA_IN_TTL*%
X122360000Y-129800000D02*
X121500000Y-128940000D01*
X121500000Y-128940000D02*
X121500000Y-126350000D01*
X121500000Y-126350000D02*
X121500000Y-126350000D01*
X125450001Y-123062501D02*
X124275000Y-121887500D01*
X125450001Y-124150001D02*
X125450001Y-123062501D01*
X125850000Y-124550000D02*
X125450001Y-124150001D01*
X124300000Y-121862500D02*
X124275000Y-121887500D01*
X124300000Y-120060000D02*
X124300000Y-121862500D01*
%TO.N,Net-(R1-Pad2)*%
X123940000Y-117350000D02*
X123500800Y-117789200D01*
X123500800Y-117789200D02*
X123500800Y-119909200D01*
X123500800Y-119909200D02*
X123310000Y-120100000D01*
X122975000Y-120435000D02*
X123310000Y-120100000D01*
X122975000Y-121887500D02*
X122975000Y-120435000D01*
%TO.N,Net-(R3-Pad2)*%
X123440000Y-130350000D02*
X123440000Y-130028700D01*
X123440000Y-130028700D02*
X125687900Y-127780800D01*
X121340000Y-129800000D02*
X122047300Y-130507300D01*
X122047300Y-130507300D02*
X123282700Y-130507300D01*
X123282700Y-130507300D02*
X123440000Y-130350000D01*
X126756200Y-130377100D02*
X125832900Y-130377100D01*
X125832900Y-130377100D02*
X125800000Y-130410000D01*
X123600000Y-121912500D02*
X123625000Y-121887500D01*
X123600000Y-123550000D02*
X123600000Y-121912500D01*
%TO.N,Net-(U3-Pad7)*%
X123625000Y-127612500D02*
X123625000Y-126370800D01*
X123625000Y-126370800D02*
X123724900Y-126270900D01*
%TD*%
D26*
%TO.N,GND*%
X144340000Y-109662161D02*
X140260750Y-109665000D01*
X140102000Y-109823750D01*
X140102000Y-115573000D01*
X140122000Y-115573000D01*
X140122000Y-115827000D01*
X140102000Y-115827000D01*
X140102000Y-121576250D01*
X140260750Y-121735000D01*
X144340001Y-121737839D01*
X144340001Y-130340000D01*
X127791200Y-130340000D01*
X127791200Y-130275161D01*
X127753381Y-130085030D01*
X127814337Y-130024074D01*
X127927605Y-129854556D01*
X128005626Y-129666198D01*
X128045400Y-129466239D01*
X128045400Y-129262361D01*
X128005626Y-129062402D01*
X127927605Y-128874044D01*
X127814337Y-128704526D01*
X127670174Y-128560363D01*
X127500656Y-128447095D01*
X127312298Y-128369074D01*
X127112339Y-128329300D01*
X126908461Y-128329300D01*
X126708502Y-128369074D01*
X126520144Y-128447095D01*
X126415184Y-128517227D01*
X126491837Y-128440574D01*
X126605105Y-128271056D01*
X126683126Y-128082698D01*
X126722900Y-127882739D01*
X126722900Y-127678861D01*
X126683126Y-127478902D01*
X126605105Y-127290544D01*
X126491837Y-127121026D01*
X126347674Y-126976863D01*
X126178156Y-126863595D01*
X126121977Y-126840325D01*
X127102302Y-125860000D01*
X127311928Y-125860000D01*
X127311928Y-126800000D01*
X127324188Y-126924482D01*
X127360498Y-127044180D01*
X127419463Y-127154494D01*
X127498815Y-127251185D01*
X127595506Y-127330537D01*
X127705820Y-127389502D01*
X127825518Y-127425812D01*
X127950000Y-127438072D01*
X129950000Y-127438072D01*
X130074482Y-127425812D01*
X130194180Y-127389502D01*
X130304494Y-127330537D01*
X130401185Y-127251185D01*
X130480537Y-127154494D01*
X130539502Y-127044180D01*
X130575812Y-126924482D01*
X130588072Y-126800000D01*
X130588072Y-125100000D01*
X132504671Y-125100000D01*
X132545893Y-125518533D01*
X132667975Y-125920982D01*
X132866224Y-126291881D01*
X133011928Y-126469422D01*
X133011928Y-126800000D01*
X133024188Y-126924482D01*
X133060498Y-127044180D01*
X133119463Y-127154494D01*
X133198815Y-127251185D01*
X133295506Y-127330537D01*
X133405820Y-127389502D01*
X133525518Y-127425812D01*
X133650000Y-127438072D01*
X135650000Y-127438072D01*
X135774482Y-127425812D01*
X135894180Y-127389502D01*
X135996144Y-127335000D01*
X138054882Y-127335000D01*
X138368533Y-127304108D01*
X138770982Y-127182026D01*
X139133846Y-126988072D01*
X139200000Y-126988072D01*
X139324482Y-126975812D01*
X139444180Y-126939502D01*
X139554494Y-126880537D01*
X139651185Y-126801185D01*
X139730537Y-126704494D01*
X139789502Y-126594180D01*
X139825812Y-126474482D01*
X139838072Y-126350000D01*
X140361928Y-126350000D01*
X140374188Y-126474482D01*
X140410498Y-126594180D01*
X140469463Y-126704494D01*
X140548815Y-126801185D01*
X140645506Y-126880537D01*
X140755820Y-126939502D01*
X140875518Y-126975812D01*
X141000000Y-126988072D01*
X141964250Y-126985000D01*
X142123000Y-126826250D01*
X142123000Y-125327000D01*
X142377000Y-125327000D01*
X142377000Y-126826250D01*
X142535750Y-126985000D01*
X143500000Y-126988072D01*
X143624482Y-126975812D01*
X143744180Y-126939502D01*
X143854494Y-126880537D01*
X143951185Y-126801185D01*
X144030537Y-126704494D01*
X144089502Y-126594180D01*
X144125812Y-126474482D01*
X144138072Y-126350000D01*
X144135000Y-125485750D01*
X143976250Y-125327000D01*
X142377000Y-125327000D01*
X142123000Y-125327000D01*
X140523750Y-125327000D01*
X140365000Y-125485750D01*
X140361928Y-126350000D01*
X139838072Y-126350000D01*
X139838072Y-126196758D01*
X139932026Y-126020982D01*
X140054108Y-125618533D01*
X140095330Y-125200000D01*
X140054108Y-124781467D01*
X139932026Y-124379018D01*
X139838072Y-124203242D01*
X139838072Y-124050000D01*
X140361928Y-124050000D01*
X140365000Y-124914250D01*
X140523750Y-125073000D01*
X142123000Y-125073000D01*
X142123000Y-123573750D01*
X142377000Y-123573750D01*
X142377000Y-125073000D01*
X143976250Y-125073000D01*
X144135000Y-124914250D01*
X144138072Y-124050000D01*
X144125812Y-123925518D01*
X144089502Y-123805820D01*
X144030537Y-123695506D01*
X143951185Y-123598815D01*
X143854494Y-123519463D01*
X143744180Y-123460498D01*
X143624482Y-123424188D01*
X143500000Y-123411928D01*
X142535750Y-123415000D01*
X142377000Y-123573750D01*
X142123000Y-123573750D01*
X141964250Y-123415000D01*
X141000000Y-123411928D01*
X140875518Y-123424188D01*
X140755820Y-123460498D01*
X140645506Y-123519463D01*
X140548815Y-123598815D01*
X140469463Y-123695506D01*
X140410498Y-123805820D01*
X140374188Y-123925518D01*
X140361928Y-124050000D01*
X139838072Y-124050000D01*
X139825812Y-123925518D01*
X139789502Y-123805820D01*
X139730537Y-123695506D01*
X139651185Y-123598815D01*
X139554494Y-123519463D01*
X139444180Y-123460498D01*
X139385000Y-123442546D01*
X139385000Y-122168037D01*
X139391701Y-122100000D01*
X139364960Y-121828493D01*
X139336674Y-121735245D01*
X139689250Y-121735000D01*
X139848000Y-121576250D01*
X139848000Y-115827000D01*
X134798750Y-115827000D01*
X134640000Y-115985750D01*
X134636928Y-121100000D01*
X134649188Y-121224482D01*
X134685498Y-121344180D01*
X134744463Y-121454494D01*
X134823815Y-121551185D01*
X134860122Y-121580981D01*
X134785040Y-121828493D01*
X134758299Y-122100000D01*
X134785040Y-122371507D01*
X134864236Y-122632581D01*
X134933373Y-122761928D01*
X133650000Y-122761928D01*
X133525518Y-122774188D01*
X133405820Y-122810498D01*
X133295506Y-122869463D01*
X133198815Y-122948815D01*
X133119463Y-123045506D01*
X133060498Y-123155820D01*
X133024188Y-123275518D01*
X133011928Y-123400000D01*
X133011928Y-123730578D01*
X132866224Y-123908119D01*
X132667975Y-124279018D01*
X132545893Y-124681467D01*
X132504671Y-125100000D01*
X130588072Y-125100000D01*
X130588072Y-123400000D01*
X130575812Y-123275518D01*
X130539502Y-123155820D01*
X130480537Y-123045506D01*
X130401185Y-122948815D01*
X130304494Y-122869463D01*
X130194180Y-122810498D01*
X130074482Y-122774188D01*
X129950000Y-122761928D01*
X128570613Y-122761928D01*
X128135000Y-122326315D01*
X128135000Y-120151398D01*
X128170506Y-120180537D01*
X128280820Y-120239502D01*
X128400518Y-120275812D01*
X128525000Y-120288072D01*
X130539250Y-120285000D01*
X130698000Y-120126250D01*
X130698000Y-119227000D01*
X130952000Y-119227000D01*
X130952000Y-120126250D01*
X131110750Y-120285000D01*
X133125000Y-120288072D01*
X133249482Y-120275812D01*
X133369180Y-120239502D01*
X133479494Y-120180537D01*
X133576185Y-120101185D01*
X133655537Y-120004494D01*
X133714502Y-119894180D01*
X133750812Y-119774482D01*
X133763072Y-119650000D01*
X133760000Y-119385750D01*
X133601250Y-119227000D01*
X130952000Y-119227000D01*
X130698000Y-119227000D01*
X130678000Y-119227000D01*
X130678000Y-118973000D01*
X130698000Y-118973000D01*
X130698000Y-118953000D01*
X130952000Y-118953000D01*
X130952000Y-118973000D01*
X133601250Y-118973000D01*
X133760000Y-118814250D01*
X133763072Y-118550000D01*
X133750812Y-118425518D01*
X133714502Y-118305820D01*
X133684665Y-118250000D01*
X133714502Y-118194180D01*
X133750812Y-118074482D01*
X133763072Y-117950000D01*
X133763072Y-116850000D01*
X133750812Y-116725518D01*
X133714502Y-116605820D01*
X133684665Y-116550000D01*
X133714502Y-116494180D01*
X133750812Y-116374482D01*
X133763072Y-116250000D01*
X133760000Y-115985750D01*
X133601250Y-115827000D01*
X130952000Y-115827000D01*
X130952000Y-115847000D01*
X130698000Y-115847000D01*
X130698000Y-115827000D01*
X130678000Y-115827000D01*
X130678000Y-115573000D01*
X130698000Y-115573000D01*
X130698000Y-115553000D01*
X130952000Y-115553000D01*
X130952000Y-115573000D01*
X133601250Y-115573000D01*
X133760000Y-115414250D01*
X133763072Y-115150000D01*
X133750812Y-115025518D01*
X133714502Y-114905820D01*
X133684665Y-114850000D01*
X133714502Y-114794180D01*
X133750812Y-114674482D01*
X133763072Y-114550000D01*
X133763072Y-113450000D01*
X133750812Y-113325518D01*
X133714502Y-113205820D01*
X133684665Y-113150000D01*
X133714502Y-113094180D01*
X133750812Y-112974482D01*
X133763072Y-112850000D01*
X133763072Y-111750000D01*
X133750812Y-111625518D01*
X133714502Y-111505820D01*
X133655537Y-111395506D01*
X133576185Y-111298815D01*
X133479494Y-111219463D01*
X133369180Y-111160498D01*
X133249482Y-111124188D01*
X133125000Y-111111928D01*
X131596840Y-111111928D01*
X131559083Y-111065921D01*
X131348190Y-110892845D01*
X131107583Y-110764238D01*
X130846509Y-110685042D01*
X130643039Y-110665002D01*
X130643031Y-110665002D01*
X130575002Y-110658302D01*
X130506973Y-110665002D01*
X120314398Y-110665002D01*
X120134759Y-110485363D01*
X119899727Y-110328320D01*
X119831357Y-110300000D01*
X134636928Y-110300000D01*
X134640000Y-115414250D01*
X134798750Y-115573000D01*
X139848000Y-115573000D01*
X139848000Y-109823750D01*
X139689250Y-109665000D01*
X135275000Y-109661928D01*
X135150518Y-109674188D01*
X135030820Y-109710498D01*
X134920506Y-109769463D01*
X134823815Y-109848815D01*
X134744463Y-109945506D01*
X134685498Y-110055820D01*
X134649188Y-110175518D01*
X134636928Y-110300000D01*
X119831357Y-110300000D01*
X119638574Y-110220147D01*
X119361335Y-110165000D01*
X119078665Y-110165000D01*
X118801426Y-110220147D01*
X118540273Y-110328320D01*
X118381782Y-110434220D01*
X118271937Y-110269826D01*
X118127774Y-110125663D01*
X117958256Y-110012395D01*
X117769898Y-109934374D01*
X117569939Y-109894600D01*
X117366061Y-109894600D01*
X117166102Y-109934374D01*
X117004972Y-110001117D01*
X117003214Y-109995323D01*
X116932642Y-109863294D01*
X116837669Y-109747569D01*
X116808666Y-109723767D01*
X116636400Y-109551501D01*
X116612597Y-109522497D01*
X116496872Y-109427524D01*
X116364843Y-109356952D01*
X116221582Y-109313495D01*
X116109929Y-109302498D01*
X116109918Y-109302498D01*
X116072596Y-109298822D01*
X116035274Y-109302498D01*
X110989822Y-109302498D01*
X110952499Y-109298822D01*
X110915176Y-109302498D01*
X110915167Y-109302498D01*
X110803514Y-109313495D01*
X110660253Y-109356952D01*
X110528224Y-109427524D01*
X110412499Y-109522497D01*
X110388700Y-109551496D01*
X109963997Y-109976200D01*
X109934999Y-109999998D01*
X109911201Y-110028996D01*
X109911200Y-110028997D01*
X109840025Y-110115723D01*
X109769453Y-110247753D01*
X109748465Y-110316945D01*
X109725997Y-110391013D01*
X109718739Y-110464700D01*
X109711323Y-110539999D01*
X109715000Y-110577331D01*
X109714999Y-120597677D01*
X109711323Y-120634999D01*
X109714999Y-120672321D01*
X109714999Y-120672331D01*
X109725996Y-120783984D01*
X109760886Y-120899002D01*
X109769453Y-120927245D01*
X109840025Y-121059275D01*
X109878379Y-121106009D01*
X109934998Y-121175000D01*
X109964001Y-121198803D01*
X110201312Y-121436113D01*
X110165000Y-121618665D01*
X110165000Y-121901335D01*
X110220147Y-122178574D01*
X110328320Y-122439727D01*
X110485363Y-122674759D01*
X110685241Y-122874637D01*
X110917759Y-123030000D01*
X110685241Y-123185363D01*
X110485363Y-123385241D01*
X110328320Y-123620273D01*
X110220147Y-123881426D01*
X110165000Y-124158665D01*
X110165000Y-124441335D01*
X110220147Y-124718574D01*
X110328320Y-124979727D01*
X110485363Y-125214759D01*
X110685241Y-125414637D01*
X110917759Y-125570000D01*
X110685241Y-125725363D01*
X110485363Y-125925241D01*
X110328320Y-126160273D01*
X110220147Y-126421426D01*
X110165000Y-126698665D01*
X110165000Y-126981335D01*
X110220147Y-127258574D01*
X110328320Y-127519727D01*
X110485363Y-127754759D01*
X110685241Y-127954637D01*
X110920273Y-128111680D01*
X110930865Y-128116067D01*
X110744869Y-128227615D01*
X110536481Y-128416586D01*
X110368963Y-128642580D01*
X110248754Y-128896913D01*
X110208096Y-129030961D01*
X110330085Y-129253000D01*
X111473000Y-129253000D01*
X111473000Y-129233000D01*
X111727000Y-129233000D01*
X111727000Y-129253000D01*
X112869915Y-129253000D01*
X112991904Y-129030961D01*
X112951246Y-128896913D01*
X112831037Y-128642580D01*
X112663519Y-128416586D01*
X112455131Y-128227615D01*
X112269135Y-128116067D01*
X112279727Y-128111680D01*
X112514759Y-127954637D01*
X112714637Y-127754759D01*
X112871680Y-127519727D01*
X112979853Y-127258574D01*
X113035000Y-126981335D01*
X113035000Y-126698665D01*
X112979853Y-126421426D01*
X112871680Y-126160273D01*
X112714637Y-125925241D01*
X112514759Y-125725363D01*
X112383833Y-125637881D01*
X114191977Y-125637881D01*
X114195000Y-125664250D01*
X114353750Y-125823000D01*
X114973000Y-125823000D01*
X114973000Y-125153750D01*
X114814250Y-124995000D01*
X114697798Y-125005774D01*
X114578558Y-125043559D01*
X114468980Y-125103882D01*
X114373276Y-125184422D01*
X114295124Y-125282086D01*
X114237527Y-125393121D01*
X114202699Y-125513258D01*
X114191977Y-125637881D01*
X112383833Y-125637881D01*
X112282241Y-125570000D01*
X112514759Y-125414637D01*
X112714637Y-125214759D01*
X112871680Y-124979727D01*
X112979853Y-124718574D01*
X112989879Y-124668168D01*
X113159461Y-124701900D01*
X113363339Y-124701900D01*
X113563298Y-124662126D01*
X113751656Y-124584105D01*
X113811448Y-124544153D01*
X113870503Y-124592618D01*
X114019717Y-124672375D01*
X114181623Y-124721488D01*
X114350000Y-124738072D01*
X114850000Y-124738072D01*
X115018377Y-124721488D01*
X115180283Y-124672375D01*
X115329497Y-124592618D01*
X115460284Y-124485284D01*
X115567618Y-124354497D01*
X115647375Y-124205283D01*
X115656561Y-124175000D01*
X116086928Y-124175000D01*
X116099188Y-124299482D01*
X116135498Y-124419180D01*
X116194463Y-124529494D01*
X116273815Y-124626185D01*
X116370506Y-124705537D01*
X116480820Y-124764502D01*
X116600518Y-124800812D01*
X116725000Y-124813072D01*
X116914250Y-124810000D01*
X117073000Y-124651250D01*
X117073000Y-123852000D01*
X116248750Y-123852000D01*
X116090000Y-124010750D01*
X116086928Y-124175000D01*
X115656561Y-124175000D01*
X115696488Y-124043377D01*
X115713072Y-123875000D01*
X115713072Y-123425000D01*
X115696488Y-123256623D01*
X115647375Y-123094717D01*
X115567618Y-122945503D01*
X115509758Y-122875000D01*
X115567618Y-122804497D01*
X115647375Y-122655283D01*
X115696488Y-122493377D01*
X115713072Y-122325000D01*
X115713072Y-122193487D01*
X115824702Y-122239726D01*
X116024661Y-122279500D01*
X116086928Y-122279500D01*
X116086928Y-122400000D01*
X116103512Y-122568377D01*
X116152625Y-122730283D01*
X116230700Y-122876351D01*
X116194463Y-122920506D01*
X116135498Y-123030820D01*
X116099188Y-123150518D01*
X116086928Y-123275000D01*
X116090000Y-123439250D01*
X116248750Y-123598000D01*
X117073000Y-123598000D01*
X117073000Y-123578000D01*
X117327000Y-123578000D01*
X117327000Y-123598000D01*
X117347000Y-123598000D01*
X117347000Y-123852000D01*
X117327000Y-123852000D01*
X117327000Y-124651250D01*
X117485750Y-124810000D01*
X117675000Y-124813072D01*
X117799482Y-124800812D01*
X117865869Y-124780674D01*
X117948320Y-124979727D01*
X118105363Y-125214759D01*
X118305241Y-125414637D01*
X118537759Y-125570000D01*
X118305241Y-125725363D01*
X118105363Y-125925241D01*
X117962975Y-126138340D01*
X117886315Y-126215000D01*
X117124801Y-126215000D01*
X117028072Y-126118271D01*
X117028072Y-125765000D01*
X117013218Y-125614181D01*
X116969225Y-125469158D01*
X116897786Y-125335504D01*
X116801644Y-125218356D01*
X116684496Y-125122214D01*
X116550842Y-125050775D01*
X116405819Y-125006782D01*
X116255000Y-124991928D01*
X115985000Y-124991928D01*
X115834181Y-125006782D01*
X115689158Y-125050775D01*
X115661451Y-125065584D01*
X115621442Y-125043559D01*
X115502202Y-125005774D01*
X115385750Y-124995000D01*
X115227000Y-125153750D01*
X115227000Y-125613462D01*
X115226782Y-125614181D01*
X115211928Y-125765000D01*
X115211928Y-126097000D01*
X114973000Y-126097000D01*
X114973000Y-126077000D01*
X114353750Y-126077000D01*
X114195000Y-126235750D01*
X114191977Y-126262119D01*
X114202699Y-126386742D01*
X114237527Y-126506879D01*
X114240625Y-126512851D01*
X114125518Y-126524188D01*
X114005820Y-126560498D01*
X113895506Y-126619463D01*
X113798815Y-126698815D01*
X113719463Y-126795506D01*
X113660498Y-126905820D01*
X113624188Y-127025518D01*
X113611928Y-127150000D01*
X113615000Y-127314250D01*
X113773750Y-127473000D01*
X114523000Y-127473000D01*
X114523000Y-127453000D01*
X114777000Y-127453000D01*
X114777000Y-127473000D01*
X114797000Y-127473000D01*
X114797000Y-127727000D01*
X114777000Y-127727000D01*
X114777000Y-127747000D01*
X114523000Y-127747000D01*
X114523000Y-127727000D01*
X113773750Y-127727000D01*
X113615000Y-127885750D01*
X113611928Y-128050000D01*
X113624188Y-128174482D01*
X113660498Y-128294180D01*
X113719463Y-128404494D01*
X113798815Y-128501185D01*
X113895506Y-128580537D01*
X114005820Y-128639502D01*
X114125518Y-128675812D01*
X114250000Y-128688072D01*
X114364250Y-128685000D01*
X114522998Y-128526252D01*
X114522998Y-128685000D01*
X114559225Y-128685000D01*
X114442843Y-128826812D01*
X114314236Y-129067419D01*
X114235040Y-129328493D01*
X114208299Y-129600000D01*
X114235040Y-129871507D01*
X114314236Y-130132581D01*
X114425104Y-130340000D01*
X112666050Y-130340000D01*
X112831037Y-130117420D01*
X112951246Y-129863087D01*
X112991904Y-129729039D01*
X112869915Y-129507000D01*
X111727000Y-129507000D01*
X111727000Y-129527000D01*
X111473000Y-129527000D01*
X111473000Y-129507000D01*
X110330085Y-129507000D01*
X110208096Y-129729039D01*
X110248754Y-129863087D01*
X110368963Y-130117420D01*
X110533950Y-130340000D01*
X108660000Y-130340000D01*
X108660000Y-108660000D01*
X144340000Y-108660000D01*
X144340000Y-109662161D01*
%TA.AperFunction,Conductor*%
D27*
G36*
X144340000Y-109662161D02*
G01*
X140260750Y-109665000D01*
X140102000Y-109823750D01*
X140102000Y-115573000D01*
X140122000Y-115573000D01*
X140122000Y-115827000D01*
X140102000Y-115827000D01*
X140102000Y-121576250D01*
X140260750Y-121735000D01*
X144340001Y-121737839D01*
X144340001Y-130340000D01*
X127791200Y-130340000D01*
X127791200Y-130275161D01*
X127753381Y-130085030D01*
X127814337Y-130024074D01*
X127927605Y-129854556D01*
X128005626Y-129666198D01*
X128045400Y-129466239D01*
X128045400Y-129262361D01*
X128005626Y-129062402D01*
X127927605Y-128874044D01*
X127814337Y-128704526D01*
X127670174Y-128560363D01*
X127500656Y-128447095D01*
X127312298Y-128369074D01*
X127112339Y-128329300D01*
X126908461Y-128329300D01*
X126708502Y-128369074D01*
X126520144Y-128447095D01*
X126415184Y-128517227D01*
X126491837Y-128440574D01*
X126605105Y-128271056D01*
X126683126Y-128082698D01*
X126722900Y-127882739D01*
X126722900Y-127678861D01*
X126683126Y-127478902D01*
X126605105Y-127290544D01*
X126491837Y-127121026D01*
X126347674Y-126976863D01*
X126178156Y-126863595D01*
X126121977Y-126840325D01*
X127102302Y-125860000D01*
X127311928Y-125860000D01*
X127311928Y-126800000D01*
X127324188Y-126924482D01*
X127360498Y-127044180D01*
X127419463Y-127154494D01*
X127498815Y-127251185D01*
X127595506Y-127330537D01*
X127705820Y-127389502D01*
X127825518Y-127425812D01*
X127950000Y-127438072D01*
X129950000Y-127438072D01*
X130074482Y-127425812D01*
X130194180Y-127389502D01*
X130304494Y-127330537D01*
X130401185Y-127251185D01*
X130480537Y-127154494D01*
X130539502Y-127044180D01*
X130575812Y-126924482D01*
X130588072Y-126800000D01*
X130588072Y-125100000D01*
X132504671Y-125100000D01*
X132545893Y-125518533D01*
X132667975Y-125920982D01*
X132866224Y-126291881D01*
X133011928Y-126469422D01*
X133011928Y-126800000D01*
X133024188Y-126924482D01*
X133060498Y-127044180D01*
X133119463Y-127154494D01*
X133198815Y-127251185D01*
X133295506Y-127330537D01*
X133405820Y-127389502D01*
X133525518Y-127425812D01*
X133650000Y-127438072D01*
X135650000Y-127438072D01*
X135774482Y-127425812D01*
X135894180Y-127389502D01*
X135996144Y-127335000D01*
X138054882Y-127335000D01*
X138368533Y-127304108D01*
X138770982Y-127182026D01*
X139133846Y-126988072D01*
X139200000Y-126988072D01*
X139324482Y-126975812D01*
X139444180Y-126939502D01*
X139554494Y-126880537D01*
X139651185Y-126801185D01*
X139730537Y-126704494D01*
X139789502Y-126594180D01*
X139825812Y-126474482D01*
X139838072Y-126350000D01*
X140361928Y-126350000D01*
X140374188Y-126474482D01*
X140410498Y-126594180D01*
X140469463Y-126704494D01*
X140548815Y-126801185D01*
X140645506Y-126880537D01*
X140755820Y-126939502D01*
X140875518Y-126975812D01*
X141000000Y-126988072D01*
X141964250Y-126985000D01*
X142123000Y-126826250D01*
X142123000Y-125327000D01*
X142377000Y-125327000D01*
X142377000Y-126826250D01*
X142535750Y-126985000D01*
X143500000Y-126988072D01*
X143624482Y-126975812D01*
X143744180Y-126939502D01*
X143854494Y-126880537D01*
X143951185Y-126801185D01*
X144030537Y-126704494D01*
X144089502Y-126594180D01*
X144125812Y-126474482D01*
X144138072Y-126350000D01*
X144135000Y-125485750D01*
X143976250Y-125327000D01*
X142377000Y-125327000D01*
X142123000Y-125327000D01*
X140523750Y-125327000D01*
X140365000Y-125485750D01*
X140361928Y-126350000D01*
X139838072Y-126350000D01*
X139838072Y-126196758D01*
X139932026Y-126020982D01*
X140054108Y-125618533D01*
X140095330Y-125200000D01*
X140054108Y-124781467D01*
X139932026Y-124379018D01*
X139838072Y-124203242D01*
X139838072Y-124050000D01*
X140361928Y-124050000D01*
X140365000Y-124914250D01*
X140523750Y-125073000D01*
X142123000Y-125073000D01*
X142123000Y-123573750D01*
X142377000Y-123573750D01*
X142377000Y-125073000D01*
X143976250Y-125073000D01*
X144135000Y-124914250D01*
X144138072Y-124050000D01*
X144125812Y-123925518D01*
X144089502Y-123805820D01*
X144030537Y-123695506D01*
X143951185Y-123598815D01*
X143854494Y-123519463D01*
X143744180Y-123460498D01*
X143624482Y-123424188D01*
X143500000Y-123411928D01*
X142535750Y-123415000D01*
X142377000Y-123573750D01*
X142123000Y-123573750D01*
X141964250Y-123415000D01*
X141000000Y-123411928D01*
X140875518Y-123424188D01*
X140755820Y-123460498D01*
X140645506Y-123519463D01*
X140548815Y-123598815D01*
X140469463Y-123695506D01*
X140410498Y-123805820D01*
X140374188Y-123925518D01*
X140361928Y-124050000D01*
X139838072Y-124050000D01*
X139825812Y-123925518D01*
X139789502Y-123805820D01*
X139730537Y-123695506D01*
X139651185Y-123598815D01*
X139554494Y-123519463D01*
X139444180Y-123460498D01*
X139385000Y-123442546D01*
X139385000Y-122168037D01*
X139391701Y-122100000D01*
X139364960Y-121828493D01*
X139336674Y-121735245D01*
X139689250Y-121735000D01*
X139848000Y-121576250D01*
X139848000Y-115827000D01*
X134798750Y-115827000D01*
X134640000Y-115985750D01*
X134636928Y-121100000D01*
X134649188Y-121224482D01*
X134685498Y-121344180D01*
X134744463Y-121454494D01*
X134823815Y-121551185D01*
X134860122Y-121580981D01*
X134785040Y-121828493D01*
X134758299Y-122100000D01*
X134785040Y-122371507D01*
X134864236Y-122632581D01*
X134933373Y-122761928D01*
X133650000Y-122761928D01*
X133525518Y-122774188D01*
X133405820Y-122810498D01*
X133295506Y-122869463D01*
X133198815Y-122948815D01*
X133119463Y-123045506D01*
X133060498Y-123155820D01*
X133024188Y-123275518D01*
X133011928Y-123400000D01*
X133011928Y-123730578D01*
X132866224Y-123908119D01*
X132667975Y-124279018D01*
X132545893Y-124681467D01*
X132504671Y-125100000D01*
X130588072Y-125100000D01*
X130588072Y-123400000D01*
X130575812Y-123275518D01*
X130539502Y-123155820D01*
X130480537Y-123045506D01*
X130401185Y-122948815D01*
X130304494Y-122869463D01*
X130194180Y-122810498D01*
X130074482Y-122774188D01*
X129950000Y-122761928D01*
X128570613Y-122761928D01*
X128135000Y-122326315D01*
X128135000Y-120151398D01*
X128170506Y-120180537D01*
X128280820Y-120239502D01*
X128400518Y-120275812D01*
X128525000Y-120288072D01*
X130539250Y-120285000D01*
X130698000Y-120126250D01*
X130698000Y-119227000D01*
X130952000Y-119227000D01*
X130952000Y-120126250D01*
X131110750Y-120285000D01*
X133125000Y-120288072D01*
X133249482Y-120275812D01*
X133369180Y-120239502D01*
X133479494Y-120180537D01*
X133576185Y-120101185D01*
X133655537Y-120004494D01*
X133714502Y-119894180D01*
X133750812Y-119774482D01*
X133763072Y-119650000D01*
X133760000Y-119385750D01*
X133601250Y-119227000D01*
X130952000Y-119227000D01*
X130698000Y-119227000D01*
X130678000Y-119227000D01*
X130678000Y-118973000D01*
X130698000Y-118973000D01*
X130698000Y-118953000D01*
X130952000Y-118953000D01*
X130952000Y-118973000D01*
X133601250Y-118973000D01*
X133760000Y-118814250D01*
X133763072Y-118550000D01*
X133750812Y-118425518D01*
X133714502Y-118305820D01*
X133684665Y-118250000D01*
X133714502Y-118194180D01*
X133750812Y-118074482D01*
X133763072Y-117950000D01*
X133763072Y-116850000D01*
X133750812Y-116725518D01*
X133714502Y-116605820D01*
X133684665Y-116550000D01*
X133714502Y-116494180D01*
X133750812Y-116374482D01*
X133763072Y-116250000D01*
X133760000Y-115985750D01*
X133601250Y-115827000D01*
X130952000Y-115827000D01*
X130952000Y-115847000D01*
X130698000Y-115847000D01*
X130698000Y-115827000D01*
X130678000Y-115827000D01*
X130678000Y-115573000D01*
X130698000Y-115573000D01*
X130698000Y-115553000D01*
X130952000Y-115553000D01*
X130952000Y-115573000D01*
X133601250Y-115573000D01*
X133760000Y-115414250D01*
X133763072Y-115150000D01*
X133750812Y-115025518D01*
X133714502Y-114905820D01*
X133684665Y-114850000D01*
X133714502Y-114794180D01*
X133750812Y-114674482D01*
X133763072Y-114550000D01*
X133763072Y-113450000D01*
X133750812Y-113325518D01*
X133714502Y-113205820D01*
X133684665Y-113150000D01*
X133714502Y-113094180D01*
X133750812Y-112974482D01*
X133763072Y-112850000D01*
X133763072Y-111750000D01*
X133750812Y-111625518D01*
X133714502Y-111505820D01*
X133655537Y-111395506D01*
X133576185Y-111298815D01*
X133479494Y-111219463D01*
X133369180Y-111160498D01*
X133249482Y-111124188D01*
X133125000Y-111111928D01*
X131596840Y-111111928D01*
X131559083Y-111065921D01*
X131348190Y-110892845D01*
X131107583Y-110764238D01*
X130846509Y-110685042D01*
X130643039Y-110665002D01*
X130643031Y-110665002D01*
X130575002Y-110658302D01*
X130506973Y-110665002D01*
X120314398Y-110665002D01*
X120134759Y-110485363D01*
X119899727Y-110328320D01*
X119831357Y-110300000D01*
X134636928Y-110300000D01*
X134640000Y-115414250D01*
X134798750Y-115573000D01*
X139848000Y-115573000D01*
X139848000Y-109823750D01*
X139689250Y-109665000D01*
X135275000Y-109661928D01*
X135150518Y-109674188D01*
X135030820Y-109710498D01*
X134920506Y-109769463D01*
X134823815Y-109848815D01*
X134744463Y-109945506D01*
X134685498Y-110055820D01*
X134649188Y-110175518D01*
X134636928Y-110300000D01*
X119831357Y-110300000D01*
X119638574Y-110220147D01*
X119361335Y-110165000D01*
X119078665Y-110165000D01*
X118801426Y-110220147D01*
X118540273Y-110328320D01*
X118381782Y-110434220D01*
X118271937Y-110269826D01*
X118127774Y-110125663D01*
X117958256Y-110012395D01*
X117769898Y-109934374D01*
X117569939Y-109894600D01*
X117366061Y-109894600D01*
X117166102Y-109934374D01*
X117004972Y-110001117D01*
X117003214Y-109995323D01*
X116932642Y-109863294D01*
X116837669Y-109747569D01*
X116808666Y-109723767D01*
X116636400Y-109551501D01*
X116612597Y-109522497D01*
X116496872Y-109427524D01*
X116364843Y-109356952D01*
X116221582Y-109313495D01*
X116109929Y-109302498D01*
X116109918Y-109302498D01*
X116072596Y-109298822D01*
X116035274Y-109302498D01*
X110989822Y-109302498D01*
X110952499Y-109298822D01*
X110915176Y-109302498D01*
X110915167Y-109302498D01*
X110803514Y-109313495D01*
X110660253Y-109356952D01*
X110528224Y-109427524D01*
X110412499Y-109522497D01*
X110388700Y-109551496D01*
X109963997Y-109976200D01*
X109934999Y-109999998D01*
X109911201Y-110028996D01*
X109911200Y-110028997D01*
X109840025Y-110115723D01*
X109769453Y-110247753D01*
X109748465Y-110316945D01*
X109725997Y-110391013D01*
X109718739Y-110464700D01*
X109711323Y-110539999D01*
X109715000Y-110577331D01*
X109714999Y-120597677D01*
X109711323Y-120634999D01*
X109714999Y-120672321D01*
X109714999Y-120672331D01*
X109725996Y-120783984D01*
X109760886Y-120899002D01*
X109769453Y-120927245D01*
X109840025Y-121059275D01*
X109878379Y-121106009D01*
X109934998Y-121175000D01*
X109964001Y-121198803D01*
X110201312Y-121436113D01*
X110165000Y-121618665D01*
X110165000Y-121901335D01*
X110220147Y-122178574D01*
X110328320Y-122439727D01*
X110485363Y-122674759D01*
X110685241Y-122874637D01*
X110917759Y-123030000D01*
X110685241Y-123185363D01*
X110485363Y-123385241D01*
X110328320Y-123620273D01*
X110220147Y-123881426D01*
X110165000Y-124158665D01*
X110165000Y-124441335D01*
X110220147Y-124718574D01*
X110328320Y-124979727D01*
X110485363Y-125214759D01*
X110685241Y-125414637D01*
X110917759Y-125570000D01*
X110685241Y-125725363D01*
X110485363Y-125925241D01*
X110328320Y-126160273D01*
X110220147Y-126421426D01*
X110165000Y-126698665D01*
X110165000Y-126981335D01*
X110220147Y-127258574D01*
X110328320Y-127519727D01*
X110485363Y-127754759D01*
X110685241Y-127954637D01*
X110920273Y-128111680D01*
X110930865Y-128116067D01*
X110744869Y-128227615D01*
X110536481Y-128416586D01*
X110368963Y-128642580D01*
X110248754Y-128896913D01*
X110208096Y-129030961D01*
X110330085Y-129253000D01*
X111473000Y-129253000D01*
X111473000Y-129233000D01*
X111727000Y-129233000D01*
X111727000Y-129253000D01*
X112869915Y-129253000D01*
X112991904Y-129030961D01*
X112951246Y-128896913D01*
X112831037Y-128642580D01*
X112663519Y-128416586D01*
X112455131Y-128227615D01*
X112269135Y-128116067D01*
X112279727Y-128111680D01*
X112514759Y-127954637D01*
X112714637Y-127754759D01*
X112871680Y-127519727D01*
X112979853Y-127258574D01*
X113035000Y-126981335D01*
X113035000Y-126698665D01*
X112979853Y-126421426D01*
X112871680Y-126160273D01*
X112714637Y-125925241D01*
X112514759Y-125725363D01*
X112383833Y-125637881D01*
X114191977Y-125637881D01*
X114195000Y-125664250D01*
X114353750Y-125823000D01*
X114973000Y-125823000D01*
X114973000Y-125153750D01*
X114814250Y-124995000D01*
X114697798Y-125005774D01*
X114578558Y-125043559D01*
X114468980Y-125103882D01*
X114373276Y-125184422D01*
X114295124Y-125282086D01*
X114237527Y-125393121D01*
X114202699Y-125513258D01*
X114191977Y-125637881D01*
X112383833Y-125637881D01*
X112282241Y-125570000D01*
X112514759Y-125414637D01*
X112714637Y-125214759D01*
X112871680Y-124979727D01*
X112979853Y-124718574D01*
X112989879Y-124668168D01*
X113159461Y-124701900D01*
X113363339Y-124701900D01*
X113563298Y-124662126D01*
X113751656Y-124584105D01*
X113811448Y-124544153D01*
X113870503Y-124592618D01*
X114019717Y-124672375D01*
X114181623Y-124721488D01*
X114350000Y-124738072D01*
X114850000Y-124738072D01*
X115018377Y-124721488D01*
X115180283Y-124672375D01*
X115329497Y-124592618D01*
X115460284Y-124485284D01*
X115567618Y-124354497D01*
X115647375Y-124205283D01*
X115656561Y-124175000D01*
X116086928Y-124175000D01*
X116099188Y-124299482D01*
X116135498Y-124419180D01*
X116194463Y-124529494D01*
X116273815Y-124626185D01*
X116370506Y-124705537D01*
X116480820Y-124764502D01*
X116600518Y-124800812D01*
X116725000Y-124813072D01*
X116914250Y-124810000D01*
X117073000Y-124651250D01*
X117073000Y-123852000D01*
X116248750Y-123852000D01*
X116090000Y-124010750D01*
X116086928Y-124175000D01*
X115656561Y-124175000D01*
X115696488Y-124043377D01*
X115713072Y-123875000D01*
X115713072Y-123425000D01*
X115696488Y-123256623D01*
X115647375Y-123094717D01*
X115567618Y-122945503D01*
X115509758Y-122875000D01*
X115567618Y-122804497D01*
X115647375Y-122655283D01*
X115696488Y-122493377D01*
X115713072Y-122325000D01*
X115713072Y-122193487D01*
X115824702Y-122239726D01*
X116024661Y-122279500D01*
X116086928Y-122279500D01*
X116086928Y-122400000D01*
X116103512Y-122568377D01*
X116152625Y-122730283D01*
X116230700Y-122876351D01*
X116194463Y-122920506D01*
X116135498Y-123030820D01*
X116099188Y-123150518D01*
X116086928Y-123275000D01*
X116090000Y-123439250D01*
X116248750Y-123598000D01*
X117073000Y-123598000D01*
X117073000Y-123578000D01*
X117327000Y-123578000D01*
X117327000Y-123598000D01*
X117347000Y-123598000D01*
X117347000Y-123852000D01*
X117327000Y-123852000D01*
X117327000Y-124651250D01*
X117485750Y-124810000D01*
X117675000Y-124813072D01*
X117799482Y-124800812D01*
X117865869Y-124780674D01*
X117948320Y-124979727D01*
X118105363Y-125214759D01*
X118305241Y-125414637D01*
X118537759Y-125570000D01*
X118305241Y-125725363D01*
X118105363Y-125925241D01*
X117962975Y-126138340D01*
X117886315Y-126215000D01*
X117124801Y-126215000D01*
X117028072Y-126118271D01*
X117028072Y-125765000D01*
X117013218Y-125614181D01*
X116969225Y-125469158D01*
X116897786Y-125335504D01*
X116801644Y-125218356D01*
X116684496Y-125122214D01*
X116550842Y-125050775D01*
X116405819Y-125006782D01*
X116255000Y-124991928D01*
X115985000Y-124991928D01*
X115834181Y-125006782D01*
X115689158Y-125050775D01*
X115661451Y-125065584D01*
X115621442Y-125043559D01*
X115502202Y-125005774D01*
X115385750Y-124995000D01*
X115227000Y-125153750D01*
X115227000Y-125613462D01*
X115226782Y-125614181D01*
X115211928Y-125765000D01*
X115211928Y-126097000D01*
X114973000Y-126097000D01*
X114973000Y-126077000D01*
X114353750Y-126077000D01*
X114195000Y-126235750D01*
X114191977Y-126262119D01*
X114202699Y-126386742D01*
X114237527Y-126506879D01*
X114240625Y-126512851D01*
X114125518Y-126524188D01*
X114005820Y-126560498D01*
X113895506Y-126619463D01*
X113798815Y-126698815D01*
X113719463Y-126795506D01*
X113660498Y-126905820D01*
X113624188Y-127025518D01*
X113611928Y-127150000D01*
X113615000Y-127314250D01*
X113773750Y-127473000D01*
X114523000Y-127473000D01*
X114523000Y-127453000D01*
X114777000Y-127453000D01*
X114777000Y-127473000D01*
X114797000Y-127473000D01*
X114797000Y-127727000D01*
X114777000Y-127727000D01*
X114777000Y-127747000D01*
X114523000Y-127747000D01*
X114523000Y-127727000D01*
X113773750Y-127727000D01*
X113615000Y-127885750D01*
X113611928Y-128050000D01*
X113624188Y-128174482D01*
X113660498Y-128294180D01*
X113719463Y-128404494D01*
X113798815Y-128501185D01*
X113895506Y-128580537D01*
X114005820Y-128639502D01*
X114125518Y-128675812D01*
X114250000Y-128688072D01*
X114364250Y-128685000D01*
X114522998Y-128526252D01*
X114522998Y-128685000D01*
X114559225Y-128685000D01*
X114442843Y-128826812D01*
X114314236Y-129067419D01*
X114235040Y-129328493D01*
X114208299Y-129600000D01*
X114235040Y-129871507D01*
X114314236Y-130132581D01*
X114425104Y-130340000D01*
X112666050Y-130340000D01*
X112831037Y-130117420D01*
X112951246Y-129863087D01*
X112991904Y-129729039D01*
X112869915Y-129507000D01*
X111727000Y-129507000D01*
X111727000Y-129527000D01*
X111473000Y-129527000D01*
X111473000Y-129507000D01*
X110330085Y-129507000D01*
X110208096Y-129729039D01*
X110248754Y-129863087D01*
X110368963Y-130117420D01*
X110533950Y-130340000D01*
X108660000Y-130340000D01*
X108660000Y-108660000D01*
X144340000Y-108660000D01*
X144340000Y-109662161D01*
G37*
%TD.AperFunction*%
D26*
X124587000Y-130223000D02*
X124607000Y-130223000D01*
X124607000Y-130340000D01*
X124348072Y-130340000D01*
X124348072Y-130203000D01*
X124587000Y-130203000D01*
X124587000Y-130223000D01*
%TA.AperFunction,Conductor*%
D27*
G36*
X124587000Y-130223000D02*
G01*
X124607000Y-130223000D01*
X124607000Y-130340000D01*
X124348072Y-130340000D01*
X124348072Y-130203000D01*
X124587000Y-130203000D01*
X124587000Y-130223000D01*
G37*
%TD.AperFunction*%
D26*
X121487000Y-122615400D02*
X121497386Y-122740052D01*
X121531891Y-122860282D01*
X121589189Y-122971471D01*
X121667078Y-123069346D01*
X121762564Y-123150144D01*
X121871979Y-123210761D01*
X121991117Y-123248868D01*
X122093250Y-123260000D01*
X122252000Y-123101250D01*
X122252000Y-122917622D01*
X122261316Y-122935051D01*
X122353104Y-123046896D01*
X122398000Y-123083741D01*
X122398000Y-123101250D01*
X122556750Y-123260000D01*
X122603419Y-123254913D01*
X122565000Y-123448061D01*
X122565000Y-123651939D01*
X122604774Y-123851898D01*
X122682795Y-124040256D01*
X122796063Y-124209774D01*
X122940226Y-124353937D01*
X123109744Y-124467205D01*
X123298102Y-124545226D01*
X123498061Y-124585000D01*
X123701939Y-124585000D01*
X123901898Y-124545226D01*
X124090256Y-124467205D01*
X124259774Y-124353937D01*
X124403937Y-124209774D01*
X124517205Y-124040256D01*
X124595226Y-123851898D01*
X124635000Y-123651939D01*
X124635000Y-123448061D01*
X124603774Y-123291076D01*
X124690002Y-123377303D01*
X124690001Y-124112678D01*
X124686325Y-124150001D01*
X124690001Y-124187323D01*
X124690001Y-124187333D01*
X124700998Y-124298986D01*
X124736464Y-124415903D01*
X124744455Y-124442247D01*
X124815000Y-124574226D01*
X124815000Y-124651939D01*
X124854774Y-124851898D01*
X124932795Y-125040256D01*
X125046063Y-125209774D01*
X125190226Y-125353937D01*
X125351201Y-125461497D01*
X124740628Y-126072071D01*
X124720126Y-125969002D01*
X124642105Y-125780644D01*
X124528837Y-125611126D01*
X124384674Y-125466963D01*
X124215156Y-125353695D01*
X124026798Y-125275674D01*
X123826839Y-125235900D01*
X123622961Y-125235900D01*
X123423002Y-125275674D01*
X123234644Y-125353695D01*
X123065126Y-125466963D01*
X122920963Y-125611126D01*
X122807695Y-125780644D01*
X122729674Y-125969002D01*
X122689900Y-126168961D01*
X122689900Y-126263580D01*
X122650000Y-126275684D01*
X122568991Y-126251110D01*
X122534939Y-126247756D01*
X122495226Y-126048102D01*
X122417205Y-125859744D01*
X122303937Y-125690226D01*
X122159774Y-125546063D01*
X121990256Y-125432795D01*
X121801898Y-125354774D01*
X121601939Y-125315000D01*
X121398061Y-125315000D01*
X121198102Y-125354774D01*
X121009744Y-125432795D01*
X120840226Y-125546063D01*
X120696063Y-125690226D01*
X120582795Y-125859744D01*
X120504774Y-126048102D01*
X120484577Y-126149642D01*
X120334637Y-125925241D01*
X120134759Y-125725363D01*
X119902241Y-125570000D01*
X120134759Y-125414637D01*
X120334637Y-125214759D01*
X120491680Y-124979727D01*
X120599853Y-124718574D01*
X120655000Y-124441335D01*
X120655000Y-124158665D01*
X120599853Y-123881426D01*
X120491680Y-123620273D01*
X120347023Y-123403778D01*
X121489402Y-122261400D01*
X121487000Y-122615400D01*
%TA.AperFunction,Conductor*%
D27*
G36*
X121487000Y-122615400D02*
G01*
X121497386Y-122740052D01*
X121531891Y-122860282D01*
X121589189Y-122971471D01*
X121667078Y-123069346D01*
X121762564Y-123150144D01*
X121871979Y-123210761D01*
X121991117Y-123248868D01*
X122093250Y-123260000D01*
X122252000Y-123101250D01*
X122252000Y-122917622D01*
X122261316Y-122935051D01*
X122353104Y-123046896D01*
X122398000Y-123083741D01*
X122398000Y-123101250D01*
X122556750Y-123260000D01*
X122603419Y-123254913D01*
X122565000Y-123448061D01*
X122565000Y-123651939D01*
X122604774Y-123851898D01*
X122682795Y-124040256D01*
X122796063Y-124209774D01*
X122940226Y-124353937D01*
X123109744Y-124467205D01*
X123298102Y-124545226D01*
X123498061Y-124585000D01*
X123701939Y-124585000D01*
X123901898Y-124545226D01*
X124090256Y-124467205D01*
X124259774Y-124353937D01*
X124403937Y-124209774D01*
X124517205Y-124040256D01*
X124595226Y-123851898D01*
X124635000Y-123651939D01*
X124635000Y-123448061D01*
X124603774Y-123291076D01*
X124690002Y-123377303D01*
X124690001Y-124112678D01*
X124686325Y-124150001D01*
X124690001Y-124187323D01*
X124690001Y-124187333D01*
X124700998Y-124298986D01*
X124736464Y-124415903D01*
X124744455Y-124442247D01*
X124815000Y-124574226D01*
X124815000Y-124651939D01*
X124854774Y-124851898D01*
X124932795Y-125040256D01*
X125046063Y-125209774D01*
X125190226Y-125353937D01*
X125351201Y-125461497D01*
X124740628Y-126072071D01*
X124720126Y-125969002D01*
X124642105Y-125780644D01*
X124528837Y-125611126D01*
X124384674Y-125466963D01*
X124215156Y-125353695D01*
X124026798Y-125275674D01*
X123826839Y-125235900D01*
X123622961Y-125235900D01*
X123423002Y-125275674D01*
X123234644Y-125353695D01*
X123065126Y-125466963D01*
X122920963Y-125611126D01*
X122807695Y-125780644D01*
X122729674Y-125969002D01*
X122689900Y-126168961D01*
X122689900Y-126263580D01*
X122650000Y-126275684D01*
X122568991Y-126251110D01*
X122534939Y-126247756D01*
X122495226Y-126048102D01*
X122417205Y-125859744D01*
X122303937Y-125690226D01*
X122159774Y-125546063D01*
X121990256Y-125432795D01*
X121801898Y-125354774D01*
X121601939Y-125315000D01*
X121398061Y-125315000D01*
X121198102Y-125354774D01*
X121009744Y-125432795D01*
X120840226Y-125546063D01*
X120696063Y-125690226D01*
X120582795Y-125859744D01*
X120504774Y-126048102D01*
X120484577Y-126149642D01*
X120334637Y-125925241D01*
X120134759Y-125725363D01*
X119902241Y-125570000D01*
X120134759Y-125414637D01*
X120334637Y-125214759D01*
X120491680Y-124979727D01*
X120599853Y-124718574D01*
X120655000Y-124441335D01*
X120655000Y-124158665D01*
X120599853Y-123881426D01*
X120491680Y-123620273D01*
X120347023Y-123403778D01*
X121489402Y-122261400D01*
X121487000Y-122615400D01*
G37*
%TD.AperFunction*%
D26*
X122740801Y-118947000D02*
X122623000Y-118947000D01*
X122623000Y-118927000D01*
X122603000Y-118927000D01*
X122603000Y-118673000D01*
X122623000Y-118673000D01*
X122623000Y-118653000D01*
X122740800Y-118653000D01*
X122740801Y-118947000D01*
%TA.AperFunction,Conductor*%
D27*
G36*
X122740801Y-118947000D02*
G01*
X122623000Y-118947000D01*
X122623000Y-118927000D01*
X122603000Y-118927000D01*
X122603000Y-118673000D01*
X122623000Y-118673000D01*
X122623000Y-118653000D01*
X122740800Y-118653000D01*
X122740801Y-118947000D01*
G37*
%TD.AperFunction*%
D26*
X114260675Y-110911928D02*
X114200000Y-110911928D01*
X114096052Y-110922166D01*
X114035040Y-110915367D01*
X114035040Y-110822498D01*
X114260675Y-110822498D01*
X114260675Y-110911928D01*
%TA.AperFunction,Conductor*%
D27*
G36*
X114260675Y-110911928D02*
G01*
X114200000Y-110911928D01*
X114096052Y-110922166D01*
X114035040Y-110915367D01*
X114035040Y-110822498D01*
X114260675Y-110822498D01*
X114260675Y-110911928D01*
G37*
%TD.AperFunction*%
%TD*%
M02*
