%TF.GenerationSoftware,KiCad,Pcbnew,5.1.7-a382d34a8~88~ubuntu18.04.1*%
%TF.CreationDate,2021-05-09T09:36:21-04:00*%
%TF.ProjectId,salt_replacement,73616c74-5f72-4657-906c-6163656d656e,1.0.0*%
%TF.SameCoordinates,Original*%
%TF.FileFunction,Legend,Top*%
%TF.FilePolarity,Positive*%
%FSLAX46Y46*%
G04 Gerber Fmt 4.6, Leading zero omitted, Abs format (unit mm)*
G04 Created by KiCad (PCBNEW 5.1.7-a382d34a8~88~ubuntu18.04.1) date 2021-05-09 09:36:21*
%MOMM*%
%LPD*%
G01*
G04 APERTURE LIST*
%ADD10C,0.150000*%
%ADD11C,0.120000*%
G04 APERTURE END LIST*
D10*
X121426190Y-112652380D02*
X121092857Y-112176190D01*
X120854761Y-112652380D02*
X120854761Y-111652380D01*
X121235714Y-111652380D01*
X121330952Y-111700000D01*
X121378571Y-111747619D01*
X121426190Y-111842857D01*
X121426190Y-111985714D01*
X121378571Y-112080952D01*
X121330952Y-112128571D01*
X121235714Y-112176190D01*
X120854761Y-112176190D01*
X121997619Y-112652380D02*
X121902380Y-112604761D01*
X121854761Y-112557142D01*
X121807142Y-112461904D01*
X121807142Y-112176190D01*
X121854761Y-112080952D01*
X121902380Y-112033333D01*
X121997619Y-111985714D01*
X122140476Y-111985714D01*
X122235714Y-112033333D01*
X122283333Y-112080952D01*
X122330952Y-112176190D01*
X122330952Y-112461904D01*
X122283333Y-112557142D01*
X122235714Y-112604761D01*
X122140476Y-112652380D01*
X121997619Y-112652380D01*
X123188095Y-112604761D02*
X123092857Y-112652380D01*
X122902380Y-112652380D01*
X122807142Y-112604761D01*
X122759523Y-112557142D01*
X122711904Y-112461904D01*
X122711904Y-112176190D01*
X122759523Y-112080952D01*
X122807142Y-112033333D01*
X122902380Y-111985714D01*
X123092857Y-111985714D01*
X123188095Y-112033333D01*
X123616666Y-112652380D02*
X123616666Y-111652380D01*
X123711904Y-112271428D02*
X123997619Y-112652380D01*
X123997619Y-111985714D02*
X123616666Y-112366666D01*
X124330952Y-111985714D02*
X124569047Y-112652380D01*
X124807142Y-111985714D02*
X124569047Y-112652380D01*
X124473809Y-112890476D01*
X124426190Y-112938095D01*
X124330952Y-112985714D01*
X125950000Y-112652380D02*
X125950000Y-111652380D01*
X125950000Y-112128571D02*
X126521428Y-112128571D01*
X126521428Y-112652380D02*
X126521428Y-111652380D01*
X126997619Y-112652380D02*
X126997619Y-111985714D01*
X126997619Y-111652380D02*
X126950000Y-111700000D01*
X126997619Y-111747619D01*
X127045238Y-111700000D01*
X126997619Y-111652380D01*
X126997619Y-111747619D01*
X127616666Y-112652380D02*
X127521428Y-112604761D01*
X127473809Y-112509523D01*
X127473809Y-111652380D01*
X128140476Y-112652380D02*
X128045238Y-112604761D01*
X127997619Y-112509523D01*
X127997619Y-111652380D01*
X136192857Y-129102380D02*
X135859523Y-128626190D01*
X135621428Y-129102380D02*
X135621428Y-128102380D01*
X136002380Y-128102380D01*
X136097619Y-128150000D01*
X136145238Y-128197619D01*
X136192857Y-128292857D01*
X136192857Y-128435714D01*
X136145238Y-128530952D01*
X136097619Y-128578571D01*
X136002380Y-128626190D01*
X135621428Y-128626190D01*
X136621428Y-128578571D02*
X136954761Y-128578571D01*
X137097619Y-129102380D02*
X136621428Y-129102380D01*
X136621428Y-128102380D01*
X137097619Y-128102380D01*
X137383333Y-128102380D02*
X137716666Y-129102380D01*
X138050000Y-128102380D01*
X139669047Y-129102380D02*
X139097619Y-129102380D01*
X139383333Y-129102380D02*
X139383333Y-128102380D01*
X139288095Y-128245238D01*
X139192857Y-128340476D01*
X139097619Y-128388095D01*
X140097619Y-129007142D02*
X140145238Y-129054761D01*
X140097619Y-129102380D01*
X140050000Y-129054761D01*
X140097619Y-129007142D01*
X140097619Y-129102380D01*
X140764285Y-128102380D02*
X140859523Y-128102380D01*
X140954761Y-128150000D01*
X141002380Y-128197619D01*
X141050000Y-128292857D01*
X141097619Y-128483333D01*
X141097619Y-128721428D01*
X141050000Y-128911904D01*
X141002380Y-129007142D01*
X140954761Y-129054761D01*
X140859523Y-129102380D01*
X140764285Y-129102380D01*
X140669047Y-129054761D01*
X140621428Y-129007142D01*
X140573809Y-128911904D01*
X140526190Y-128721428D01*
X140526190Y-128483333D01*
X140573809Y-128292857D01*
X140621428Y-128197619D01*
X140669047Y-128150000D01*
X140764285Y-128102380D01*
X141526190Y-129007142D02*
X141573809Y-129054761D01*
X141526190Y-129102380D01*
X141478571Y-129054761D01*
X141526190Y-129007142D01*
X141526190Y-129102380D01*
X142192857Y-128102380D02*
X142288095Y-128102380D01*
X142383333Y-128150000D01*
X142430952Y-128197619D01*
X142478571Y-128292857D01*
X142526190Y-128483333D01*
X142526190Y-128721428D01*
X142478571Y-128911904D01*
X142430952Y-129007142D01*
X142383333Y-129054761D01*
X142288095Y-129102380D01*
X142192857Y-129102380D01*
X142097619Y-129054761D01*
X142050000Y-129007142D01*
X142002380Y-128911904D01*
X141954761Y-128721428D01*
X141954761Y-128483333D01*
X142002380Y-128292857D01*
X142050000Y-128197619D01*
X142097619Y-128150000D01*
X142192857Y-128102380D01*
D11*
%TO.C,J1*%
X120550000Y-110210000D02*
X110270000Y-110210000D01*
X120550000Y-130770000D02*
X120550000Y-110210000D01*
X110270000Y-130770000D02*
X120550000Y-130770000D01*
X110270000Y-110210000D02*
X110270000Y-130770000D01*
X118060000Y-110270000D02*
X116410000Y-110270000D01*
X118060000Y-130710000D02*
X118060000Y-110270000D01*
X112760000Y-130710000D02*
X118060000Y-130710000D01*
X112760000Y-110270000D02*
X112760000Y-130710000D01*
X114410000Y-110270000D02*
X112760000Y-110270000D01*
X116410000Y-110270000D02*
G75*
G02*
X114410000Y-110270000I-1000000J0D01*
G01*
%TO.C,D1*%
X136550000Y-123050000D02*
X142250000Y-123050000D01*
X136550000Y-127350000D02*
X142250000Y-127350000D01*
X136550000Y-123050000D02*
X136550000Y-127350000D01*
%TO.C,L1*%
X129050000Y-121740000D02*
X134550000Y-121740000D01*
X135160000Y-122350000D02*
X135160000Y-123200000D01*
X128440000Y-123200000D02*
X128440000Y-122350000D01*
X128440000Y-127850000D02*
X128440000Y-127000000D01*
X134550000Y-128460000D02*
X129050000Y-128460000D01*
X135160000Y-127000000D02*
X135160000Y-127850000D01*
X135160000Y-127850000D02*
G75*
G02*
X134550000Y-128460000I-610000J0D01*
G01*
X129050000Y-128460000D02*
G75*
G02*
X128440000Y-127850000I0J610000D01*
G01*
X134550000Y-121740000D02*
G75*
G02*
X135160000Y-122350000I0J-610000D01*
G01*
X128440000Y-122350000D02*
G75*
G02*
X129050000Y-121740000I610000J0D01*
G01*
%TO.C,Q1*%
X114020000Y-129360000D02*
X114020000Y-127900000D01*
X117180000Y-129360000D02*
X117180000Y-127200000D01*
X117180000Y-129360000D02*
X116250000Y-129360000D01*
X114020000Y-129360000D02*
X114950000Y-129360000D01*
%TO.C,U1*%
X133650000Y-119950000D02*
X132550000Y-119950000D01*
X133650000Y-120900000D02*
X133650000Y-119950000D01*
X135150000Y-120900000D02*
X133650000Y-120900000D01*
X133650000Y-111450000D02*
X128525000Y-111450000D01*
X133650000Y-110500000D02*
X133650000Y-111450000D01*
X135150000Y-110500000D02*
X133650000Y-110500000D01*
D10*
%TO.C,U2*%
X112575000Y-118225000D02*
X112575000Y-112600000D01*
X118125000Y-117100000D02*
X118125000Y-112600000D01*
D11*
%TO.C,C6*%
X113762164Y-120060000D02*
X113977836Y-120060000D01*
X113762164Y-119340000D02*
X113977836Y-119340000D01*
%TO.C,C7*%
X116309420Y-119640000D02*
X116590580Y-119640000D01*
X116309420Y-120660000D02*
X116590580Y-120660000D01*
%TO.C,C8*%
X115110000Y-123015580D02*
X115110000Y-122734420D01*
X114090000Y-123015580D02*
X114090000Y-122734420D01*
%TO.C,C9*%
X117710000Y-123090580D02*
X117710000Y-122809420D01*
X116690000Y-123090580D02*
X116690000Y-122809420D01*
%TO.C,R2*%
X115763641Y-125570000D02*
X115456359Y-125570000D01*
X115763641Y-126330000D02*
X115456359Y-126330000D01*
%TO.C,U3*%
X124910000Y-124750000D02*
X124910000Y-121150000D01*
X124910000Y-124750000D02*
X124910000Y-126950000D01*
X121690000Y-124750000D02*
X121690000Y-122550000D01*
X121690000Y-124750000D02*
X121690000Y-126950000D01*
%TO.C,D2*%
X122150000Y-118800000D02*
X122150000Y-116950000D01*
X123350000Y-118800000D02*
X123350000Y-116950000D01*
X123350000Y-116950000D02*
X122150000Y-116950000D01*
%TO.C,R1*%
X124603641Y-117730000D02*
X124296359Y-117730000D01*
X124603641Y-116970000D02*
X124296359Y-116970000D01*
%TO.C,R3*%
X125420000Y-129746359D02*
X125420000Y-130053641D01*
X126180000Y-129746359D02*
X126180000Y-130053641D01*
%TO.C,R4*%
X124680000Y-119396359D02*
X124680000Y-119703641D01*
X123920000Y-119396359D02*
X123920000Y-119703641D01*
%TO.C,R5*%
X120920000Y-119096359D02*
X120920000Y-119403641D01*
X121680000Y-119096359D02*
X121680000Y-119403641D01*
%TO.C,R6*%
X122953641Y-119720000D02*
X122646359Y-119720000D01*
X122953641Y-120480000D02*
X122646359Y-120480000D01*
%TO.C,R7*%
X122003641Y-130180000D02*
X121696359Y-130180000D01*
X122003641Y-129420000D02*
X121696359Y-129420000D01*
%TO.C,R8*%
X123796359Y-129970000D02*
X124103641Y-129970000D01*
X123796359Y-130730000D02*
X124103641Y-130730000D01*
%TO.C,J1*%
D10*
X116666666Y-111152380D02*
X116666666Y-111866666D01*
X116619047Y-112009523D01*
X116523809Y-112104761D01*
X116380952Y-112152380D01*
X116285714Y-112152380D01*
X117666666Y-112152380D02*
X117095238Y-112152380D01*
X117380952Y-112152380D02*
X117380952Y-111152380D01*
X117285714Y-111295238D01*
X117190476Y-111390476D01*
X117095238Y-111438095D01*
%TO.C,D1*%
X139361904Y-122652380D02*
X139361904Y-121652380D01*
X139600000Y-121652380D01*
X139742857Y-121700000D01*
X139838095Y-121795238D01*
X139885714Y-121890476D01*
X139933333Y-122080952D01*
X139933333Y-122223809D01*
X139885714Y-122414285D01*
X139838095Y-122509523D01*
X139742857Y-122604761D01*
X139600000Y-122652380D01*
X139361904Y-122652380D01*
X140885714Y-122652380D02*
X140314285Y-122652380D01*
X140600000Y-122652380D02*
X140600000Y-121652380D01*
X140504761Y-121795238D01*
X140409523Y-121890476D01*
X140314285Y-121938095D01*
%TO.C,L1*%
X131633333Y-129752380D02*
X131157142Y-129752380D01*
X131157142Y-128752380D01*
X132490476Y-129752380D02*
X131919047Y-129752380D01*
X132204761Y-129752380D02*
X132204761Y-128752380D01*
X132109523Y-128895238D01*
X132014285Y-128990476D01*
X131919047Y-129038095D01*
%TO.C,Q1*%
X118647619Y-128695238D02*
X118600000Y-128790476D01*
X118504761Y-128885714D01*
X118361904Y-129028571D01*
X118314285Y-129123809D01*
X118314285Y-129219047D01*
X118552380Y-129171428D02*
X118504761Y-129266666D01*
X118409523Y-129361904D01*
X118219047Y-129409523D01*
X117885714Y-129409523D01*
X117695238Y-129361904D01*
X117600000Y-129266666D01*
X117552380Y-129171428D01*
X117552380Y-128980952D01*
X117600000Y-128885714D01*
X117695238Y-128790476D01*
X117885714Y-128742857D01*
X118219047Y-128742857D01*
X118409523Y-128790476D01*
X118504761Y-128885714D01*
X118552380Y-128980952D01*
X118552380Y-129171428D01*
X118552380Y-127790476D02*
X118552380Y-128361904D01*
X118552380Y-128076190D02*
X117552380Y-128076190D01*
X117695238Y-128171428D01*
X117790476Y-128266666D01*
X117838095Y-128361904D01*
%TO.C,U1*%
X135838095Y-108502380D02*
X135838095Y-109311904D01*
X135885714Y-109407142D01*
X135933333Y-109454761D01*
X136028571Y-109502380D01*
X136219047Y-109502380D01*
X136314285Y-109454761D01*
X136361904Y-109407142D01*
X136409523Y-109311904D01*
X136409523Y-108502380D01*
X137409523Y-109502380D02*
X136838095Y-109502380D01*
X137123809Y-109502380D02*
X137123809Y-108502380D01*
X137028571Y-108645238D01*
X136933333Y-108740476D01*
X136838095Y-108788095D01*
%TO.C,U2*%
X111302380Y-115611904D02*
X112111904Y-115611904D01*
X112207142Y-115564285D01*
X112254761Y-115516666D01*
X112302380Y-115421428D01*
X112302380Y-115230952D01*
X112254761Y-115135714D01*
X112207142Y-115088095D01*
X112111904Y-115040476D01*
X111302380Y-115040476D01*
X111397619Y-114611904D02*
X111350000Y-114564285D01*
X111302380Y-114469047D01*
X111302380Y-114230952D01*
X111350000Y-114135714D01*
X111397619Y-114088095D01*
X111492857Y-114040476D01*
X111588095Y-114040476D01*
X111730952Y-114088095D01*
X112302380Y-114659523D01*
X112302380Y-114040476D01*
%TO.C,C6*%
X113703333Y-118897142D02*
X113655714Y-118944761D01*
X113512857Y-118992380D01*
X113417619Y-118992380D01*
X113274761Y-118944761D01*
X113179523Y-118849523D01*
X113131904Y-118754285D01*
X113084285Y-118563809D01*
X113084285Y-118420952D01*
X113131904Y-118230476D01*
X113179523Y-118135238D01*
X113274761Y-118040000D01*
X113417619Y-117992380D01*
X113512857Y-117992380D01*
X113655714Y-118040000D01*
X113703333Y-118087619D01*
X114560476Y-117992380D02*
X114370000Y-117992380D01*
X114274761Y-118040000D01*
X114227142Y-118087619D01*
X114131904Y-118230476D01*
X114084285Y-118420952D01*
X114084285Y-118801904D01*
X114131904Y-118897142D01*
X114179523Y-118944761D01*
X114274761Y-118992380D01*
X114465238Y-118992380D01*
X114560476Y-118944761D01*
X114608095Y-118897142D01*
X114655714Y-118801904D01*
X114655714Y-118563809D01*
X114608095Y-118468571D01*
X114560476Y-118420952D01*
X114465238Y-118373333D01*
X114274761Y-118373333D01*
X114179523Y-118420952D01*
X114131904Y-118468571D01*
X114084285Y-118563809D01*
%TO.C,C7*%
X116283333Y-119077142D02*
X116235714Y-119124761D01*
X116092857Y-119172380D01*
X115997619Y-119172380D01*
X115854761Y-119124761D01*
X115759523Y-119029523D01*
X115711904Y-118934285D01*
X115664285Y-118743809D01*
X115664285Y-118600952D01*
X115711904Y-118410476D01*
X115759523Y-118315238D01*
X115854761Y-118220000D01*
X115997619Y-118172380D01*
X116092857Y-118172380D01*
X116235714Y-118220000D01*
X116283333Y-118267619D01*
X116616666Y-118172380D02*
X117283333Y-118172380D01*
X116854761Y-119172380D01*
%TO.C,C8*%
X113527142Y-123041666D02*
X113574761Y-123089285D01*
X113622380Y-123232142D01*
X113622380Y-123327380D01*
X113574761Y-123470238D01*
X113479523Y-123565476D01*
X113384285Y-123613095D01*
X113193809Y-123660714D01*
X113050952Y-123660714D01*
X112860476Y-123613095D01*
X112765238Y-123565476D01*
X112670000Y-123470238D01*
X112622380Y-123327380D01*
X112622380Y-123232142D01*
X112670000Y-123089285D01*
X112717619Y-123041666D01*
X113050952Y-122470238D02*
X113003333Y-122565476D01*
X112955714Y-122613095D01*
X112860476Y-122660714D01*
X112812857Y-122660714D01*
X112717619Y-122613095D01*
X112670000Y-122565476D01*
X112622380Y-122470238D01*
X112622380Y-122279761D01*
X112670000Y-122184523D01*
X112717619Y-122136904D01*
X112812857Y-122089285D01*
X112860476Y-122089285D01*
X112955714Y-122136904D01*
X113003333Y-122184523D01*
X113050952Y-122279761D01*
X113050952Y-122470238D01*
X113098571Y-122565476D01*
X113146190Y-122613095D01*
X113241428Y-122660714D01*
X113431904Y-122660714D01*
X113527142Y-122613095D01*
X113574761Y-122565476D01*
X113622380Y-122470238D01*
X113622380Y-122279761D01*
X113574761Y-122184523D01*
X113527142Y-122136904D01*
X113431904Y-122089285D01*
X113241428Y-122089285D01*
X113146190Y-122136904D01*
X113098571Y-122184523D01*
X113050952Y-122279761D01*
%TO.C,C9*%
X116127142Y-123116666D02*
X116174761Y-123164285D01*
X116222380Y-123307142D01*
X116222380Y-123402380D01*
X116174761Y-123545238D01*
X116079523Y-123640476D01*
X115984285Y-123688095D01*
X115793809Y-123735714D01*
X115650952Y-123735714D01*
X115460476Y-123688095D01*
X115365238Y-123640476D01*
X115270000Y-123545238D01*
X115222380Y-123402380D01*
X115222380Y-123307142D01*
X115270000Y-123164285D01*
X115317619Y-123116666D01*
X116222380Y-122640476D02*
X116222380Y-122450000D01*
X116174761Y-122354761D01*
X116127142Y-122307142D01*
X115984285Y-122211904D01*
X115793809Y-122164285D01*
X115412857Y-122164285D01*
X115317619Y-122211904D01*
X115270000Y-122259523D01*
X115222380Y-122354761D01*
X115222380Y-122545238D01*
X115270000Y-122640476D01*
X115317619Y-122688095D01*
X115412857Y-122735714D01*
X115650952Y-122735714D01*
X115746190Y-122688095D01*
X115793809Y-122640476D01*
X115841428Y-122545238D01*
X115841428Y-122354761D01*
X115793809Y-122259523D01*
X115746190Y-122211904D01*
X115650952Y-122164285D01*
%TO.C,R2*%
X115443333Y-127572380D02*
X115110000Y-127096190D01*
X114871904Y-127572380D02*
X114871904Y-126572380D01*
X115252857Y-126572380D01*
X115348095Y-126620000D01*
X115395714Y-126667619D01*
X115443333Y-126762857D01*
X115443333Y-126905714D01*
X115395714Y-127000952D01*
X115348095Y-127048571D01*
X115252857Y-127096190D01*
X114871904Y-127096190D01*
X115824285Y-126667619D02*
X115871904Y-126620000D01*
X115967142Y-126572380D01*
X116205238Y-126572380D01*
X116300476Y-126620000D01*
X116348095Y-126667619D01*
X116395714Y-126762857D01*
X116395714Y-126858095D01*
X116348095Y-127000952D01*
X115776666Y-127572380D01*
X116395714Y-127572380D01*
%TO.C,U3*%
X125202380Y-125511904D02*
X126011904Y-125511904D01*
X126107142Y-125464285D01*
X126154761Y-125416666D01*
X126202380Y-125321428D01*
X126202380Y-125130952D01*
X126154761Y-125035714D01*
X126107142Y-124988095D01*
X126011904Y-124940476D01*
X125202380Y-124940476D01*
X125202380Y-124559523D02*
X125202380Y-123940476D01*
X125583333Y-124273809D01*
X125583333Y-124130952D01*
X125630952Y-124035714D01*
X125678571Y-123988095D01*
X125773809Y-123940476D01*
X126011904Y-123940476D01*
X126107142Y-123988095D01*
X126154761Y-124035714D01*
X126202380Y-124130952D01*
X126202380Y-124416666D01*
X126154761Y-124511904D01*
X126107142Y-124559523D01*
%TO.C,D2*%
X123052380Y-116438095D02*
X122052380Y-116438095D01*
X122052380Y-116200000D01*
X122100000Y-116057142D01*
X122195238Y-115961904D01*
X122290476Y-115914285D01*
X122480952Y-115866666D01*
X122623809Y-115866666D01*
X122814285Y-115914285D01*
X122909523Y-115961904D01*
X123004761Y-116057142D01*
X123052380Y-116200000D01*
X123052380Y-116438095D01*
X122147619Y-115485714D02*
X122100000Y-115438095D01*
X122052380Y-115342857D01*
X122052380Y-115104761D01*
X122100000Y-115009523D01*
X122147619Y-114961904D01*
X122242857Y-114914285D01*
X122338095Y-114914285D01*
X122480952Y-114961904D01*
X123052380Y-115533333D01*
X123052380Y-114914285D01*
%TO.C,R1*%
X124483333Y-116452380D02*
X124150000Y-115976190D01*
X123911904Y-116452380D02*
X123911904Y-115452380D01*
X124292857Y-115452380D01*
X124388095Y-115500000D01*
X124435714Y-115547619D01*
X124483333Y-115642857D01*
X124483333Y-115785714D01*
X124435714Y-115880952D01*
X124388095Y-115928571D01*
X124292857Y-115976190D01*
X123911904Y-115976190D01*
X125435714Y-116452380D02*
X124864285Y-116452380D01*
X125150000Y-116452380D02*
X125150000Y-115452380D01*
X125054761Y-115595238D01*
X124959523Y-115690476D01*
X124864285Y-115738095D01*
%TO.C,R3*%
X127422380Y-130066666D02*
X126946190Y-130400000D01*
X127422380Y-130638095D02*
X126422380Y-130638095D01*
X126422380Y-130257142D01*
X126470000Y-130161904D01*
X126517619Y-130114285D01*
X126612857Y-130066666D01*
X126755714Y-130066666D01*
X126850952Y-130114285D01*
X126898571Y-130161904D01*
X126946190Y-130257142D01*
X126946190Y-130638095D01*
X126422380Y-129733333D02*
X126422380Y-129114285D01*
X126803333Y-129447619D01*
X126803333Y-129304761D01*
X126850952Y-129209523D01*
X126898571Y-129161904D01*
X126993809Y-129114285D01*
X127231904Y-129114285D01*
X127327142Y-129161904D01*
X127374761Y-129209523D01*
X127422380Y-129304761D01*
X127422380Y-129590476D01*
X127374761Y-129685714D01*
X127327142Y-129733333D01*
%TO.C,R4*%
X126352380Y-119816666D02*
X125876190Y-120150000D01*
X126352380Y-120388095D02*
X125352380Y-120388095D01*
X125352380Y-120007142D01*
X125400000Y-119911904D01*
X125447619Y-119864285D01*
X125542857Y-119816666D01*
X125685714Y-119816666D01*
X125780952Y-119864285D01*
X125828571Y-119911904D01*
X125876190Y-120007142D01*
X125876190Y-120388095D01*
X125685714Y-118959523D02*
X126352380Y-118959523D01*
X125304761Y-119197619D02*
X126019047Y-119435714D01*
X126019047Y-118816666D01*
%TO.C,R5*%
X121902380Y-117466666D02*
X121426190Y-117800000D01*
X121902380Y-118038095D02*
X120902380Y-118038095D01*
X120902380Y-117657142D01*
X120950000Y-117561904D01*
X120997619Y-117514285D01*
X121092857Y-117466666D01*
X121235714Y-117466666D01*
X121330952Y-117514285D01*
X121378571Y-117561904D01*
X121426190Y-117657142D01*
X121426190Y-118038095D01*
X120902380Y-116561904D02*
X120902380Y-117038095D01*
X121378571Y-117085714D01*
X121330952Y-117038095D01*
X121283333Y-116942857D01*
X121283333Y-116704761D01*
X121330952Y-116609523D01*
X121378571Y-116561904D01*
X121473809Y-116514285D01*
X121711904Y-116514285D01*
X121807142Y-116561904D01*
X121854761Y-116609523D01*
X121902380Y-116704761D01*
X121902380Y-116942857D01*
X121854761Y-117038095D01*
X121807142Y-117085714D01*
%TO.C,R6*%
X121852380Y-121266666D02*
X121376190Y-121600000D01*
X121852380Y-121838095D02*
X120852380Y-121838095D01*
X120852380Y-121457142D01*
X120900000Y-121361904D01*
X120947619Y-121314285D01*
X121042857Y-121266666D01*
X121185714Y-121266666D01*
X121280952Y-121314285D01*
X121328571Y-121361904D01*
X121376190Y-121457142D01*
X121376190Y-121838095D01*
X120852380Y-120409523D02*
X120852380Y-120600000D01*
X120900000Y-120695238D01*
X120947619Y-120742857D01*
X121090476Y-120838095D01*
X121280952Y-120885714D01*
X121661904Y-120885714D01*
X121757142Y-120838095D01*
X121804761Y-120790476D01*
X121852380Y-120695238D01*
X121852380Y-120504761D01*
X121804761Y-120409523D01*
X121757142Y-120361904D01*
X121661904Y-120314285D01*
X121423809Y-120314285D01*
X121328571Y-120361904D01*
X121280952Y-120409523D01*
X121233333Y-120504761D01*
X121233333Y-120695238D01*
X121280952Y-120790476D01*
X121328571Y-120838095D01*
X121423809Y-120885714D01*
%TO.C,R7*%
X121852380Y-128666666D02*
X121376190Y-129000000D01*
X121852380Y-129238095D02*
X120852380Y-129238095D01*
X120852380Y-128857142D01*
X120900000Y-128761904D01*
X120947619Y-128714285D01*
X121042857Y-128666666D01*
X121185714Y-128666666D01*
X121280952Y-128714285D01*
X121328571Y-128761904D01*
X121376190Y-128857142D01*
X121376190Y-129238095D01*
X120852380Y-128333333D02*
X120852380Y-127666666D01*
X121852380Y-128095238D01*
%TO.C,R8*%
X123783333Y-129632380D02*
X123450000Y-129156190D01*
X123211904Y-129632380D02*
X123211904Y-128632380D01*
X123592857Y-128632380D01*
X123688095Y-128680000D01*
X123735714Y-128727619D01*
X123783333Y-128822857D01*
X123783333Y-128965714D01*
X123735714Y-129060952D01*
X123688095Y-129108571D01*
X123592857Y-129156190D01*
X123211904Y-129156190D01*
X124354761Y-129060952D02*
X124259523Y-129013333D01*
X124211904Y-128965714D01*
X124164285Y-128870476D01*
X124164285Y-128822857D01*
X124211904Y-128727619D01*
X124259523Y-128680000D01*
X124354761Y-128632380D01*
X124545238Y-128632380D01*
X124640476Y-128680000D01*
X124688095Y-128727619D01*
X124735714Y-128822857D01*
X124735714Y-128870476D01*
X124688095Y-128965714D01*
X124640476Y-129013333D01*
X124545238Y-129060952D01*
X124354761Y-129060952D01*
X124259523Y-129108571D01*
X124211904Y-129156190D01*
X124164285Y-129251428D01*
X124164285Y-129441904D01*
X124211904Y-129537142D01*
X124259523Y-129584761D01*
X124354761Y-129632380D01*
X124545238Y-129632380D01*
X124640476Y-129584761D01*
X124688095Y-129537142D01*
X124735714Y-129441904D01*
X124735714Y-129251428D01*
X124688095Y-129156190D01*
X124640476Y-129108571D01*
X124545238Y-129060952D01*
%TD*%
M02*
