%TF.GenerationSoftware,KiCad,Pcbnew,5.1.7-a382d34a8~88~ubuntu18.04.1*%
%TF.CreationDate,2021-05-09T09:36:21-04:00*%
%TF.ProjectId,salt_replacement,73616c74-5f72-4657-906c-6163656d656e,1.0.0*%
%TF.SameCoordinates,Original*%
%TF.FileFunction,Copper,L2,Bot*%
%TF.FilePolarity,Positive*%
%FSLAX46Y46*%
G04 Gerber Fmt 4.6, Leading zero omitted, Abs format (unit mm)*
G04 Created by KiCad (PCBNEW 5.1.7-a382d34a8~88~ubuntu18.04.1) date 2021-05-09 09:36:21*
%MOMM*%
%LPD*%
G01*
G04 APERTURE LIST*
%TA.AperFunction,ComponentPad*%
%ADD10R,1.600000X1.600000*%
%TD*%
%TA.AperFunction,ComponentPad*%
%ADD11O,1.600000X1.600000*%
%TD*%
%TA.AperFunction,ViaPad*%
%ADD12C,0.800000*%
%TD*%
%TA.AperFunction,ViaPad*%
%ADD13C,1.600000*%
%TD*%
%TA.AperFunction,Conductor*%
%ADD14C,0.250000*%
%TD*%
%TA.AperFunction,Conductor*%
%ADD15C,2.000000*%
%TD*%
%TA.AperFunction,Conductor*%
%ADD16C,1.500000*%
%TD*%
%TA.AperFunction,Conductor*%
%ADD17C,0.254000*%
%TD*%
%TA.AperFunction,Conductor*%
%ADD18C,0.100000*%
%TD*%
G04 APERTURE END LIST*
D10*
%TO.P,J1,1*%
%TO.N,Net-(J1-Pad1)*%
X111600000Y-111600000D03*
D11*
%TO.P,J1,9*%
%TO.N,Net-(J1-Pad9)*%
X119220000Y-129380000D03*
%TO.P,J1,2*%
%TO.N,Net-(J1-Pad2)*%
X111600000Y-114140000D03*
%TO.P,J1,10*%
%TO.N,Net-(J1-Pad10)*%
X119220000Y-126840000D03*
%TO.P,J1,3*%
%TO.N,+5V*%
X111600000Y-116680000D03*
%TO.P,J1,11*%
%TO.N,/CASSETTE_DATA_IN*%
X119220000Y-124300000D03*
%TO.P,J1,4*%
%TO.N,/SERIAL_IN_TTL*%
X111600000Y-119220000D03*
%TO.P,J1,12*%
%TO.N,/SERIAL_OUT_RS232*%
X119220000Y-121760000D03*
%TO.P,J1,5*%
%TO.N,/CD_IN_TTL*%
X111600000Y-121760000D03*
%TO.P,J1,13*%
%TO.N,/CD_IN_RS232*%
X119220000Y-119220000D03*
%TO.P,J1,6*%
%TO.N,/SERIAL_OUT_TTL*%
X111600000Y-124300000D03*
%TO.P,J1,14*%
%TO.N,/SERIAL_IN_RS232*%
X119220000Y-116680000D03*
%TO.P,J1,7*%
%TO.N,/CASSETTE_DATA_IN_TTL*%
X111600000Y-126840000D03*
%TO.P,J1,15*%
%TO.N,Net-(J1-Pad15)*%
X119220000Y-114140000D03*
%TO.P,J1,8*%
%TO.N,GND*%
X111600000Y-129380000D03*
%TO.P,J1,16*%
%TO.N,VCC*%
X119220000Y-111600000D03*
%TD*%
D12*
%TO.N,+5V*%
X127010400Y-129364300D03*
X113261400Y-123666900D03*
D13*
X127375000Y-116875000D03*
D12*
X113000040Y-110850000D03*
%TO.N,GND*%
X116100000Y-123650000D03*
X114100000Y-110850000D03*
X128474990Y-108975010D03*
X126324990Y-108975010D03*
X123924990Y-108975010D03*
X134274990Y-108975010D03*
X138924990Y-108975010D03*
X131424990Y-108975010D03*
X122874990Y-108975010D03*
X142250000Y-122300000D03*
X143450000Y-129600000D03*
X140450000Y-129700000D03*
X137150000Y-129650000D03*
X133600000Y-129750000D03*
%TO.N,/SERIAL_IN_TTL*%
X116126600Y-121244500D03*
X117803000Y-113205200D03*
%TO.N,/CD_IN_TTL*%
X116297668Y-110853255D03*
%TO.N,/CD_IN_RS232*%
X115295675Y-110856946D03*
%TO.N,/SERIAL_OUT_TTL*%
X117468000Y-110929600D03*
%TO.N,Net-(D1-Pad1)*%
X138000000Y-122100000D03*
X137100000Y-122100000D03*
X136150000Y-122100000D03*
D13*
X127700000Y-114000000D03*
D12*
%TO.N,Net-(C8-Pad2)*%
X113262100Y-121385400D03*
X112978100Y-115762900D03*
%TO.N,Net-(D2-Pad1)*%
X121300000Y-117861700D03*
X123722800Y-116427200D03*
%TO.N,/CASSETTE_DATA_IN_TTL*%
X121500000Y-126350000D03*
X125850000Y-124550000D03*
%TO.N,Net-(R3-Pad2)*%
X126756200Y-130377100D03*
X125687900Y-127780800D03*
X123600000Y-123550000D03*
%TO.N,Net-(U3-Pad7)*%
X123724900Y-126270900D03*
%TD*%
D14*
%TO.N,+5V*%
X127437500Y-116937500D02*
X127437500Y-128937200D01*
X127437500Y-128937200D02*
X127010400Y-129364300D01*
D15*
X127437500Y-116937500D02*
X127500000Y-117000000D01*
X127375000Y-116875000D02*
X127437500Y-116937500D01*
D14*
X110474600Y-116680000D02*
X110474600Y-122301500D01*
X110474600Y-122301500D02*
X111058500Y-122885400D01*
X111058500Y-122885400D02*
X112479900Y-122885400D01*
X112479900Y-122885400D02*
X113261400Y-123666900D01*
D15*
X111600000Y-116680000D02*
X110474600Y-116680000D01*
X119725010Y-109225010D02*
X127375000Y-116875000D01*
X110474600Y-116680000D02*
X110469000Y-116680000D01*
X110469000Y-116680000D02*
X109600000Y-115811000D01*
X109600000Y-115811000D02*
X109600000Y-109840000D01*
X109600000Y-109840000D02*
X110214990Y-109225010D01*
X110214990Y-109225010D02*
X114074990Y-109225010D01*
X114074990Y-109225010D02*
X119725010Y-109225010D01*
D14*
X113000040Y-110299960D02*
X113000040Y-110850000D01*
X114074990Y-109225010D02*
X113000040Y-110299960D01*
%TO.N,GND*%
X114100000Y-110850000D02*
X114100000Y-121100000D01*
X114100000Y-121100000D02*
X115600000Y-122600000D01*
X115600000Y-123150000D02*
X116100000Y-123650000D01*
X115600000Y-122600000D02*
X115600000Y-123150000D01*
%TO.N,/SERIAL_IN_TTL*%
X116126600Y-121244500D02*
X117803000Y-119568100D01*
X117803000Y-119568100D02*
X117803000Y-113205200D01*
%TO.N,/CD_IN_RS232*%
X115870300Y-122029700D02*
X115295675Y-121455075D01*
X115295675Y-121455075D02*
X115295675Y-110856946D01*
X119220000Y-119220000D02*
X116410300Y-122029700D01*
X116410300Y-122029700D02*
X115870300Y-122029700D01*
%TO.N,/SERIAL_OUT_TTL*%
X112725300Y-124300000D02*
X111600000Y-124300000D01*
X112883300Y-124458000D02*
X112725300Y-124300000D01*
X116693002Y-124458000D02*
X112883300Y-124458000D01*
X117660003Y-125425001D02*
X116693002Y-124458000D01*
X117468000Y-110929600D02*
X117468000Y-111487600D01*
X117468000Y-111487600D02*
X118850400Y-112870000D01*
X118850400Y-112870000D02*
X119544900Y-112870000D01*
X120364200Y-113689300D02*
X120364200Y-124820802D01*
X119760001Y-125425001D02*
X117660003Y-125425001D01*
X120364200Y-124820802D02*
X119760001Y-125425001D01*
X119544900Y-112870000D02*
X120364200Y-113689300D01*
D16*
%TO.N,Net-(D1-Pad1)*%
X138000000Y-122100000D02*
X137100000Y-122100000D01*
X127700000Y-114000000D02*
X135450000Y-114000000D01*
X135450000Y-114000000D02*
X138000000Y-116550000D01*
X138000000Y-116550000D02*
X138000000Y-122100000D01*
X137100000Y-122100000D02*
X136150000Y-122100000D01*
D14*
%TO.N,Net-(C8-Pad2)*%
X113262100Y-121385400D02*
X113262100Y-116046900D01*
X113262100Y-116046900D02*
X112978100Y-115762900D01*
%TO.N,Net-(D2-Pad1)*%
X121300000Y-117861700D02*
X122288300Y-117861700D01*
X122288300Y-117861700D02*
X123722800Y-116427200D01*
%TO.N,/CASSETTE_DATA_IN_TTL*%
X119884999Y-127965001D02*
X116915001Y-127965001D01*
X121500000Y-126350000D02*
X119884999Y-127965001D01*
X116915001Y-127965001D02*
X114900000Y-125950000D01*
X112490000Y-125950000D02*
X111600000Y-126840000D01*
X114900000Y-125950000D02*
X112490000Y-125950000D01*
X121500000Y-126350000D02*
X123300000Y-124550000D01*
X123300000Y-124550000D02*
X125850000Y-124550000D01*
X125850000Y-124550000D02*
X125850000Y-124550000D01*
%TO.N,Net-(R3-Pad2)*%
X125687900Y-127780800D02*
X126010800Y-128103700D01*
X126010800Y-128103700D02*
X126010900Y-128103700D01*
X126010900Y-128103700D02*
X126010900Y-129631800D01*
X126010900Y-129631800D02*
X126756200Y-130377100D01*
X126575001Y-124201999D02*
X125923002Y-123550000D01*
X125687900Y-127780800D02*
X126575001Y-126893699D01*
X126575001Y-126893699D02*
X126575001Y-124201999D01*
X125923002Y-123550000D02*
X123600000Y-123550000D01*
X123600000Y-123550000D02*
X123600000Y-123550000D01*
%TD*%
D17*
%TO.N,GND*%
X109256079Y-117779318D02*
X109307286Y-117841714D01*
X109556248Y-118046031D01*
X109714600Y-118130672D01*
X109714601Y-122264168D01*
X109710924Y-122301500D01*
X109714601Y-122338833D01*
X109725598Y-122450486D01*
X109726657Y-122453976D01*
X109769054Y-122593746D01*
X109839626Y-122725776D01*
X109867528Y-122759774D01*
X109934600Y-122841501D01*
X109963598Y-122865299D01*
X110484632Y-123386334D01*
X110328320Y-123620273D01*
X110220147Y-123881426D01*
X110165000Y-124158665D01*
X110165000Y-124441335D01*
X110220147Y-124718574D01*
X110328320Y-124979727D01*
X110485363Y-125214759D01*
X110685241Y-125414637D01*
X110917759Y-125570000D01*
X110685241Y-125725363D01*
X110485363Y-125925241D01*
X110328320Y-126160273D01*
X110220147Y-126421426D01*
X110165000Y-126698665D01*
X110165000Y-126981335D01*
X110220147Y-127258574D01*
X110328320Y-127519727D01*
X110485363Y-127754759D01*
X110685241Y-127954637D01*
X110920273Y-128111680D01*
X110930865Y-128116067D01*
X110744869Y-128227615D01*
X110536481Y-128416586D01*
X110368963Y-128642580D01*
X110248754Y-128896913D01*
X110208096Y-129030961D01*
X110330085Y-129253000D01*
X111473000Y-129253000D01*
X111473000Y-129233000D01*
X111727000Y-129233000D01*
X111727000Y-129253000D01*
X112869915Y-129253000D01*
X112991904Y-129030961D01*
X112951246Y-128896913D01*
X112831037Y-128642580D01*
X112663519Y-128416586D01*
X112455131Y-128227615D01*
X112269135Y-128116067D01*
X112279727Y-128111680D01*
X112514759Y-127954637D01*
X112714637Y-127754759D01*
X112871680Y-127519727D01*
X112979853Y-127258574D01*
X113035000Y-126981335D01*
X113035000Y-126710000D01*
X114585199Y-126710000D01*
X116351202Y-128476004D01*
X116375000Y-128505002D01*
X116490725Y-128599975D01*
X116622754Y-128670547D01*
X116766015Y-128714004D01*
X116877668Y-128725001D01*
X116877676Y-128725001D01*
X116915001Y-128728677D01*
X116952326Y-128725001D01*
X117938077Y-128725001D01*
X117840147Y-128961426D01*
X117785000Y-129238665D01*
X117785000Y-129521335D01*
X117840147Y-129798574D01*
X117948320Y-130059727D01*
X118105363Y-130294759D01*
X118150604Y-130340000D01*
X112666050Y-130340000D01*
X112831037Y-130117420D01*
X112951246Y-129863087D01*
X112991904Y-129729039D01*
X112869915Y-129507000D01*
X111727000Y-129507000D01*
X111727000Y-129527000D01*
X111473000Y-129527000D01*
X111473000Y-129507000D01*
X110330085Y-129507000D01*
X110208096Y-129729039D01*
X110248754Y-129863087D01*
X110368963Y-130117420D01*
X110533950Y-130340000D01*
X108660000Y-130340000D01*
X108660000Y-117183238D01*
X109256079Y-117779318D01*
%TA.AperFunction,Conductor*%
D18*
G36*
X109256079Y-117779318D02*
G01*
X109307286Y-117841714D01*
X109556248Y-118046031D01*
X109714600Y-118130672D01*
X109714601Y-122264168D01*
X109710924Y-122301500D01*
X109714601Y-122338833D01*
X109725598Y-122450486D01*
X109726657Y-122453976D01*
X109769054Y-122593746D01*
X109839626Y-122725776D01*
X109867528Y-122759774D01*
X109934600Y-122841501D01*
X109963598Y-122865299D01*
X110484632Y-123386334D01*
X110328320Y-123620273D01*
X110220147Y-123881426D01*
X110165000Y-124158665D01*
X110165000Y-124441335D01*
X110220147Y-124718574D01*
X110328320Y-124979727D01*
X110485363Y-125214759D01*
X110685241Y-125414637D01*
X110917759Y-125570000D01*
X110685241Y-125725363D01*
X110485363Y-125925241D01*
X110328320Y-126160273D01*
X110220147Y-126421426D01*
X110165000Y-126698665D01*
X110165000Y-126981335D01*
X110220147Y-127258574D01*
X110328320Y-127519727D01*
X110485363Y-127754759D01*
X110685241Y-127954637D01*
X110920273Y-128111680D01*
X110930865Y-128116067D01*
X110744869Y-128227615D01*
X110536481Y-128416586D01*
X110368963Y-128642580D01*
X110248754Y-128896913D01*
X110208096Y-129030961D01*
X110330085Y-129253000D01*
X111473000Y-129253000D01*
X111473000Y-129233000D01*
X111727000Y-129233000D01*
X111727000Y-129253000D01*
X112869915Y-129253000D01*
X112991904Y-129030961D01*
X112951246Y-128896913D01*
X112831037Y-128642580D01*
X112663519Y-128416586D01*
X112455131Y-128227615D01*
X112269135Y-128116067D01*
X112279727Y-128111680D01*
X112514759Y-127954637D01*
X112714637Y-127754759D01*
X112871680Y-127519727D01*
X112979853Y-127258574D01*
X113035000Y-126981335D01*
X113035000Y-126710000D01*
X114585199Y-126710000D01*
X116351202Y-128476004D01*
X116375000Y-128505002D01*
X116490725Y-128599975D01*
X116622754Y-128670547D01*
X116766015Y-128714004D01*
X116877668Y-128725001D01*
X116877676Y-128725001D01*
X116915001Y-128728677D01*
X116952326Y-128725001D01*
X117938077Y-128725001D01*
X117840147Y-128961426D01*
X117785000Y-129238665D01*
X117785000Y-129521335D01*
X117840147Y-129798574D01*
X117948320Y-130059727D01*
X118105363Y-130294759D01*
X118150604Y-130340000D01*
X112666050Y-130340000D01*
X112831037Y-130117420D01*
X112951246Y-129863087D01*
X112991904Y-129729039D01*
X112869915Y-129507000D01*
X111727000Y-129507000D01*
X111727000Y-129527000D01*
X111473000Y-129527000D01*
X111473000Y-129507000D01*
X110330085Y-129507000D01*
X110208096Y-129729039D01*
X110248754Y-129863087D01*
X110368963Y-130117420D01*
X110533950Y-130340000D01*
X108660000Y-130340000D01*
X108660000Y-117183238D01*
X109256079Y-117779318D01*
G37*
%TD.AperFunction*%
D17*
X144340001Y-130340000D02*
X127791200Y-130340000D01*
X127791200Y-130275161D01*
X127753381Y-130085030D01*
X127814337Y-130024074D01*
X127927605Y-129854556D01*
X128005626Y-129666198D01*
X128045400Y-129466239D01*
X128045400Y-129394466D01*
X128072474Y-129361476D01*
X128143046Y-129229447D01*
X128186503Y-129086186D01*
X128197500Y-128974533D01*
X128201177Y-128937200D01*
X128197500Y-128899867D01*
X128197500Y-118481084D01*
X128412752Y-118366030D01*
X128661713Y-118161713D01*
X128866030Y-117912752D01*
X129017851Y-117628714D01*
X129111342Y-117320516D01*
X129142911Y-116999999D01*
X129111342Y-116679484D01*
X129017851Y-116371285D01*
X128866030Y-116087248D01*
X128712915Y-115900677D01*
X128587925Y-115775687D01*
X128587916Y-115775676D01*
X128197240Y-115385000D01*
X134876315Y-115385000D01*
X136615000Y-117123686D01*
X136615001Y-120715000D01*
X136081963Y-120715000D01*
X135878493Y-120735040D01*
X135617419Y-120814236D01*
X135376812Y-120942843D01*
X135165919Y-121115919D01*
X134992843Y-121326812D01*
X134864236Y-121567419D01*
X134785040Y-121828493D01*
X134758299Y-122100000D01*
X134785040Y-122371507D01*
X134864236Y-122632581D01*
X134992843Y-122873188D01*
X135165919Y-123084081D01*
X135376812Y-123257157D01*
X135617419Y-123385764D01*
X135878493Y-123464960D01*
X136081963Y-123485000D01*
X137931964Y-123485000D01*
X138000000Y-123491701D01*
X138271507Y-123464960D01*
X138532581Y-123385764D01*
X138773188Y-123257157D01*
X138984081Y-123084081D01*
X139157157Y-122873188D01*
X139285764Y-122632581D01*
X139364960Y-122371507D01*
X139385000Y-122168037D01*
X139391701Y-122100000D01*
X139385000Y-122031963D01*
X139385000Y-116618029D01*
X139391700Y-116550000D01*
X139385000Y-116481971D01*
X139385000Y-116481963D01*
X139364960Y-116278493D01*
X139285764Y-116017419D01*
X139157157Y-115776812D01*
X139138972Y-115754654D01*
X139027452Y-115618766D01*
X139027445Y-115618759D01*
X138984080Y-115565919D01*
X138931241Y-115522555D01*
X136477454Y-113068769D01*
X136434081Y-113015919D01*
X136223188Y-112842843D01*
X135982581Y-112714236D01*
X135721507Y-112635040D01*
X135518037Y-112615000D01*
X135518029Y-112615000D01*
X135450000Y-112608300D01*
X135381971Y-112615000D01*
X128092699Y-112615000D01*
X127841335Y-112565000D01*
X127558665Y-112565000D01*
X127281426Y-112620147D01*
X127020273Y-112728320D01*
X126785241Y-112885363D01*
X126585363Y-113085241D01*
X126428320Y-113320273D01*
X126341680Y-113529441D01*
X121472238Y-108660000D01*
X144340000Y-108660000D01*
X144340001Y-130340000D01*
%TA.AperFunction,Conductor*%
D18*
G36*
X144340001Y-130340000D02*
G01*
X127791200Y-130340000D01*
X127791200Y-130275161D01*
X127753381Y-130085030D01*
X127814337Y-130024074D01*
X127927605Y-129854556D01*
X128005626Y-129666198D01*
X128045400Y-129466239D01*
X128045400Y-129394466D01*
X128072474Y-129361476D01*
X128143046Y-129229447D01*
X128186503Y-129086186D01*
X128197500Y-128974533D01*
X128201177Y-128937200D01*
X128197500Y-128899867D01*
X128197500Y-118481084D01*
X128412752Y-118366030D01*
X128661713Y-118161713D01*
X128866030Y-117912752D01*
X129017851Y-117628714D01*
X129111342Y-117320516D01*
X129142911Y-116999999D01*
X129111342Y-116679484D01*
X129017851Y-116371285D01*
X128866030Y-116087248D01*
X128712915Y-115900677D01*
X128587925Y-115775687D01*
X128587916Y-115775676D01*
X128197240Y-115385000D01*
X134876315Y-115385000D01*
X136615000Y-117123686D01*
X136615001Y-120715000D01*
X136081963Y-120715000D01*
X135878493Y-120735040D01*
X135617419Y-120814236D01*
X135376812Y-120942843D01*
X135165919Y-121115919D01*
X134992843Y-121326812D01*
X134864236Y-121567419D01*
X134785040Y-121828493D01*
X134758299Y-122100000D01*
X134785040Y-122371507D01*
X134864236Y-122632581D01*
X134992843Y-122873188D01*
X135165919Y-123084081D01*
X135376812Y-123257157D01*
X135617419Y-123385764D01*
X135878493Y-123464960D01*
X136081963Y-123485000D01*
X137931964Y-123485000D01*
X138000000Y-123491701D01*
X138271507Y-123464960D01*
X138532581Y-123385764D01*
X138773188Y-123257157D01*
X138984081Y-123084081D01*
X139157157Y-122873188D01*
X139285764Y-122632581D01*
X139364960Y-122371507D01*
X139385000Y-122168037D01*
X139391701Y-122100000D01*
X139385000Y-122031963D01*
X139385000Y-116618029D01*
X139391700Y-116550000D01*
X139385000Y-116481971D01*
X139385000Y-116481963D01*
X139364960Y-116278493D01*
X139285764Y-116017419D01*
X139157157Y-115776812D01*
X139138972Y-115754654D01*
X139027452Y-115618766D01*
X139027445Y-115618759D01*
X138984080Y-115565919D01*
X138931241Y-115522555D01*
X136477454Y-113068769D01*
X136434081Y-113015919D01*
X136223188Y-112842843D01*
X135982581Y-112714236D01*
X135721507Y-112635040D01*
X135518037Y-112615000D01*
X135518029Y-112615000D01*
X135450000Y-112608300D01*
X135381971Y-112615000D01*
X128092699Y-112615000D01*
X127841335Y-112565000D01*
X127558665Y-112565000D01*
X127281426Y-112620147D01*
X127020273Y-112728320D01*
X126785241Y-112885363D01*
X126585363Y-113085241D01*
X126428320Y-113320273D01*
X126341680Y-113529441D01*
X121472238Y-108660000D01*
X144340000Y-108660000D01*
X144340001Y-130340000D01*
G37*
%TD.AperFunction*%
D17*
X114260675Y-110958885D02*
X114300449Y-111158844D01*
X114378470Y-111347202D01*
X114491738Y-111516720D01*
X114535676Y-111560658D01*
X114535675Y-121417753D01*
X114531999Y-121455075D01*
X114535675Y-121492397D01*
X114535675Y-121492407D01*
X114546672Y-121604060D01*
X114568994Y-121677646D01*
X114590129Y-121747321D01*
X114660701Y-121879351D01*
X114678743Y-121901335D01*
X114755674Y-121995076D01*
X114784677Y-122018878D01*
X115306505Y-122540707D01*
X115330299Y-122569701D01*
X115359292Y-122593495D01*
X115359296Y-122593499D01*
X115407179Y-122632795D01*
X115446024Y-122664674D01*
X115578053Y-122735246D01*
X115721314Y-122778703D01*
X115832967Y-122789700D01*
X115832976Y-122789700D01*
X115870299Y-122793376D01*
X115907622Y-122789700D01*
X116372978Y-122789700D01*
X116410300Y-122793376D01*
X116447622Y-122789700D01*
X116447633Y-122789700D01*
X116559286Y-122778703D01*
X116702547Y-122735246D01*
X116834576Y-122664674D01*
X116950301Y-122569701D01*
X116974104Y-122540697D01*
X117785000Y-121729801D01*
X117785000Y-121901335D01*
X117840147Y-122178574D01*
X117948320Y-122439727D01*
X118105363Y-122674759D01*
X118305241Y-122874637D01*
X118537759Y-123030000D01*
X118305241Y-123185363D01*
X118105363Y-123385241D01*
X117948320Y-123620273D01*
X117840147Y-123881426D01*
X117785000Y-124158665D01*
X117785000Y-124441335D01*
X117793408Y-124483604D01*
X117256806Y-123947002D01*
X117233003Y-123917999D01*
X117117278Y-123823026D01*
X116985249Y-123752454D01*
X116841988Y-123708997D01*
X116730335Y-123698000D01*
X116730324Y-123698000D01*
X116693002Y-123694324D01*
X116655680Y-123698000D01*
X114296400Y-123698000D01*
X114296400Y-123564961D01*
X114256626Y-123365002D01*
X114178605Y-123176644D01*
X114065337Y-123007126D01*
X113921174Y-122862963D01*
X113751656Y-122749695D01*
X113563298Y-122671674D01*
X113363339Y-122631900D01*
X113301201Y-122631900D01*
X113072206Y-122402905D01*
X113160161Y-122420400D01*
X113364039Y-122420400D01*
X113563998Y-122380626D01*
X113752356Y-122302605D01*
X113921874Y-122189337D01*
X114066037Y-122045174D01*
X114179305Y-121875656D01*
X114257326Y-121687298D01*
X114297100Y-121487339D01*
X114297100Y-121283461D01*
X114257326Y-121083502D01*
X114179305Y-120895144D01*
X114066037Y-120725626D01*
X114022100Y-120681689D01*
X114022100Y-116084225D01*
X114025776Y-116046900D01*
X114022100Y-116009575D01*
X114022100Y-116009567D01*
X114011103Y-115897914D01*
X114008336Y-115888791D01*
X114013100Y-115864839D01*
X114013100Y-115660961D01*
X113973326Y-115461002D01*
X113895305Y-115272644D01*
X113782037Y-115103126D01*
X113637874Y-114958963D01*
X113468356Y-114845695D01*
X113279998Y-114767674D01*
X113080039Y-114727900D01*
X112909716Y-114727900D01*
X112979853Y-114558574D01*
X113035000Y-114281335D01*
X113035000Y-113998665D01*
X112979853Y-113721426D01*
X112871680Y-113460273D01*
X112714637Y-113225241D01*
X112516039Y-113026643D01*
X112524482Y-113025812D01*
X112644180Y-112989502D01*
X112754494Y-112930537D01*
X112851185Y-112851185D01*
X112930537Y-112754494D01*
X112989502Y-112644180D01*
X113025812Y-112524482D01*
X113038072Y-112400000D01*
X113038072Y-111885000D01*
X113101979Y-111885000D01*
X113301938Y-111845226D01*
X113490296Y-111767205D01*
X113659814Y-111653937D01*
X113803977Y-111509774D01*
X113917245Y-111340256D01*
X113995266Y-111151898D01*
X114035040Y-110951939D01*
X114035040Y-110860010D01*
X114260675Y-110860010D01*
X114260675Y-110958885D01*
%TA.AperFunction,Conductor*%
D18*
G36*
X114260675Y-110958885D02*
G01*
X114300449Y-111158844D01*
X114378470Y-111347202D01*
X114491738Y-111516720D01*
X114535676Y-111560658D01*
X114535675Y-121417753D01*
X114531999Y-121455075D01*
X114535675Y-121492397D01*
X114535675Y-121492407D01*
X114546672Y-121604060D01*
X114568994Y-121677646D01*
X114590129Y-121747321D01*
X114660701Y-121879351D01*
X114678743Y-121901335D01*
X114755674Y-121995076D01*
X114784677Y-122018878D01*
X115306505Y-122540707D01*
X115330299Y-122569701D01*
X115359292Y-122593495D01*
X115359296Y-122593499D01*
X115407179Y-122632795D01*
X115446024Y-122664674D01*
X115578053Y-122735246D01*
X115721314Y-122778703D01*
X115832967Y-122789700D01*
X115832976Y-122789700D01*
X115870299Y-122793376D01*
X115907622Y-122789700D01*
X116372978Y-122789700D01*
X116410300Y-122793376D01*
X116447622Y-122789700D01*
X116447633Y-122789700D01*
X116559286Y-122778703D01*
X116702547Y-122735246D01*
X116834576Y-122664674D01*
X116950301Y-122569701D01*
X116974104Y-122540697D01*
X117785000Y-121729801D01*
X117785000Y-121901335D01*
X117840147Y-122178574D01*
X117948320Y-122439727D01*
X118105363Y-122674759D01*
X118305241Y-122874637D01*
X118537759Y-123030000D01*
X118305241Y-123185363D01*
X118105363Y-123385241D01*
X117948320Y-123620273D01*
X117840147Y-123881426D01*
X117785000Y-124158665D01*
X117785000Y-124441335D01*
X117793408Y-124483604D01*
X117256806Y-123947002D01*
X117233003Y-123917999D01*
X117117278Y-123823026D01*
X116985249Y-123752454D01*
X116841988Y-123708997D01*
X116730335Y-123698000D01*
X116730324Y-123698000D01*
X116693002Y-123694324D01*
X116655680Y-123698000D01*
X114296400Y-123698000D01*
X114296400Y-123564961D01*
X114256626Y-123365002D01*
X114178605Y-123176644D01*
X114065337Y-123007126D01*
X113921174Y-122862963D01*
X113751656Y-122749695D01*
X113563298Y-122671674D01*
X113363339Y-122631900D01*
X113301201Y-122631900D01*
X113072206Y-122402905D01*
X113160161Y-122420400D01*
X113364039Y-122420400D01*
X113563998Y-122380626D01*
X113752356Y-122302605D01*
X113921874Y-122189337D01*
X114066037Y-122045174D01*
X114179305Y-121875656D01*
X114257326Y-121687298D01*
X114297100Y-121487339D01*
X114297100Y-121283461D01*
X114257326Y-121083502D01*
X114179305Y-120895144D01*
X114066037Y-120725626D01*
X114022100Y-120681689D01*
X114022100Y-116084225D01*
X114025776Y-116046900D01*
X114022100Y-116009575D01*
X114022100Y-116009567D01*
X114011103Y-115897914D01*
X114008336Y-115888791D01*
X114013100Y-115864839D01*
X114013100Y-115660961D01*
X113973326Y-115461002D01*
X113895305Y-115272644D01*
X113782037Y-115103126D01*
X113637874Y-114958963D01*
X113468356Y-114845695D01*
X113279998Y-114767674D01*
X113080039Y-114727900D01*
X112909716Y-114727900D01*
X112979853Y-114558574D01*
X113035000Y-114281335D01*
X113035000Y-113998665D01*
X112979853Y-113721426D01*
X112871680Y-113460273D01*
X112714637Y-113225241D01*
X112516039Y-113026643D01*
X112524482Y-113025812D01*
X112644180Y-112989502D01*
X112754494Y-112930537D01*
X112851185Y-112851185D01*
X112930537Y-112754494D01*
X112989502Y-112644180D01*
X113025812Y-112524482D01*
X113038072Y-112400000D01*
X113038072Y-111885000D01*
X113101979Y-111885000D01*
X113301938Y-111845226D01*
X113490296Y-111767205D01*
X113659814Y-111653937D01*
X113803977Y-111509774D01*
X113917245Y-111340256D01*
X113995266Y-111151898D01*
X114035040Y-110951939D01*
X114035040Y-110860010D01*
X114260675Y-110860010D01*
X114260675Y-110958885D01*
G37*
%TD.AperFunction*%
%TD*%
M02*
