M48
; DRILL file {KiCad 5.1.7-a382d34a8~88~ubuntu18.04.1} date Sun May  9 09:36:26 2021
; FORMAT={-:-/ absolute / inch / decimal}
; #@! TF.CreationDate,2021-05-09T09:36:26-04:00
; #@! TF.GenerationSoftware,Kicad,Pcbnew,5.1.7-a382d34a8~88~ubuntu18.04.1
FMAT,2
INCH
T1C0.0157
T2C0.0315
%
G90
G05
T1
X4.448Y-4.5576
X4.4488Y-4.3642
X4.4591Y-4.8688
X4.4591Y-4.779
X4.4921Y-4.3642
X4.5392Y-4.3644
X4.5709Y-4.8681
X4.5719Y-4.7734
X4.5786Y-4.3643
X4.6247Y-4.3673
X4.6379Y-4.4569
X4.7756Y-4.6402
X4.7835Y-4.9744
X4.8376Y-4.2904
X4.8661Y-4.8642
X4.871Y-4.5837
X4.8711Y-4.9713
X4.8789Y-4.2904
X4.9483Y-5.0307
X4.9547Y-4.9035
X4.9734Y-4.2904
X4.9904Y-5.133
X5.0004Y-5.0931
X5.0581Y-4.2904
X5.1742Y-4.2904
X5.2598Y-5.1083
X5.2864Y-4.2904
X5.3602Y-4.8071
X5.3976Y-4.8071
X5.3996Y-5.1043
X5.4331Y-4.8071
X5.4695Y-4.2904
X5.5295Y-5.1063
X5.6004Y-4.815
X5.6476Y-5.1024
T2
X5.0148Y-4.6014
X5.0276Y-4.4882
X4.3937Y-4.3937
X4.3937Y-4.4937
X4.3937Y-4.5937
X4.3937Y-4.6937
X4.3937Y-4.7937
X4.3937Y-4.8937
X4.3937Y-4.9937
X4.3937Y-5.0937
X4.6937Y-4.3937
X4.6937Y-4.4937
X4.6937Y-4.5937
X4.6937Y-4.6937
X4.6937Y-4.7937
X4.6937Y-4.8937
X4.6937Y-4.9937
X4.6937Y-5.0937
T0
M30
